<?xml version="1.0" encoding="UTF-8" standalone="no"?>
<svg width="92px" height="76px" viewBox="0 0 92 76" version="1.1" xmlns="http://www.w3.org/2000/svg" xmlns:xlink="http://www.w3.org/1999/xlink" xmlns:sketch="http://www.bohemiancoding.com/sketch/ns">
    <!-- Generator: Sketch Beta 3.5 (25229) - http://www.bohemiancoding.com/sketch -->
    <title>spend miles</title>
    <desc>Created with Sketch Beta.</desc>
    <defs></defs>
    <g id="DESIGNS" stroke="none" stroke-width="1" fill="none" fill-rule="evenodd" sketch:type="MSPage">
        <g id="design_desktop_home_no_log" sketch:type="MSArtboardGroup" transform="translate(-795.000000, -666.000000)">
            <g id="spend-miles" sketch:type="MSLayerGroup" transform="translate(794.000000, 668.000000)">
                <g id="Group" transform="translate(15.482955, 25.939675) rotate(-59.000000) translate(-15.482955, -25.939675) translate(1.482955, 16.439675)" stroke="#696E88" sketch:type="MSShapeGroup">
                    <path d="M26.8627955,17.6756757 L0.655190134,17.6756757 C0.293197585,17.6756757 -2.27373675e-13,17.302471 -2.27373675e-13,16.8416988 L-2.27373675e-13,8.5019305 C-2.27373675e-13,7.12586873 0.88450668,6 1.9655704,6 L25.5524152,6 C26.6334789,6 27.5179856,7.12586873 27.5179856,8.5019305 L27.5179856,16.8416988 C27.5179856,17.302471 27.224788,17.6756757 26.8627955,17.6756757 L26.8627955,17.6756757 Z" id="XMLID_1321_" stroke-width="3"></path>
                    <path d="M-2.84217094e-13,12 L27.5179856,12" id="XMLID_1319_" stroke-width="2"></path>
                    <path d="M1.94244604,18.2355212 L1.94244604,16.5675676" id="XMLID_1318_" stroke-width="3"></path>
                    <path d="M24.6043165,18.2355212 L24.6043165,16.5675676" id="XMLID_1317_" stroke-width="3"></path>
                    <path d="M12.3423169,4.31271687 L3.16965506,4.31271687 C2.80930049,4.31271687 2.51446493,3.93742729 2.51446493,3.47874004 L2.51446493,3.47874004 C2.51446493,1.643991 3.69380717,0.142832699 5.13522546,0.142832699 L10.3767465,0.142832699 C11.8181648,0.142832699 12.9975071,1.643991 12.9975071,3.47874004 L12.9975071,3.47874004 C12.9975071,3.93742729 12.7026715,4.31271687 12.3423169,4.31271687 L12.3423169,4.31271687 Z" id="XMLID_1314_" stroke-width="2"></path>
                    <path d="M24.3177828,4.65484609 L15.1451209,4.65484609 C14.7847664,4.65484609 14.4899308,4.27955652 14.4899308,3.82086926 L14.4899308,3.82086926 C14.4899308,1.98612023 15.6692731,0.484961925 17.1106913,0.484961925 L22.3522124,0.484961925 C23.7936307,0.484961925 24.972973,1.98612023 24.972973,3.82086926 L24.972973,3.82086926 C24.972973,4.27955652 24.6781374,4.65484609 24.3177828,4.65484609 L24.3177828,4.65484609 Z" id="XMLID_1313_" stroke-width="2"></path>
                </g>
                <ellipse id="XMLID_578_" stroke="#696E88" stroke-width="2" sketch:type="MSShapeGroup" cx="36.871896" cy="14.8584517" rx="2.87189603" ry="2.85845167"></ellipse>
                <ellipse id="XMLID_592_" stroke="#696E88" stroke-width="2" sketch:type="MSShapeGroup" cx="57.4265156" cy="15.1432251" rx="2.87189603" ry="2.85845167"></ellipse>
                <path d="M54.4173551,14 L40.057875,14" id="XMLID_594_" stroke="#696E88" stroke-width="2" sketch:type="MSShapeGroup"></path>
                <path d="M34.2891542,14.118426 L32.5660166,14.118426 C30.6705652,14.118426 29.1197414,12.5748621 29.1197414,10.688284 L29.1197414,8.40152262 C29.1197414,6.8293742 30.4120946,5.54307095 31.9916374,5.54307095 L33.714775,5.54307095 C37.5918347,5.54307095 35.9404944,0.397857936 42.0432735,0.397857936 L48.935824,0.397857936 C52.4897953,0.397857936 55.8283745,5.54307095 55.8283745,5.54307095 L59.5618393,6.40060645 C64.156873,7.54398712 64.7312522,7.2224113 64.7312522,10.688284 C64.7312522,12.296163 63.3312028,14.118426 61.2849769,14.118426 L60.1362185,14.118426" id="XMLID_9_" stroke="#696E88" stroke-width="3" sketch:type="MSShapeGroup"></path>
                <path d="M30.4487027,10.0114482 L32.7462196,10.0114482" id="XMLID_6_" stroke="#696E88" stroke-width="2" sketch:type="MSShapeGroup"></path>
                <path d="M58.831082,6.85604917 L40.7015856,6.85604917 C40.7015856,6.85604917 40.9126867,4.62290363 43.467102,1.13914582" id="XMLID_7_" stroke="#696E88" stroke-width="2" sketch:type="MSShapeGroup"></path>
                <path d="M46,1.81419286 L46,6.95940587" id="XMLID_10_" stroke="#696E88" stroke-width="2" sketch:type="MSShapeGroup"></path>
                <path d="M48.9130216,28.5405405 C49.6686331,25.7299459 41.6825899,22.4867027 48.2655396,18.1621622 L48.1677698,17.64 C47.3454676,17.5647568 46.5166906,17.5135135 45.6756115,17.5135135 C35.1080576,17.5135135 25.9552518,23.5563243 21.4539568,32.3766486 L21.718777,32.4324324 C25.3880576,29.2975135 34.7584173,35.2916757 31.4310072,40.2162162 C26.6830216,47.243027 32.5330216,47.7522162 37.9058273,47.3513514 C40.8194964,47.027027 44.3443885,45.6525405 43.0856835,38.9189189 C41.9927338,33.0707027 48.1574101,31.3511351 48.9130216,28.5405405 L48.9130216,28.5405405 Z" id="XMLID_1117_" opacity="0.1" fill="#62B4E8" sketch:type="MSShapeGroup"></path>
                <path d="M70.2158273,56.4972973 C67.167482,59.8073514 64.5192806,58.0339459 62.5101439,55.1351351 C60.4867626,52.2162162 56.8446763,51.8918919 54.7403597,56.4324324 C52.6360432,60.972973 50.4507914,56.7567568 46.3230935,62.9189189 C42.3533813,68.8456216 46.0181295,71.771027 46.3036691,71.9857297 C56.8576259,71.7450811 65.9230216,65.4862703 70.2158273,56.4972973 L70.2158273,56.4972973 Z" id="XMLID_1116_" opacity="0.1" fill="#62B4E8" sketch:type="MSShapeGroup"></path>
                <path d="M48.2655396,18.1621622 C41.6825899,22.4867027 49.6686331,25.7299459 48.9130216,28.5405405 C48.1574101,31.3511351 41.9927338,33.0707027 43.0856835,38.9189189 C44.3443885,45.6525405 40.8194964,47.027027 37.9058273,47.3513514 C32.5330216,47.7522162 26.6830216,47.243027 31.4310072,40.2162162 C34.7584173,35.2916757 25.3880576,29.2975135 21.718777,32.4324324" id="XMLID_1112_" stroke="#62B4E8" stroke-width="3" sketch:type="MSShapeGroup"></path>
                <path d="M46.3230935,72 C46.3230935,72 42.1953957,69.0810811 46.3230935,62.9189189 C50.4507914,56.7567568 52.6360432,60.972973 54.7403597,56.4324324 C56.8446763,51.8918919 60.4867626,52.2162162 62.5101439,55.1351351 C64.5335252,58.0540541 67.2043885,59.8378378 70.2799281,56.4324324" id="XMLID_1110_" stroke="#62B4E8" stroke-width="3" sketch:type="MSShapeGroup"></path>
                <path d="M72.7245324,49.2966486 C70.5671223,62.1820541 59.381223,72 45.9064748,72 C30.887482,72 18.7122302,59.8028108 18.7122302,44.7567568 C18.7122302,29.7107027 30.887482,17.5135135 45.9064748,17.5135135 C50.5670504,17.5135135 54.953741,18.6882162 58.787482,20.7574054" id="XMLID_1115_" stroke="#696E88" stroke-width="3" sketch:type="MSShapeGroup"></path>
                <path d="M78.1597842,49.5945946 L81.7830935,47.5033514 L84.0136691,32.2023784 L88.6308633,29.5357838 C89.4971942,29.0356757 91.5827338,25.9176216 90.8439568,24.6397838 C90.1051799,23.3619459 86.3614388,23.6064865 85.4951079,24.1065946 L80.8779137,26.7731892 L66.5109353,21.0540541 L62.8876259,23.1452973 L74.207554,30.6235676 L68.5666906,33.8804324 L64.522518,32.5241081 L61.2145324,34.4330811 L66.5860432,38.6434595 L67.5469065,45.3997838 L70.8548921,43.4908108 L71.7030935,39.3096216 L77.3439568,36.0527568 L78.1597842,49.5945946 L78.1597842,49.5945946 Z" id="XMLID_1114_" stroke="#696E88" stroke-width="3" sketch:type="MSShapeGroup"></path>
                <path d="M60.5676978,42.8108108 C33.4815827,58.0540541 11.9405036,56.7567568 10.775036,49.9459459 C10.235036,46.788973 13.2678417,43.4471351 18.4153237,40.1734054" id="XMLID_1113_" stroke="#696E88" stroke-width="3" sketch:type="MSShapeGroup"></path>
            </g>
        </g>
    </g>
</svg>