<?xml version="1.0" encoding="UTF-8" standalone="no"?>
<svg width="57px" height="89px" viewBox="0 0 57 89" version="1.1" xmlns="http://www.w3.org/2000/svg" xmlns:xlink="http://www.w3.org/1999/xlink" xmlns:sketch="http://www.bohemiancoding.com/sketch/ns">
    <!-- Generator: Sketch Beta 3.5 (25229) - http://www.bohemiancoding.com/sketch -->
    <title>Enjoy</title>
    <desc>Created with Sketch Beta.</desc>
    <defs></defs>
    <g id="DESIGNS" stroke="none" stroke-width="1" fill="none" fill-rule="evenodd" sketch:type="MSPage">
        <g id="design_desktop_home_no_log" sketch:type="MSArtboardGroup" transform="translate(-483.000000, -651.000000)">
            <g id="general" sketch:type="MSLayerGroup" transform="translate(0.000000, 544.000000)">
                <g id="Enjoy" transform="translate(485.000000, 108.419098)" sketch:type="MSShapeGroup">
                    <g id="XMLID_955_">
                        <path d="M2.28511538,65.7979335 L42.4971667,76.5509032 L40.2229231,85.1140584 L0,74.358365 L2.28511538,65.7979335 Z" id="XMLID_983_" opacity="0.1" fill="#000000"></path>
                        <path d="M0,74.358365 L40.2229231,85.1140584 L53,37.0069117 L43.6366667,20.7262946 L28.4773077,16.6483098 L12.8606538,25.6996792 C12.8606538,25.6996792 0.0951282051,74.0015669 0,74.358365 L0,74.358365 Z" id="XMLID_653_" stroke="#696E88" stroke-width="3"></path>
                        <path d="M2.28511538,65.7979335 L42.5080385,76.5536268" id="XMLID_674_" stroke="#696E88" stroke-width="3"></path>
                        <path d="M16.2244898,51.2866762 L29.8950924,55.0929769" id="XMLID_852_" stroke="#62B4E8" stroke-width="3"></path>
                        <path d="M14.2712692,57.4261147 L36.8288846,63.7749426" id="XMLID_793_" stroke="#62B4E8" stroke-width="3"></path>
                        <path d="M26.7724744,30.0616045 C28.1457179,32.8254282 30.1889359,34.8599947 32.8620385,35.5790382 C39.3219231,37.3167268 46.6019487,30.9869645 49.1547821,21.422868 C51.7076154,11.8587715 48.5269359,2.70458432 42.0677308,0.966895703 C35.6085256,-0.770792912 28.2952051,5.57735402 25.7423718,15.1414505 C25.4291282,16.3146627 25.1981026,17.4851512 25.0526923,18.6331697" id="XMLID_673_" stroke="#696E88" stroke-width="3"></path>
                        <path d="M37.7482308,31.3750846 C39.6637051,34.7054275 38.5269231,38.9638541 35.2096667,40.88607 C31.8924103,42.8089668 27.6503718,41.6677575 25.7348974,38.3374146 C23.8194231,35.0070717 24.9562051,30.7486452 28.2734615,28.8264293 C31.5907179,26.9035325 35.8327564,28.0447418 37.7482308,31.3750846 L37.7482308,31.3750846 Z" id="XMLID_672_" stroke="#696E88" stroke-width="3"></path>
                    </g>
                </g>
            </g>
        </g>
    </g>
</svg>