<?xml version="1.0" encoding="UTF-8" standalone="no"?>
<svg width="31px" height="30px" viewBox="0 0 31 30" version="1.1" xmlns="http://www.w3.org/2000/svg" xmlns:xlink="http://www.w3.org/1999/xlink" xmlns:sketch="http://www.bohemiancoding.com/sketch/ns">
    <!-- Generator: Sketch Beta 3.5 (25218) - http://www.bohemiancoding.com/sketch -->
    <title>Fill 2</title>
    <desc>Created with Sketch Beta.</desc>
    <defs></defs>
    <g id="DESIGNS--&gt;-UPDATES" stroke="none" stroke-width="1" fill="none" fill-rule="evenodd" sketch:type="MSPage">
        <g id="design_desktop_transaction" sketch:type="MSArtboardGroup" transform="translate(-256.000000, -1115.000000)" fill="#050E39">
            <g id="CTAs" sketch:type="MSLayerGroup" transform="translate(248.000000, 1107.000000)">
                <g id="print" sketch:type="MSShapeGroup">
                    <path d="M13.7533641,27.6566934 L13.7533641,31.384687 L11.239447,31.384687 C10.413106,31.384687 9.74082949,30.7114663 9.74082949,29.8839647 L9.74082949,21.411252 C9.74082949,20.5837504 10.413106,19.9105297 11.239447,19.9105297 L35.6066359,19.9105297 C36.432977,19.9105297 37.1052535,20.5837504 37.1052535,21.411252 L37.1052535,29.8839647 C37.1052535,30.7114663 36.432977,31.384687 35.6066359,31.384687 L33.0927189,31.384687 L33.0927189,27.6566934 L13.7533641,27.6566934 Z M15.6390783,9.74327448 L31.2070046,9.74327448 C31.2841475,9.74327448 31.3518894,9.81105618 31.3518894,9.88836276 L31.3518894,18.1672552 L15.4941935,18.1672552 L15.4941935,9.88836276 C15.4941935,9.81105618 15.5618802,9.74327448 15.6390783,9.74327448 L15.6390783,9.74327448 Z M31.2070046,35.7904976 L15.6390783,35.7904976 C15.5618802,35.7904976 15.4941935,35.7226605 15.4941935,35.6454093 L15.4941935,29.3999679 L31.3518894,29.3999679 L31.3518894,35.6454093 C31.3518894,35.7226605 31.2841475,35.7904976 31.2070046,35.7904976 L31.2070046,35.7904976 Z M33.0927189,18.1672552 L33.0927189,9.88836276 C33.0927189,8.84710514 32.2467465,8 31.2070046,8 L15.6390783,8 C14.5992811,8 13.7533641,8.84710514 13.7533641,9.88836276 L13.7533641,18.1672552 L11.239447,18.1672552 C9.45321659,18.1672552 8,19.6225128 8,21.411252 L8,29.8839647 C8,31.6727039 9.45321659,33.1279615 11.239447,33.1279615 L13.7533641,33.1279615 L13.7533641,35.6454093 C13.7533641,36.6866116 14.5992811,37.5337721 15.6390783,37.5337721 L31.2070046,37.5337721 C32.2467465,37.5337721 33.0927189,36.6866116 33.0927189,35.6454093 L33.0927189,33.1279615 L35.6066359,33.1279615 C37.3928664,33.1279615 38.8460829,31.6727039 38.8460829,29.8839647 L38.8460829,21.411252 C38.8460829,19.6225128 37.3928664,18.1672552 35.6066359,18.1672552 L33.0927189,18.1672552 Z" id="Fill-2"></path>
                </g>
            </g>
        </g>
    </g>
</svg>