<?xml version="1.0" encoding="UTF-8" standalone="no"?>
<svg width="82px" height="86px" viewBox="0 0 82 86" version="1.1" xmlns="http://www.w3.org/2000/svg" xmlns:xlink="http://www.w3.org/1999/xlink" xmlns:sketch="http://www.bohemiancoding.com/sketch/ns">
    <!-- Generator: Sketch Beta 3.5 (25229) - http://www.bohemiancoding.com/sketch -->
    <title>Walking_with_Suitcase</title>
    <desc>Created with Sketch Beta.</desc>
    <defs></defs>
    <g id="DESIGNS" stroke="none" stroke-width="1" fill="none" fill-rule="evenodd" sketch:type="MSPage">
        <g id="design_desktop_home_no_log" sketch:type="MSArtboardGroup" transform="translate(-147.000000, -653.000000)">
            <g id="general" sketch:type="MSLayerGroup" transform="translate(0.000000, 544.000000)">
                <g id="Walking_with_Suitcase" transform="translate(149.000000, 110.445623)" sketch:type="MSShapeGroup">
                    <g id="XMLID_628_">
                        <ellipse id="XMLID_1066_" stroke="#696E88" stroke-width="3" cx="59.6045094" cy="9.140978" rx="8.83018868" ry="9.04242838"></ellipse>
                        <path d="M67.6988491,37.6148314 L76.7041698,45.4531098 C78.2501887,46.7989245 78.438566,49.1816044 77.1243396,50.7640294 C76.4238113,51.6079894 75.401717,52.0925128 74.3185472,52.0925128 C73.4480377,52.0925128 72.6025472,51.7737672 71.9380755,51.1958053 L67.6988491,47.5381431" id="XMLID_1065_" stroke="#696E88" stroke-width="3"></path>
                        <path d="M67.6981132,37.7753345 L67.6981132,53.1090325 L74.1986038,78.2560258 C74.7181132,80.2641985 73.544434,82.3303933 71.5833962,82.861636 C71.2728679,82.946032 70.9549811,82.9889835 70.638566,82.9889835 C68.9733396,82.9889835 67.5119434,81.8353204 67.0851509,80.1835701 L59.2365849,49.8198492 L51.3880189,80.1835701 C50.9612264,81.8345668 49.4998302,82.9889835 47.8346038,82.9889835 C47.5181887,82.9889835 47.2010377,82.946032 46.8905094,82.861636 C44.9287358,82.3303933 43.7550566,80.2641985 44.274566,78.2560258 L50.7743208,53.1090325 L52.245283,32.5005847 C48.321,34.3316764 46.3577547,37.7753345 46.3577547,37.7753345 L46.3577547,46.8177629 C46.3577547,48.8952609 44.7072453,50.5854414 42.6785094,50.5854414 C40.6497736,50.5854414 38.9992642,48.8952609 38.9992642,46.8177629 L38.9992642,37.7753345 C38.9992642,32.0884006 48.4144528,22.7211984 58.9415094,22.7211984 C65.4442075,22.7211984 67.6981132,27.1195862 67.6981132,31.3702811 C67.6929623,31.4185074 67.6981132,37.7753345 67.6981132,37.7753345 L67.6981132,37.7753345 Z" id="XMLID_1064_" stroke="#696E88" stroke-width="3"></path>
                        <path d="M13.9818679,78.4662623 L40.4999992,51.1697613" id="XMLID_1063_" stroke="#62B4E8" stroke-width="3"></path>
                        <path d="M7.35849057,79.0641582 L0.423849057,71.9507812 C-0.141283019,71.3720657 -0.141283019,70.4256249 0.423849057,69.8469095 L16.7545472,53.1236917 C17.3196792,52.5449763 18.2439057,52.5449763 18.8090377,53.1236917 L28.6988491,63.239155" id="XMLID_1062_" stroke="#62B4E8" stroke-width="3"></path>
                        <ellipse id="XMLID_1060_" stroke="#62B4E8" stroke-width="3" cx="10.6701792" cy="79.5961891" rx="3.31168868" ry="3.39128741"></ellipse>
                        <path d="M13.2460189,57.3672627 L23.9158302,68.2935303" id="XMLID_1059_" stroke="#62B4E8" stroke-width="3"></path>
                        <path d="M50.7743208,9.140978 C50.7743208,9.140978 55.4344528,5.6242269 59.6045094,8.3874423 C63.774566,11.1506577 66.2271509,4.61976381 66.2271509,4.61976381" id="XMLID_1058_" stroke="#696E88" stroke-width="2"></path>
                    </g>
                </g>
            </g>
        </g>
    </g>
</svg>