<?xml version="1.0" encoding="UTF-8"?>
<svg width="28px" height="41px" viewBox="0 0 28 41" version="1.1" xmlns="http://www.w3.org/2000/svg" xmlns:xlink="http://www.w3.org/1999/xlink">
    <!-- Generator: Sketch 48.2 (47327) - http://www.bohemiancoding.com/sketch -->
    <title>noun_770937_cc</title>
    <desc>Created with Sketch.</desc>
    <defs></defs>
    <g id="Burn_3_Before_June_2018_rules-Copy" stroke="none" stroke-width="1" fill="none" fill-rule="evenodd" transform="translate(-45.000000, -790.000000)" stroke-linecap="round" stroke-linejoin="round">
        <g id="noun_770937_cc" transform="translate(46.000000, 791.000000)" stroke="#FFFFFF" stroke-width="1.5">
            <path d="M17.9069583,0.518375 L16.732625,4.89775 L17.9069583,0.518375 Z M25.8710833,5.28829167 L22.6665833,8.49441667 L25.8710833,5.28829167 Z M8.42941667,0.667333333 L9.602125,5.045625 L8.42941667,0.667333333 Z M3.33558333,8.76145833 L0.128916667,5.55641667 L3.33558333,8.76145833 Z M9.098375,35.7364767 L16.9205833,35.7364767 L9.098375,35.7364767 Z M9.098375,38.9864767 L16.9205833,38.9864767 L9.098375,38.9864767 Z M13.752375,8.72408333 C13.5790417,8.714875 13.403,8.70891667 13.225875,8.70891667 C13.225875,8.70891667 12.8835417,8.71270833 12.7275417,8.721375 C7.66079167,8.98083333 3.63295833,13.169 3.63295833,18.30075 C3.63295833,21.0865417 5.265,23.7287917 7.17545833,25.7405417 C7.5335,26.0785417 8.01070833,26.6045 8.25716667,27.2003333 C8.48791667,27.7577083 8.54695833,28.4754167 8.54425,29.2738333 L8.54425,30.03 L8.54425,32.082375 L10.596625,32.082375 L13.1987917,32.082375 L13.225875,32.082375 L15.8302083,32.082375 L17.879875,32.082375 L17.879875,30.0305417 L17.879875,29.274375 C17.8760833,28.4754167 17.9378333,27.75825 18.1680417,27.200875 C18.4150417,26.6034167 18.8911667,26.0785417 19.24975,25.7405417 C21.1596667,23.7287917 22.7917083,21.0854583 22.7917083,18.30075 C22.7917083,13.186875 18.793125,9.01225 13.752375,8.72408333 Z" id="Shape"></path>
        </g>
    </g>
</svg>