<?xml version="1.0" encoding="UTF-8" standalone="no"?>
<svg width="250px" height="250px" viewBox="0 0 250 250" version="1.1" xmlns="http://www.w3.org/2000/svg" xmlns:xlink="http://www.w3.org/1999/xlink">
    <!-- Generator: Sketch Beta 3.7.2 (28276) - http://www.bohemiancoding.com/sketch -->
    <title>Artboard 1</title>
    <desc>Created with Sketch Beta.</desc>
    <defs></defs>
    <g id="Page-1" stroke="none" stroke-width="1" fill="none" fill-rule="evenodd">
        <g id="Artboard-1" fill="#051039">
            <g id="Page-1" transform="translate(25.000000, 42.000000)">
                <path d="M0,57.4356474 L0,146.458237 C0,156.801488 8.38677686,165.199835 18.7415978,165.199835 L29.8694215,165.199835 L29.8694215,38.6940496 L18.7415978,38.6940496 C8.38677686,38.6940496 0,47.0808264 0,57.4356474" id="Fill-1"></path>
                <path d="M107.022645,41.9997796 C107.022645,40.88573 107.06011,39.7799449 107.126777,38.6824242 L78.5973003,38.6824242 C78.4689256,38.178292 78.2810468,37.686832 78.2810468,37.1242975 C78.2810468,33.6807713 81.0810468,30.8813223 84.524573,30.8813223 L108.171956,30.8813223 C108.838623,27.6995041 109.786832,24.6218182 110.986281,21.6730579 C110.255152,21.5678237 109.508595,21.5105234 108.748264,21.5105234 L84.524573,21.5105234 C75.9152066,21.5105234 68.9102479,28.5149311 68.9102479,37.1242975 C68.9102479,37.6631405 69.0160331,38.1667218 69.0744353,38.6824242 L41.5829752,38.6824242 L41.5829752,165.188209 L151.689862,165.188209 L151.689862,95.1601102 C126.31741,90.7557025 107.022645,68.6322865 107.022645,41.9997796" id="Fill-3"></path>
                <path d="M163.403361,165.2 L174.531185,165.2 C184.886006,165.2 193.272782,156.801653 193.272782,146.457851 L193.272782,85.5564738 C184.84303,91.7316804 174.554876,95.5168044 163.403361,95.9195592 L163.403361,165.2 Z" id="Fill-5"></path>
                <g id="Group-9" transform="translate(121.763085, 0.461708)">
                    <path d="M70.4792837,31.3487052 L46.6969146,31.3487052 L46.6969146,7.56633609 C46.6969146,3.4368595 43.3503581,0.0892011019 39.2197796,0.0892011019 C35.0892011,0.0892011019 31.7420937,3.4368595 31.7420937,7.56633609 L31.7420937,31.3487052 L7.95972452,31.3487052 C3.8307989,31.3487052 0.482589532,34.6969146 0.482589532,38.8258402 C0.482589532,42.9553168 3.8307989,46.3035262 7.95972452,46.3035262 L31.7420937,46.3035262 L31.7420937,70.0853444 C31.7420937,74.2153719 35.0892011,77.5624793 39.2197796,77.5624793 C43.3503581,77.5624793 46.6969146,74.2153719 46.6969146,70.0853444 L46.6969146,46.3035262 L70.4792837,46.3035262 C74.6087603,46.3035262 77.9564187,42.9553168 77.9564187,38.8258402 C77.9564187,34.6969146 74.6087603,31.3487052 70.4792837,31.3487052" id="Fill-7"></path>
                </g>
            </g>
        </g>
    </g>
</svg>