<?xml version="1.0" encoding="UTF-8" standalone="no"?>
<svg width="250px" height="250px" viewBox="0 0 250 250" version="1.1" xmlns="http://www.w3.org/2000/svg" xmlns:xlink="http://www.w3.org/1999/xlink">
    <!-- Generator: Sketch Beta 3.7.2 (28276) - http://www.bohemiancoding.com/sketch -->
    <title>Artboard 1</title>
    <desc>Created with Sketch Beta.</desc>
    <defs>
        <polygon id="path-1" points="249.723333 0.308333333 0 0.308333333 0 77.7891667 249.723333 77.7891667 249.723333 0.308333333"></polygon>
    </defs>
    <g id="Page-1" stroke="none" stroke-width="1" fill="none" fill-rule="evenodd">
        <g id="Artboard-1">
            <g id="Page-1" transform="translate(0.000000, 79.000000)">
                <path d="M211.084167,53.9390833 C221.0925,53.9390833 229.150833,62.4224167 229.150833,72.9390833 C229.425833,82.2890833 222.200833,91.35575 211.9175,91.35575 C202.184167,91.35575 194.125833,83.1724167 194.125833,72.3640833 C193.850833,61.5390833 202.184167,53.9390833 211.084167,53.9390833" id="Fill-1" fill="#051039"></path>
                <path d="M49.825,53.9390833 C59.5583333,53.9390833 67.3416667,61.83075 67.3416667,72.6474167 C67.3416667,83.1724167 59.55,91.35575 49.825,91.35575 C40.1,91.35575 32.5833333,83.4640833 32.3,72.6474167 C32.5833333,62.1224167 40.0916667,53.9390833 49.825,53.9390833" id="Fill-3" fill="#051039"></path>
                <g id="Group-7" transform="translate(0.000000, 8.024083)">
                    <mask id="mask-2" fill="white">
                        <use xlink:href="#path-1"></use>
                    </mask>
                    <g id="Clip-6"></g>
                    <path d="M0.606666667,54.9808333 C0.0483333333,55.8558333 0.0483333333,56.7391667 0.606666667,57.6058333 C1.44,59.3558333 1.99833333,60.8225 2.54833333,62.5808333 C2.83166667,62.8725 2.83166667,63.4641667 3.115,63.7558333 C3.94833333,64.3225 4.22333333,65.4975 4.50666667,66.3641667 C4.78166667,66.6641667 4.78166667,66.9558333 5.05666667,67.2558333 C9.22333333,70.4725 14.2316667,70.4725 19.24,71.6308333 C21.74,72.2141667 23.965,72.2141667 26.465,72.5141667 C27.0233333,72.5141667 27.2983333,69.2891667 27.0233333,67.8225 C27.0233333,66.9558333 27.2983333,66.3558333 27.2983333,65.4975 L27.2983333,64.9141667 C27.5816667,51.4641667 37.3066667,40.9475 49.54,40.9475 C58.4316667,40.9475 65.94,46.2058333 69.5566667,54.1141667 L69.5566667,54.3975 C69.84,54.6891667 69.84,55.2725 70.115,55.5725 C72.615,61.9975 72.34,68.4308333 71.7816667,69.0225 C71.2233333,71.3558333 70.6733333,73.9808333 70.39,75.7391667 C70.115,76.9225 70.9483333,77.7891667 72.0566667,77.7891667 C75.115,77.4975 81.2316667,76.9225 87.6316667,76.3308333 C121.831667,76.3308333 155.748333,76.0308333 190.231667,76.0308333 C190.79,75.1641667 190.515,75.4558333 191.065,74.5725 C189.948333,72.2308333 189.115,67.5475 189.115,64.9225 C189.406667,51.4725 199.123333,40.9558333 211.365,40.9558333 C223.598333,40.9558333 233.606667,51.1891667 233.606667,64.6308333 C233.606667,67.8558333 233.048333,70.4808333 232.49,71.9391667 C232.215,72.8225 232.765,73.4058333 233.331667,73.4058333 C235.831667,73.4058333 238.615,73.4058333 241.131667,72.5308333 C242.24,72.2391667 243.348333,72.2391667 244.456667,71.9475 C245.84,71.6641667 246.115,71.0808333 246.115,69.6141667 L246.115,69.0391667 C247.231667,66.3975 247.515,63.7725 247.79,61.1391667 C247.79,60.5641667 247.79,59.9641667 248.065,59.3808333 C249.448333,58.5141667 249.448333,58.5141667 249.448333,57.0475 C249.448333,55.5891667 249.723333,54.4308333 249.723333,52.9641667 C249.723333,51.7808333 249.173333,50.9141667 248.34,50.3308333 C247.223333,49.7558333 245.831667,49.1725 244.723333,48.5808333 L244.723333,47.9975 L244.723333,44.1558333 C245.006667,40.0725 243.048333,37.7308333 239.998333,35.9725 C238.331667,35.0975 236.673333,34.5058333 234.99,33.9225 C231.381667,33.0475 219.14,29.5391667 216.365,28.9558333 C211.915,28.0808333 207.198333,27.4975 202.456667,26.9058333 C197.465,26.3308333 192.723333,26.0308333 187.731667,25.4558333 C185.773333,25.1558333 183.84,25.1558333 181.606667,25.4558333 C180.223333,25.4558333 179.098333,25.1558333 177.998333,24.5808333 C168.54,18.7225 142.956667,6.4475 140.19,4.98083333 C135.456667,2.6475 130.173333,1.76416667 125.165,0.889166667 C121.831667,0.305833333 118.49,0.305833333 115.156667,0.305833333 C103.756667,0.305833333 92.3566667,0.305833333 80.9566667,1.4725 C76.2316667,2.05583333 71.5066667,2.6475 66.7733333,3.81416667 C61.765,4.98083333 56.765,7.61416667 52.04,9.3725 C45.6483333,12.0058333 39.5316667,15.2225 33.14,18.1391667 C29.8066667,20.4808333 21.74,22.5225 13.6816667,22.5225 L7.28166667,22.5225 C6.72333333,22.5225 6.165,22.5225 5.60666667,22.8141667 C5.05666667,23.1058333 4.49833333,23.3975 4.77333333,24.2725 C5.89,28.9641667 5.33166667,33.6391667 4.49833333,38.3141667 C4.22333333,40.0725 4.22333333,41.8225 4.22333333,43.8725 L4.22333333,44.7475 C3.665,45.0391667 2.83166667,45.0391667 2.27333333,45.3225 C0.606666667,45.9058333 -0.226666667,47.6725 0.0483333333,49.4141667 C0.323333333,50.8808333 0.606666667,52.3475 0.881666667,53.7975 C0.881666667,53.8058333 0.881666667,54.3975 0.606666667,54.9808333 M99.3066667,4.98916667 C104.59,4.40583333 112.373333,4.40583333 118.215,4.6975 C123.773333,4.98916667 129.056667,5.86416667 134.34,7.6225 C139.065,9.3725 157.973333,19.9058333 157.973333,19.9058333 C158.531667,20.1891667 158.806667,20.4808333 159.365,20.7808333 L158.531667,20.7808333 C158.248333,20.7808333 157.973333,21.0641667 157.423333,21.3558333 C156.865,21.0641667 156.581667,21.0641667 156.023333,21.0641667 C155.748333,21.0641667 153.256667,19.8975 152.69,21.9391667 C152.69,22.2308333 152.131667,23.6891667 152.131667,24.5808333 C152.131667,26.6225 153.531667,27.7891667 153.531667,27.7891667 C153.256667,28.3725 152.981667,28.9641667 152.69,29.5391667 C151.581667,29.5391667 122.656667,28.6641667 103.481667,28.3725 L97.915,7.9225 C97.915,6.4475 98.4733333,4.98916667 99.3066667,4.98916667 M49.54,21.6558333 C49.54,19.9058333 51.765,18.1558333 52.315,17.8558333 C53.715,16.6808333 60.39,13.4725 69.2816667,9.6725 C76.515,6.4475 86.24,6.4475 89.8566667,5.86416667 C90.69,5.86416667 91.2483333,6.4475 91.2483333,7.03083333 L92.915,27.4975 C89.0233333,27.4975 54.5483333,26.6225 53.715,26.6225 C52.5983333,26.6225 49.8233333,25.1641667 49.54,21.6558333" id="Fill-5" fill="#051039" mask="url(#mask-2)"></path>
                </g>
            </g>
        </g>
    </g>
</svg>