<?xml version="1.0" encoding="UTF-8" standalone="no"?>
<svg width="250px" height="250px" viewBox="0 0 250 250" version="1.1" xmlns="http://www.w3.org/2000/svg" xmlns:xlink="http://www.w3.org/1999/xlink">
    <!-- Generator: Sketch Beta 3.7.2 (28276) - http://www.bohemiancoding.com/sketch -->
    <title>Artboard 1</title>
    <desc>Created with Sketch Beta.</desc>
    <defs></defs>
    <g id="Page-1" stroke="none" stroke-width="1" fill="none" fill-rule="evenodd">
        <g id="Artboard-1" fill="#051039">
            <g id="Page-1" transform="translate(0.000000, 60.000000)">
                <g id="Group-3" transform="translate(155.172414, 8.258621)">
                    <path d="M61.675,0.362068966 C51.7612069,0.379310345 46.7698276,5.12068966 41.8215517,14.5862069 C36.8732759,5.12068966 31.8905172,0.370689655 21.9508621,0.362068966 C10.9422414,0.344827586 1.96810345,8.92241379 1.95086207,19.4827586 C1.91637931,38.637931 21.8732759,57.8362069 41.8215517,77.0344828 C61.7698276,57.8275862 81.7094828,38.637931 81.6922414,19.4827586 C81.675,8.9137931 72.7181034,0.336206897 61.675,0.362068966" id="Fill-1"></path>
                </g>
                <path d="M176.008621,99.862069 C175.465517,101.939655 174.353448,103.896552 172.853448,105.508621 C167.732759,110.75 159.362069,110.87931 154.137931,105.767241 L128.224138,80.1637931 L124.086207,84.887931 L150.051724,110.491379 C157.112069,117.448276 169.965517,118.155172 176.922414,111.017241 C179.310345,108.525862 181.387931,103.258621 182.112069,99.9913793 L234.982759,99.9913793 C242.336207,99.9913793 249.612069,106.939655 249.612069,114.37069 C249.612069,121.844828 245.103448,128.948276 234.982759,128.948276 L143.965517,128.948276 C139.224138,128.810345 133.87069,126.948276 129.767241,123.387931 L71.6206897,78.9827586 L0,78.7068966 L0,30.6637931 L105.043103,30.6637931 C105.043103,30.6637931 111.991379,30.8103448 116.775862,33.637931 C121.198276,36.25 125.103448,40.0517241 125.103448,40.0517241 L172.551724,86.6724138 C174.353448,88.4224138 175.603448,90.6465517 176.232759,93.1551724 C176.689655,95.3448276 176.646552,97.6465517 176.008621,99.862069" id="Fill-4"></path>
            </g>
        </g>
    </g>
</svg>