<?xml version="1.0" encoding="UTF-8" standalone="no"?>
<svg width="250px" height="250px" viewBox="0 0 250 250" version="1.1" xmlns="http://www.w3.org/2000/svg" xmlns:xlink="http://www.w3.org/1999/xlink">
    <!-- Generator: Sketch Beta 3.7.2 (28276) - http://www.bohemiancoding.com/sketch -->
    <title>Artboard 1</title>
    <desc>Created with Sketch Beta.</desc>
    <defs>
        <polygon id="path-1" points="248.659091 182.391846 248.659091 0.568181818 0 0.568181818 0 182.391846 248.659091 182.391846"></polygon>
    </defs>
    <g id="Page-1" stroke="none" stroke-width="1" fill="none" fill-rule="evenodd">
        <g id="Artboard-1">
            <g id="Page-1" transform="translate(0.000000, 34.000000)">
                <g id="Group-3" transform="translate(0.000000, 0.011364)">
                    <mask id="mask-2" fill="white">
                        <use xlink:href="#path-1"></use>
                    </mask>
                    <g id="Clip-2"></g>
                    <path d="M233.168939,10.0454545 L82.1840909,10.0454545 L43.2371212,0.962121212 C34.8886364,-0.977272727 26.5628788,4.32575758 24.6537879,12.8409091 L0.388636364,120.651515 C-1.52045455,129.159091 3.69924242,137.636364 12.0477273,139.545455 L33.6537879,144.590909 L33.7143939,144.712121 L33.8204545,144.871212 L33.8583333,144.94697 L33.9037879,145.015152 C34.0098485,145.174242 34.1234848,145.340909 34.2219697,145.492424 L34.3128788,145.613636 L34.3128788,145.621212 L34.4643939,145.833333 L34.5628788,145.94697 L34.6159091,146.022727 L34.7295455,146.174242 L34.775,146.234848 L34.9265152,146.424242 L34.9568182,146.469697 L35.0780303,146.628788 L35.1083333,146.674242 L35.244697,146.840909 L35.4037879,147 L35.4492424,147.045455 L35.5098485,147.106061 L35.6537879,147.265152 L35.7143939,147.325758 L35.744697,147.356061 L35.9113636,147.530303 L35.9643939,147.590909 L36.025,147.651515 L36.1840909,147.818182 L36.2219697,147.856061 L36.2522727,147.886364 L36.4265152,148.05303 L36.5022727,148.128788 L36.5401515,148.166667 L36.7068182,148.325758 L36.7598485,148.378788 L36.7901515,148.393939 L36.9719697,148.55303 L36.9871212,148.568182 L37.1159091,148.689394 L37.1537879,148.719697 L37.3280303,148.878788 L37.3431818,148.893939 L37.5325758,149.060606 L37.6234848,149.113636 L37.6689394,149.159091 L37.8280303,149.287879 L37.9265152,149.356061 L37.9795455,149.401515 L38.2219697,149.560606 L38.2371212,149.575758 L38.5325758,149.765152 L38.7295455,149.901515 L38.7674242,149.931818 L38.9113636,150.022727 L38.9416667,150.037879 L39.1613636,150.181818 L39.1765152,150.189394 L39.4568182,150.348485 L39.5325758,150.371212 L39.8128788,150.537879 L39.8280303,150.530303 L39.8659091,150.545455 L40.1234848,150.681818 L40.1992424,150.734848 L40.4719697,150.878788 L40.5022727,150.893939 L40.5325758,150.909091 L40.8280303,151.045455 L40.8659091,151.060606 L41.1613636,151.181818 L41.2143939,151.204545 L41.2598485,151.234848 L41.5628788,151.356061 L41.8734848,151.462121 L41.9189394,151.477273 L41.9719697,151.5 L42.2371212,151.590909 L42.2825758,151.613636 L42.3507576,151.628788 L42.5856061,151.704545 L42.6537879,151.727273 L42.6689394,151.727273 L43.0022727,151.825758 L43.0174242,151.840909 L43.0628788,151.840909 L43.3583333,151.931818 L43.3810606,151.931818 L43.5477273,151.977273 L43.7598485,152.022727 L43.7977273,152.030303 L44.055303,152.045455 L44.1310606,152.060606 L44.1992424,152.075758 L44.4568182,152.113636 L44.525,152.136364 L44.6159091,152.136364 L44.8734848,152.166667 L44.9795455,152.19697 L45.0022727,152.19697 L45.3507576,152.227273 L45.3507576,152.242424 L45.3734848,152.242424 L45.6386364,152.25 L45.6840909,152.280303 L45.8204545,152.280303 L46.1462121,152.30303 L46.1462121,152.30303 L46.525,152.325758 L46.5477273,152.325758 L46.9340909,152.325758 L66.3734848,152.325758 L193.555303,181.992424 C201.918939,183.931818 210.237121,178.621212 212.153788,170.128788 L216.153788,152.325758 L233.153788,152.325758 C241.72197,152.325758 248.661364,145.242424 248.661364,136.522727 L248.661364,25.9090909 C248.676515,17.1212121 241.737121,10.0454545 233.168939,10.0454545 L233.168939,10.0454545 Z M181.752273,67.6893939 C181.752273,65.969697 183.115909,64.5833333 184.782576,64.5833333 C186.456818,64.5833333 187.835606,65.9772727 187.835606,67.6893939 L187.835606,91.780303 C187.835606,93.5 186.456818,94.8863636 184.782576,94.8863636 C183.100758,94.8863636 181.752273,93.5 181.752273,91.780303 L181.752273,67.6893939 Z M169.275,67.5227273 C169.275,65.7272727 170.759848,64.6287879 172.684091,64.6287879 C174.608333,64.6287879 176.085606,65.7348485 176.085606,67.5227273 L176.085606,67.6060606 C176.085606,69.4015152 174.608333,70.5454545 172.684091,70.5454545 C170.759848,70.5454545 169.275,69.4015152 169.275,67.6060606 L169.275,67.5227273 Z M175.729545,75.6136364 L175.729545,91.780303 C175.729545,93.5 174.365909,94.8863636 172.699242,94.8863636 C171.025,94.8863636 169.646212,93.5 169.646212,91.780303 L169.646212,75.6136364 C169.646212,73.8939394 171.025,72.5075758 172.699242,72.5075758 C174.365909,72.5075758 175.729545,73.8939394 175.729545,75.6136364 L175.729545,75.6136364 Z M135.184091,69.0378788 C135.184091,67.280303 136.547727,65.8939394 138.282576,65.8939394 L138.956818,65.8939394 C140.275,65.8939394 141.199242,66.5833333 141.767424,67.5227273 L149.214394,79.8939394 L156.706818,67.4772727 C157.365909,66.4166667 158.229545,65.8863636 159.47197,65.8863636 L160.153788,65.8863636 C161.896212,65.8863636 163.244697,67.2727273 163.244697,69.030303 L163.244697,91.7348485 C163.244697,93.4924242 161.865909,94.8787879 160.153788,94.8787879 C158.479545,94.8787879 157.115909,93.4545455 157.115909,91.7348485 L157.115909,77.4848485 L151.699242,85.9772727 C151.062879,86.9545455 150.267424,87.5681818 149.123485,87.5681818 C147.987121,87.5681818 147.199242,86.9545455 146.562879,85.9772727 L141.22197,77.6060606 L141.22197,91.8106061 C141.22197,93.530303 139.865909,94.8712121 138.191667,94.8712121 C136.494697,94.8712121 135.184091,93.5227273 135.184091,91.8106061 L135.184091,69.0378788 Z M31.8507576,140.121212 L31.8507576,140.098485 L31.8431818,140.068182 L31.8356061,140.05303 L31.8431818,140.068182 L31.8507576,140.098485 L31.8507576,140.121212 Z M31.9795455,140.507576 L31.9795455,140.492424 L31.9795455,140.477273 L31.9719697,140.462121 L31.9643939,140.44697 L31.9568182,140.431818 L31.9568182,140.416667 L31.9492424,140.401515 L31.9340909,140.340909 L31.9416667,140.356061 L31.9416667,140.348485 L31.9416667,140.340909 L31.8583333,140.151515 L31.9416667,140.348485 L31.9416667,140.356061 L31.9416667,140.371212 L31.9416667,140.386364 L31.9795455,140.477273 L31.9795455,140.492424 L31.9795455,140.507576 L32.0022727,140.537879 L32.0022727,140.55303 L32.1537879,140.924242 L31.9795455,140.507576 Z M33.025,143.416667 L33.0098485,143.409091 L33.0098485,143.378788 L33.0022727,143.363636 L33.0098485,143.378788 L33.0098485,143.409091 L33.025,143.416667 L33.0325758,143.439394 L33.025,143.416667 Z M32.9871212,143.363636 L32.994697,143.378788 L32.9871212,143.363636 Z M33.1083333,143.613636 L33.1083333,143.598485 L33.0856061,143.568182 L33.0856061,143.537879 L33.0780303,143.522727 L33.0704545,143.507576 L33.055303,143.492424 L33.055303,143.477273 L33.0325758,143.462121 L33.0174242,143.409091 L33.0325758,143.462121 L33.0401515,143.477273 L33.0401515,143.492424 L33.055303,143.507576 L33.0628788,143.522727 L33.0704545,143.537879 L33.0704545,143.568182 L33.0931818,143.598485 L33.1083333,143.613636 L33.1159091,143.628788 L33.1083333,143.613636 Z M33.0931818,143.583333 L33.0780303,143.545455 L33.0704545,143.515152 L33.0780303,143.545455 L33.0856061,143.568182 L33.0931818,143.583333 L33.1007576,143.598485 L33.1083333,143.613636 L33.1083333,143.628788 L33.1083333,143.613636 L33.1007576,143.598485 L33.0931818,143.583333 Z M33.1537879,143.689394 L33.1537879,143.674242 L33.1159091,143.643939 L33.1083333,143.628788 L33.1083333,143.598485 L33.0856061,143.560606 L33.1083333,143.598485 L33.1083333,143.628788 L33.1159091,143.643939 L33.1234848,143.659091 L33.1159091,143.628788 L33.1234848,143.643939 L33.1310606,143.659091 L33.1310606,143.674242 L33.1537879,143.704545 L33.1765152,143.719697 L33.1765152,143.727273 L33.1765152,143.742424 L33.1765152,143.757576 L33.1537879,143.689394 Z M33.2068182,143.787879 L33.1992424,143.772727 L33.1992424,143.757576 L33.1840909,143.742424 L33.1765152,143.727273 L33.1765152,143.719697 L33.1613636,143.674242 L33.1537879,143.659091 L33.1613636,143.674242 L33.1689394,143.674242 L33.1689394,143.719697 L33.1689394,143.727273 L33.1765152,143.742424 L33.1840909,143.757576 L33.1916667,143.772727 L33.2068182,143.787879 L33.2143939,143.818182 L33.2068182,143.787879 Z M33.3659091,144.098485 L33.3659091,144.083333 L33.3583333,144.068182 L33.3507576,144.05303 L33.1840909,143.742424 L33.3356061,144.015152 L33.3356061,144.037879 L33.3356061,144.05303 L33.3431818,144.068182 L33.3583333,144.083333 L33.3659091,144.098485 L33.3734848,144.128788 L33.3659091,144.098485 Z M46.9492424,10.0454545 C38.3886364,10.0454545 31.4416667,17.1212121 31.4416667,25.8484848 L31.4416667,135.992424 L13.7901515,131.878788 C9.60833333,130.901515 7.00227273,126.674242 7.95681818,122.416667 L32.2143939,14.6060606 C33.1689394,10.3484848 37.3204545,7.68939394 41.5098485,8.66666667 L47.4189394,10.0454545 L46.9492424,10.0454545 Z M73.5098485,114.060606 C70.2219697,114.060606 70.2219697,110.719697 70.2219697,110.719697 C70.2219697,108.454545 76.2522727,95.469697 80.1310606,87.3181818 L65.6537879,87.3181818 C61.5325758,93.1515152 55.8204545,100.689394 53.805303,100.689394 C50.525,100.689394 50.525,97.3560606 50.525,97.3560606 C50.525,94.0151515 57.0856061,80.6363636 57.0856061,80.6363636 C57.0856061,80.6363636 50.525,67.25 50.525,63.9015152 C50.525,60.5606061 53.805303,60.5606061 53.805303,60.5606061 C55.8204545,60.5606061 61.5401515,68.0984848 65.6537879,73.9393939 L80.1310606,73.9393939 C76.2522727,65.780303 70.2219697,52.7954545 70.2219697,50.530303 C70.2219697,47.1893939 73.5098485,47.1893939 73.5098485,47.1893939 C75.8507576,47.1893939 89.8734848,64.1893939 97.744697,73.9469697 L116.214394,73.9469697 C119.843182,73.9469697 122.775,76.9393939 122.775,80.6363636 C122.775,84.3333333 119.843182,87.3257576 116.214394,87.3257576 L97.744697,87.3257576 C89.8734848,97.0757576 75.8507576,114.060606 73.5098485,114.060606 L73.5098485,114.060606 Z M204.600758,168.280303 C203.653788,172.537879 199.494697,175.189394 195.305303,174.212121 L101.131061,152.25 L208.206818,152.25 L204.600758,168.280303 Z M210.661364,85.8636364 L198.593182,85.8636364 C199.199242,88.6818182 201.123485,90.1515152 203.843182,90.1515152 C205.532576,90.1515152 206.934091,89.6212121 208.161364,88.6818182 C208.623485,88.3560606 209.009848,88.2045455 209.646212,88.2045455 C211.002273,88.2045455 212.009848,89.2651515 212.009848,90.6515152 C212.009848,91.469697 211.653788,92.0833333 211.22197,92.4924242 C209.335606,94.1287879 206.881061,95.1439394 203.767424,95.1439394 C197.305303,95.1439394 192.540152,90.530303 192.540152,83.8333333 L192.540152,83.75 C192.540152,77.5 196.903788,72.3560606 203.161364,72.3560606 C210.32803,72.3560606 213.494697,78.3560606 213.494697,82.8939394 C213.502273,84.6742424 212.259848,85.8636364 210.661364,85.8636364 L210.661364,85.8636364 Z M233.926515,87.9848485 C233.926515,92.8409091 230.358333,95.0454545 225.699242,95.0454545 C223.047727,95.0454545 220.206818,94.2727273 217.600758,92.5530303 C216.956818,92.1439394 216.434091,91.4090909 216.434091,90.4318182 C216.434091,89.0454545 217.487121,87.9848485 218.843182,87.9848485 C219.290152,87.9848485 219.729545,88.1060606 220.047727,88.3106061 C222.100758,89.6136364 224.146212,90.2727273 225.858333,90.2727273 C227.631061,90.2727273 228.434091,89.6212121 228.434091,88.6363636 L228.434091,88.5530303 C228.434091,87.2045455 226.365909,86.7575758 223.979545,86.0227273 C220.987121,85.1212121 217.555303,83.6969697 217.555303,79.4469697 L217.555303,79.3636364 C217.555303,74.9166667 221.093182,72.4242424 225.426515,72.4242424 C227.661364,72.4242424 229.987121,73.0378788 232.070455,74.0984848 C232.964394,74.5530303 233.525,75.3636364 233.525,76.4318182 C233.525,77.8181818 232.426515,78.8787879 231.07803,78.8787879 C230.638636,78.8787879 230.358333,78.7954545 229.956818,78.5909091 C228.229545,77.7348485 226.585606,77.2045455 225.297727,77.2045455 C223.835606,77.2045455 223.062879,77.8560606 223.062879,78.7121212 L223.062879,78.7954545 C223.062879,80.0227273 225.123485,80.5909091 227.426515,81.4090909 C230.434091,82.4318182 233.926515,83.9015152 233.926515,87.9015152 L233.926515,87.9848485 Z" id="Fill-1" fill="#051039" mask="url(#mask-2)"></path>
                </g>
                <path d="M203.162121,77.369697 C200.631818,77.369697 198.987879,79.2030303 198.518182,82.0212121 L207.692424,82.0212121 C207.336364,79.2484848 205.722727,77.369697 203.162121,77.369697" id="Fill-4" fill="#051039"></path>
                <polygon id="Fill-6" fill="#030404" points="31.9083333 140.390909 31.9007576 140.360606 31.9007576 140.35303 31.9083333 140.406061"></polygon>
                <polygon id="Fill-8" fill="#030404" points="33.1181818 143.668182 33.1181818 143.668182 33.1181818 143.683333"></polygon>
                <path d="M33.1181818,143.668182 L33.1106061,143.65303 L33.1181818,143.668182 Z" id="Fill-10" fill="#030404"></path>
                <polygon id="Fill-12" fill="#030404" points="33.325 144.05303 33.1810606 143.787879 33.3401515 144.098485 33.3325758 144.083333"></polygon>
                <polygon id="Fill-14" fill="#030404" points="33.1257576 143.683333 33.1257576 143.683333 33.1257576 143.668182 33.1106061 143.65303 33.1030303 143.637879 33.1181818 143.668182"></polygon>
                <polygon id="Fill-16" fill="#030404" points="33.1325758 143.697727 33.125 143.682576 33.1174242 143.682576 33.125 143.682576"></polygon>
                <polygon id="Fill-18" fill="#030404" points="33.1401515 143.712879 33.1401515 143.697727 33.1325758 143.697727 33.125 143.682576 33.1477273 143.72803"></polygon>
                <polygon id="Fill-20" fill="#030404" points="33.1181818 143.668182 33.1106061 143.668182 33.1030303 143.65303 33.1257576 143.698485 33.1257576 143.683333"></polygon>
                <polygon id="Fill-22" fill="#030404" points="33.1325758 143.697727 33.1401515 143.712879 33.1325758 143.697727 33.125 143.682576"></polygon>
                <polygon id="Fill-24" fill="#030404" points="33.1181818 143.683333 33.1257576 143.683333 33.1181818 143.668182"></polygon>
            </g>
        </g>
    </g>
</svg>