<?xml version="1.0" encoding="UTF-8" standalone="no"?>
<svg width="250px" height="250px" viewBox="0 0 250 250" version="1.1" xmlns="http://www.w3.org/2000/svg" xmlns:xlink="http://www.w3.org/1999/xlink">
    <!-- Generator: Sketch Beta 3.7.2 (28276) - http://www.bohemiancoding.com/sketch -->
    <title>Artboard 1</title>
    <desc>Created with Sketch Beta.</desc>
    <defs>
        <polygon id="path-1" points="166.494089 43.3830542 166.494089 0.0298522167 0.000197044335 0.0298522167 0.000197044335 43.3830542 166.494089 43.3830542"></polygon>
        <polygon id="path-3" points="0.312610837 84.729064 145.492414 84.729064 145.492414 0.0739901478 0.312610837 0.0739901478"></polygon>
    </defs>
    <g id="Page-1" stroke="none" stroke-width="1" fill="none" fill-rule="evenodd">
        <g id="Artboard-1">
            <g id="Page-1" transform="translate(42.000000, 25.000000)">
                <path d="M40.0150246,17.2928571 C42.6293103,13.4721675 47.0529557,11.2603448 52.0800493,11.2603448 C55.6992611,11.2603448 59.3189655,12.4667488 62.5362069,14.6785714 C67.3623153,18.0972906 72.9923645,31.1672414 76.4105911,42.0258621 C73.5958128,42.2268473 69.9761084,42.4278325 66.1554187,42.4278325 C52.2810345,42.4278325 47.4554187,40.2160099 45.8465517,39.2105911 C38.0041872,33.7815271 35.3899015,23.9283251 40.0150246,17.2928571 M103.958867,14.6785714 C107.176108,12.4667488 110.795813,11.2603448 114.414532,11.2603448 C119.441626,11.2603448 123.865764,13.4721675 126.479557,17.2928571 C131.104187,24.1293103 128.489901,33.7815271 120.849507,39.2105911 C119.441626,40.2160099 114.414532,42.4278325 100.540148,42.4278325 C96.7194581,42.4278325 93.1002463,42.2268473 90.285468,42.0258621 C93.5022167,30.9662562 98.9317734,17.8963054 103.958867,14.6785714 M39.4115764,48.4603448 C44.6401478,52.0795567 53.2864532,53.6884236 66.1554187,53.6884236 L100.540148,53.6884236 C113.208128,53.6884236 122.055911,51.8785714 127.28399,48.4603448 C140.152956,39.6130542 144.174631,22.7219212 135.930296,10.8583744 C131.305172,4.02192118 123.262315,0.000246305419 114.615517,0.000246305419 C108.583498,0.000246305419 102.75197,1.80960591 97.7248768,5.22783251 C91.6928571,9.24950739 86.8667488,18.4992611 83.4485222,27.3470443 C80.029803,18.7002463 75.2046798,9.45098522 69.1716749,5.22783251 C64.1445813,1.80960591 58.3135468,0.000246305419 52.2810345,0.000246305419 C43.6347291,0.000246305419 35.5913793,4.02192118 30.9667488,10.8583744 C22.520936,22.7219212 26.5426108,39.6130542 39.4115764,48.4603448" id="Fill-1" fill="#051039"></path>
                <g id="Group-5" transform="translate(0.000000, 59.770936)">
                    <mask id="mask-2" fill="white">
                        <use xlink:href="#path-1"></use>
                    </mask>
                    <g id="Clip-4"></g>
                    <path d="M166.494286,35.0047291 C166.494286,39.6318227 162.743547,43.3830542 158.115961,43.3830542 L8.37802956,43.3830542 C3.75093596,43.3830542 0.000197044335,39.6318227 0.000197044335,35.0047291 L0.000197044335,8.40817734 C0.000197044335,3.78108374 3.75093596,0.0298522167 8.37802956,0.0298522167 L158.115961,0.0298522167 C162.743547,0.0298522167 166.494286,3.78108374 166.494286,8.40817734 L166.494286,35.0047291 Z" id="Fill-3" fill="#051039" mask="url(#mask-2)"></path>
                </g>
                <g id="Group-8" transform="translate(10.344828, 114.943350)">
                    <mask id="mask-4" fill="white">
                        <use xlink:href="#path-3"></use>
                    </mask>
                    <g id="Clip-7"></g>
                    <path d="M145.492414,76.3508374 C145.492414,80.9784236 141.741675,84.7291626 137.114089,84.7291626 L8.69093596,84.7291626 C4.06384236,84.7291626 0.312610837,80.9784236 0.312610837,76.3508374 L0.312610837,8.45231527 C0.312610837,3.82522167 4.06384236,0.0739901478 8.69093596,0.0739901478 L137.114089,0.0739901478 C141.741675,0.0739901478 145.492414,3.82522167 145.492414,8.45231527 L145.492414,76.3508374 Z" id="Fill-6" fill="#051039" mask="url(#mask-4)"></path>
                </g>
            </g>
        </g>
    </g>
</svg>