<?xml version="1.0" encoding="UTF-8" standalone="no"?>
<svg width="250px" height="250px" viewBox="0 0 250 250" version="1.1" xmlns="http://www.w3.org/2000/svg" xmlns:xlink="http://www.w3.org/1999/xlink">
    <!-- Generator: Sketch Beta 3.7.2 (28276) - http://www.bohemiancoding.com/sketch -->
    <title>Artboard 1</title>
    <desc>Created with Sketch Beta.</desc>
    <defs>
        <polygon id="path-1" points="249.588462 0.153846154 0.00192307692 0.153846154 0.00192307692 153.844231 249.588462 153.844231 249.588462 0.153846154"></polygon>
        <polygon id="path-3" points="221.057692 60.6076923 221.057692 5.55 4.74230769 5.55 4.74230769 60.6076923 221.057692 60.6076923"></polygon>
    </defs>
    <g id="Page-1" stroke="none" stroke-width="1" fill="none" fill-rule="evenodd">
        <g id="Artboard-1">
            <g id="Page-1" transform="translate(0.000000, 43.000000)">
                <g id="Group-3" transform="translate(0.000000, 9.460577)">
                    <mask id="mask-2" fill="white">
                        <use xlink:href="#path-1"></use>
                    </mask>
                    <g id="Clip-2"></g>
                    <path d="M229.078846,114.651923 L229.078846,153.844231 L249.588462,153.844231 L249.588462,95.2288462 L20.3384615,95.2288462 L20.3384615,10.4596154 C20.3384615,4.78653846 15.8384615,0.151923077 10.1557692,0.151923077 C4.54038462,0.151923077 0.00192307692,4.78653846 0.00192307692,10.4596154 L0.00192307692,153.844231 L20.3384615,153.844231 L20.3384615,114.651923 L229.078846,114.651923 Z" id="Fill-1" fill="#051039" mask="url(#mask-2)"></path>
                </g>
                <path d="M70.0586538,42.6163462 C70.0586538,32.3663462 61.8278846,24.0490385 51.6355769,24.0490385 C41.4528846,24.0490385 33.2125,32.3663462 33.2125,42.6163462 C33.2125,52.9336538 41.4432692,61.2413462 51.6355769,61.2413462 C61.8278846,61.2413462 70.0586538,52.9336538 70.0586538,42.6163462" id="Fill-4" fill="#051039"></path>
                <g id="Group-8" transform="translate(28.846154, 28.691346)">
                    <mask id="mask-4" fill="white">
                        <use xlink:href="#path-3"></use>
                    </mask>
                    <g id="Clip-7"></g>
                    <path d="M221.059615,60.6076923 L221.001923,35.0115385 C220.925,26.8865385 214.165385,21.2807692 206.309615,20.3096154 L61.5788462,5.74230769 C61.2903846,5.68461538 61.0403846,5.55 60.7807692,5.55 C55.7711538,5.55 51.7134615,9.675 51.7134615,14.7038462 L51.7134615,42.3 L13.8769231,42.3 C8.8,42.3 4.74230769,46.425 4.74230769,51.4538462 C4.74230769,56.55 8.8,60.6076923 13.8769231,60.6076923 L221.059615,60.6076923 Z" id="Fill-6" fill="#051039" mask="url(#mask-4)"></path>
                </g>
            </g>
        </g>
    </g>
</svg>