<?xml version="1.0" encoding="UTF-8" standalone="no"?>
<svg width="250px" height="250px" viewBox="0 0 250 250" version="1.1" xmlns="http://www.w3.org/2000/svg" xmlns:xlink="http://www.w3.org/1999/xlink">
    <!-- Generator: Sketch Beta 3.7.2 (28276) - http://www.bohemiancoding.com/sketch -->
    <title>Artboard 1</title>
    <desc>Created with Sketch Beta.</desc>
    <defs></defs>
    <g id="Page-1" stroke="none" stroke-width="1" fill="none" fill-rule="evenodd">
        <g id="Artboard-1" fill="#051039">
            <g id="Page-1" transform="translate(50.000000, 25.000000)">
                <polygon id="Fill-1" points="105.876 50.915 -0.004 50.915 -0.004 199.775 105.876 199.775 149.786 199.775 149.786 50.915"></polygon>
                <g id="Group-6" transform="translate(20.000000, 9.775000)">
                    <path d="M38.55,13.418 C50.43,13.418 55.75,26.008 55.75,38.618 L68.66,38.618 C68.66,20.958 57.56,0.818 38.56,0.818 C19.57,0.818 8.47,20.958 8.47,38.618 L21.37,38.618 C21.35,26.008 26.68,13.418 38.55,13.418" id="Fill-2"></path>
                    <path d="M63.945,13.472 C63.945,13.472 65.825,12.702 68.665,12.832 C80.525,13.382 85.855,26.002 85.855,38.622 L98.745,38.622 C98.745,20.962 87.655,0.232 68.665,0.232 C68.665,0.232 60.045,-0.058 55.755,4.142 C55.755,4.142 59.785,7.042 63.945,13.472" id="Fill-4"></path>
                </g>
            </g>
        </g>
    </g>
</svg>