<?xml version="1.0" encoding="UTF-8" standalone="no"?>
<svg width="250px" height="250px" viewBox="0 0 250 250" version="1.1" xmlns="http://www.w3.org/2000/svg" xmlns:xlink="http://www.w3.org/1999/xlink">
    <!-- Generator: Sketch Beta 3.7.2 (28276) - http://www.bohemiancoding.com/sketch -->
    <title>Artboard 1</title>
    <desc>Created with Sketch Beta.</desc>
    <defs>
        <polygon id="path-1" points="158.077959 198.828027 158.077959 0.321314201 0 0.321314201 5.0842025e-20 198.828027 158.077959 198.828027"></polygon>
    </defs>
    <g id="Page-1" stroke="none" stroke-width="1" fill="none" fill-rule="evenodd">
        <g id="Artboard-1">
            <g id="Page-1" transform="translate(45.750000, 24.728408)">
                <g id="Group-3" transform="translate(0.000000, 0.617118)">
                    <mask id="mask-2" fill="white">
                        <use xlink:href="#path-1"></use>
                    </mask>
                    <g id="Clip-2"></g>
                    <path d="M151.052938,117.289625 L150.950711,117.262427 C150.950711,117.262427 150.082243,117.032649 148.815181,116.974501 C148.339681,116.919166 147.945776,116.791616 147.413066,116.791616 L98.5247254,116.791616 C98.5247254,116.791616 97.9666929,116.800057 97.1554355,116.925731 C96.6743083,116.909788 96.1781751,116.913539 95.646403,116.96137 L54.7909178,120.535592 L48.4180923,103.023687 L117.037338,103.023687 C117.037338,103.023687 126.545462,103.023687 126.545462,93.5165006 L126.545462,93.4067698 C126.545462,93.4067698 126.545462,83.8977077 117.037338,83.8977077 L112.232631,83.8977077 L112.978237,83.8029828 L61.2143882,83.8029828 C61.2143882,83.8029828 52.0635923,86.5021722 43.3873586,89.1994858 L40.6778527,81.7537373 L28.5662018,48.4799917 C28.5662018,48.4799917 28.5455686,48.4255953 28.5221219,48.3702609 C28.5221219,48.3702609 32.7594178,37.440326 32.7594178,27.6105124 C32.7594178,17.7806988 28.5221219,0.321314201 14.2608734,0.321314201 C14.2608734,0.321314201 -0.000375147929,0.321314201 -0.000375147929,14.5835006 L-0.000375147929,50.1822254 C-0.000375147929,50.1822254 0.0174443787,52.5756692 0.990015385,55.393968 C1.1635213,56.3027639 1.39798876,57.2406337 1.76282012,58.2413408 L34.8724385,149.209086 C34.8724385,149.209086 35.7090183,151.454347 37.5941367,153.774637 C39.6030538,156.723299 43.0666071,159.284622 49.1055509,159.284622 L79.4418882,159.284622 L79.4418882,183.72082 L62.7665627,183.72082 L40.3964917,183.72082 C40.3964917,183.72082 33.2658675,183.72082 33.2658675,190.852382 L33.2658675,191.699279 C33.2658675,191.699279 33.2658675,198.828027 40.3964917,198.828027 L137.314083,198.828027 C137.314083,198.828027 144.44377,198.828027 144.44377,191.699279 L144.44377,190.852382 C144.44377,190.852382 144.44377,183.72082 137.314083,183.72082 L121.917075,183.72082 L98.268687,183.72082 L98.268687,159.284622 L136.678208,159.284622 C136.678208,159.284622 136.752299,159.281808 136.872347,159.278995 L141.974359,159.278995 C144.836737,159.415924 149.809323,158.675007 151.521873,152.275921 L157.779341,128.931403 C157.779341,128.931403 160.238436,119.749657 151.052938,117.289625" id="Fill-1" fill="#051039" mask="url(#mask-2)"></path>
                </g>
                <path d="M76.2624157,37.1463976 L82.1653683,36.9738296 L82.1653683,57.3462379 C82.1653683,60.1420278 84.4350133,62.4135485 87.232679,62.4135485 L106.379291,62.4135485 C107.720445,62.4135485 109.011892,61.8789627 109.961954,60.9289006 C110.912016,59.9788385 111.44754,58.6873917 111.44754,57.3462379 L111.443788,36.9738296 L117.290469,37.1463976 C119.331274,37.2701964 121.132922,36.092232 122.001389,34.2915219 C122.87267,32.4945633 122.605377,30.3524686 121.320496,28.822803 L101.333552,5.03654852 C100.39193,3.9120426 99.0057589,3.25365799 97.5361169,3.22927337 L97.4545222,3.22927337 C96.0167678,3.22927337 94.6465399,3.84357811 93.6814719,4.91181183 L72.341182,28.699942 C70.9868979,30.2089746 70.6633328,32.3763917 71.5167944,34.2164923 C72.3702559,36.0575308 74.2638151,37.2758237 76.2624157,37.1463976" id="Fill-4" fill="#051039"></path>
            </g>
        </g>
    </g>
</svg>