<?xml version="1.0" encoding="UTF-8" standalone="no"?>
<svg width="66px" height="68px" viewBox="0 0 66 68" version="1.1" xmlns="http://www.w3.org/2000/svg" xmlns:xlink="http://www.w3.org/1999/xlink">
    <!-- Generator: Sketch Beta 3.6 (26304) - http://www.bohemiancoding.com/sketch -->
    <title>icon-partners</title>
    <desc>Created with Sketch Beta.</desc>
    <defs></defs>
    <g id="Page-1" stroke="none" stroke-width="1" fill="none" fill-rule="evenodd">
        <g id="ORC_landing_2" transform="translate(-833.000000, -723.000000)">
            <g id="icon-partners" transform="translate(833.000000, 724.000000)">
                <g id="XMLID_1022_">
                    <path d="M17.4,0 C13.4238,0 10.2,3.2238 10.2,7.2 C10.2,8.6706 10.6428,10.0368 11.4,11.1768 L11.4,10.8 C10.875,7.05 15,5.325 18.6,6 C22.2,6.675 23.4,3.6 23.4,3.6 L23.508,3.4014 C22.2372,1.362 19.9806,0 17.4,0 L17.4,0 Z" id="XMLID_924_" fill="#62B4E8" opacity="0.1"></path>
                    <path d="M49.2,6.6 C45.7998,8.8002 43.8,3.6 43.8,3.6 L43.5624,2.7294 C44.8812,1.0686 46.914,0 49.2,0 C53.1762,0 56.4,3.2238 56.4,7.2 C56.4,7.2 52.6002,4.3998 49.2,6.6 L49.2,6.6 Z" id="XMLID_951_" fill="#62B4E8" opacity="0.1"></path>
                    <ellipse id="XMLID_950_" stroke="#050E39" stroke-width="2" cx="49.2" cy="7.2" rx="7.2" ry="7.2"></ellipse>
                    <path d="M56.4,6.2 C56.4,6.2 52.6002,3.3998 49.2,5.6 C45.7998,7.8002 43.8,2.6 43.8,2.6" id="XMLID_949_" stroke="#050E39" stroke-width="2"></path>
                    <path d="M42,26.4 L42,38.4 C42,39.72 40.92,40.8 39.6,40.8 L39.6,40.8 C38.28,40.8 37.2,39.72 37.2,38.4 L37.2,24 L37.2,23.4 C37.2,20.4174 42.5724,18 49.2,18 C55.8276,18 61.2,20.4174 61.2,23.4 L61.2,24 L61.2,38.4 C61.2,39.72 60.12,40.8 58.8,40.8 L58.8,40.8 C57.48,40.8 56.4,39.72 56.4,38.4 L56.4,26.4" id="XMLID_966_" stroke="#050E39" stroke-width="2"></path>
                    <path d="M0,31 L37.2,31" id="XMLID_1001_" stroke="#050E39" stroke-width="2"></path>
                    <path d="M66,30 L61.2,30" id="XMLID_547_" stroke="#050E39" stroke-width="2"></path>
                    <path d="M42,33.6 L42,62.4 C42,64.38 43.62,66 45.6,66 L45.6,66 C47.58,66 49.2,64.38 49.2,62.4 L49.2,42.6" id="XMLID_662_" stroke="#050E39" stroke-width="2"></path>
                    <path d="M49.2,42.6 L49.2,62.4 C49.2,64.38 50.82,66 52.8,66 L52.8,66 C54.78,66 56.4,64.38 56.4,62.4 L56.4,33.6" id="XMLID_656_" stroke="#050E39" stroke-width="2"></path>
                    <circle id="XMLID_580_" stroke="#050E39" stroke-width="2" cx="17.4" cy="7.2" r="7.2"></circle>
                    <path d="M23.4,3.6 C23.4,3.6 22.2,6.675 18.6,6 C15,5.325 10.875,7.05 11.4,10.8" id="XMLID_581_" stroke="#050E39" stroke-width="2"></path>
                    <path d="M29.4,30.6 L29.4,24 L29.4,23.4 C29.4,20.4174 24.0276,18 17.4,18 C10.7724,18 5.4,20.4174 5.4,23.4 L5.4,24 L5.4,30.6 L29.4,30.6 L29.4,30.6 Z" id="XMLID_548_" stroke="#050E39" stroke-width="2"></path>
                    <path d="M10,26.4 L10,30.6" id="XMLID_759_" stroke="#050E39" stroke-width="2"></path>
                    <path d="M24,26.4 L24,30.6" id="XMLID_453_" stroke="#050E39" stroke-width="2"></path>
                </g>
            </g>
        </g>
    </g>
</svg>