<?xml version="1.0" encoding="UTF-8"?>
<svg width="36px" height="31px" viewBox="0 0 36 31" version="1.1" xmlns="http://www.w3.org/2000/svg" xmlns:xlink="http://www.w3.org/1999/xlink">
    <!-- Generator: Sketch 49 (51002) - http://www.bohemiancoding.com/sketch -->
    <title>Symbols</title>
    <desc>Created with Sketch.</desc>
    <defs></defs>
    <g id="Page-1" stroke="none" stroke-width="1" fill="none" fill-rule="evenodd">
        <g id="Burn_3_Before_June_2018_rules-Copy-4" transform="translate(-113.000000, -310.000000)" fill="#4A90E2" fill-rule="nonzero">
            <g id="Group" transform="translate(113.000000, 307.000000)">
                <g id="Attention" transform="translate(0.000000, 3.000000)">
                    <g id="Symbols">
                        <path d="M20.9188143,1.6572327 C20.2230341,0.536163522 19.1097858,0 18.0429228,0 C16.9296745,0 15.8164262,0.536163522 15.1670313,1.6572327 L0.555647038,25.4433962 C-0.928684064,27.831761 0.741188426,31 3.43153855,31 L32.5615364,31 C35.2982719,31 36.921759,27.831761 35.4374279,25.4433962 L20.9188143,1.6572327 Z M33.5356287,27.9779874 C33.442858,28.172956 33.1645459,28.6116352 32.5615364,28.6116352 L3.43153855,28.6116352 C2.82852904,28.6116352 2.55021696,28.172956 2.45744626,27.9779874 C2.36467557,27.7830189 2.17913418,27.2955975 2.50383161,26.759434 L17.0688305,2.97327044 C17.3471426,2.48584906 17.7646108,2.43710692 17.9965375,2.43710692 C18.2284642,2.43710692 18.6459323,2.48584906 18.9242444,2.97327044 L33.4892434,26.759434 C33.8603261,27.2955975 33.6747848,27.7830189 33.5356287,27.9779874 Z" id="Shape"></path>
                        <path d="M18,23 C17.3684211,23 17.0526316,23.3396226 17.0526316,24.0188679 C17.0526316,24.3584906 17.1315789,24.6226415 17.3289474,24.7735849 C17.4868421,24.9245283 17.7236842,25 18,25 C18.3157895,25 18.5131579,24.9245283 18.7105263,24.7358491 C18.9078947,24.5471698 18.9473684,24.3207547 18.9473684,23.9811321 C18.9473684,23.6415094 18.8684211,23.4150943 18.7105263,23.2264151 C18.5131579,23.1132075 18.3157895,23 18,23 Z" id="Shape" stroke="#468EE5"></path>
                        <polygon id="Shape" stroke="#468EE5" points="18.4852375 20 18.9473684 10 17.0526316 10 17.5147625 20"></polygon>
                    </g>
                </g>
            </g>
        </g>
    </g>
</svg>