<?xml version="1.0" encoding="UTF-8" standalone="no"?>
<svg width="88px" height="88px" viewBox="0 0 88 88" version="1.1" xmlns="http://www.w3.org/2000/svg" xmlns:xlink="http://www.w3.org/1999/xlink">
    <!-- Generator: Sketch 3.6.1 (26313) - http://www.bohemiancoding.com/sketch -->
    <title>earn</title>
    <desc>Created with Sketch.</desc>
    <defs>
        <path id="path-1" d="M26.1439906,27.7419106 L26.1439906,0.114146227 L0.106725915,0.114146227 L0.106725915,27.7419106 L26.1439906,27.7419106 L26.1439906,27.7419106 Z"></path>
    </defs>
    <g id="Page-1" stroke="none" stroke-width="1" fill="none" fill-rule="evenodd">
        <g id="test-incons-ok" transform="translate(-157.000000, -68.000000)">
            <g id="earn" transform="translate(157.000000, 68.000000)">
                <path d="M87.8212244,43.9106122 C87.8212244,68.1621903 68.1613809,87.8216291 43.9098029,87.8216291 C19.6594388,87.8216291 0,68.1621903 0,43.9106122 C0,19.6594388 19.6594388,0 43.9098029,0 C68.1613809,0 87.8212244,19.6594388 87.8212244,43.9106122 L87.8212244,43.9106122 Z" id="Stroke-3" fill-opacity="0.1" fill="#62B4E8"></path>
                <g id="Group" transform="translate(23.000000, 20.000000)">
                    <path id="Fill-1" fill="#000000" d="M0.0115571644,27.561811 C0.00955716439,27.5389483 0.00755716439,27.516225 0.00755716439,27.4940594 L0.00755716439,22.2423292 L5.71643895e-05,22.2423292 L5.71643895e-05,27.5784004 L5.71643895e-05,27.6461521 C5.71643895e-05,27.6843495 0.00255716439,27.723244 0.00755716439,27.7624173 L0.00755716439,27.561811 L0.0115571644,27.561811 Z"></path>
                    <path d="M23.1677695,11.0110821 L23.1659117,11.0110821 L23.1659117,11.0332477 C23.1344713,11.2608989 22.6467161,11.9688063 20.7101295,12.6721132 C18.6782213,13.4095748 15.9476213,13.8159454 13.0202329,13.8159454 C10.0931304,13.8159454 7.36167294,13.4095748 5.33062218,12.6721132 C3.32429503,11.9437131 2.87283926,11.2095973 2.87283926,11.0105244 L2.87283926,9.26529164 C3.29699903,9.48262673 3.77946648,9.69313089 4.32895917,9.89290072 C6.67284205,10.7441182 9.76000489,11.2130824 13.0202329,11.2130824 C16.2807468,11.2130824 19.3677667,10.7441182 21.7116496,9.89290072 C22.2611423,9.69313089 22.7436097,9.48318436 23.167055,9.26570986 L23.1677695,11.0105244 L23.1677695,11.0110821 Z M23.1677695,16.4829355 L23.1659117,16.4829355 L23.1659117,16.5052405 C23.1344713,16.7327523 22.6467161,17.4407991 20.7101295,18.144106 C18.6782213,18.8815676 15.9476213,19.2879382 13.0202329,19.2879382 C10.0931304,19.2879382 7.36167294,18.8815676 5.33062218,18.144106 C3.32429503,17.4157059 2.87283926,16.6815901 2.87283926,16.4825173 L2.87283926,14.7372845 C3.29699903,14.9546195 3.77946648,15.1651237 4.32895917,15.3647541 C6.67284205,16.216111 9.76000489,16.6850752 13.0202329,16.6850752 C16.2807468,16.6850752 19.3677667,16.216111 21.7116496,15.3647541 C22.2611423,15.1651237 22.7436097,14.9551772 23.167055,14.7377027 L23.1677695,16.4825173 L23.1677695,16.4829355 Z M5.33105092,3.94469454 C7.36295914,3.20723296 10.093702,2.80086235 13.0209475,2.80086235 C15.94805,2.80086235 18.6793646,3.20723296 20.7107011,3.94469454 C22.6472877,4.64800147 23.1350429,5.35590883 23.1664833,5.5834206 L23.1664833,5.6290066 C23.1350429,5.85665779 22.6472877,6.56456514 20.7107011,7.26787207 C18.6787929,8.00533365 15.94805,8.41170426 13.0209475,8.41170426 C10.093702,8.41170426 7.36224458,8.00533365 5.33105092,7.26787207 C3.32486667,6.53947193 2.87341091,5.80535611 2.87341091,5.60628331 C2.87341091,5.4070711 3.32429503,4.67295528 5.33105092,3.94469454 L5.33105092,3.94469454 Z M26.0378506,5.69954641 C26.0389939,5.6683193 26.0395655,5.63751041 26.0395655,5.60684093 C26.0395655,4.36807277 25.2888542,2.61879717 21.7122212,1.32022352 C19.3683384,0.468309015 16.2811755,4.18220177e-05 13.0209475,4.18220177e-05 C9.76057654,4.18220177e-05 6.67341369,0.468309015 4.32953081,1.31952648 C0.752897881,2.61810014 0.00218653789,4.36737573 0.00218653789,5.60628331 L0.00218653789,11.0105244 C0.00218653789,11.0326901 0.00275818179,11.0554134 0.00332982568,11.0781367 L0.00218653789,11.0781367 L0.00218653789,16.4825173 C0.00218653789,16.5046829 0.00275818179,16.5274062 0.00332982568,16.5501295 L0.00218653789,16.5501295 L0.00218653789,16.6178812 L0.00218653789,21.9545101 L0.00218653789,22.0221223 C0.00218653789,22.044288 0.00275818179,22.0671507 0.00332982568,22.089874 L0.00218653789,22.089874 L0.00218653789,22.242385 L0.00218653789,27.4941151 C0.00218653789,27.5162808 0.00275818179,27.5390041 0.00332982568,27.5618668 L0.00218653789,27.5618668 L0.00218653789,27.7624731 C0.0490613372,28.9924586 0.861224399,30.6742614 4.32724424,31.9326859 C5.23101323,32.2609887 6.24596697,32.5315772 7.33809263,32.7411055 C9.07831955,33.0749846 11.0153349,33.2524494 13.0186609,33.2524494 C14.7467404,33.2524494 16.4248011,33.1194553 17.9706691,32.8689415 L17.9706691,32.4339925 L17.9718123,32.4339925 C17.9712407,32.4112692 17.9706691,32.3885459 17.9706691,32.3662408 L17.9706691,29.9598019 C17.0697583,30.1252777 16.1055379,30.2447492 15.0994447,30.3136162 C14.4219038,30.3600386 13.7262131,30.3842954 13.0186609,30.3842954 C10.0914154,30.3842954 7.36024383,29.9780642 5.32890725,29.2406026 C3.32286592,28.5122025 2.87126724,27.7780866 2.87126724,27.5788744 L2.87126724,25.833781 L2.87283926,25.8346175 L2.87283926,25.7481853 C3.29699903,25.9656598 3.77946648,26.1761639 4.32895917,26.3759338 C6.67284205,27.2271513 9.76000489,27.6961155 13.0202329,27.6961155 C13.723212,27.6961155 14.4179023,27.6728346 15.0994447,27.6300367 L15.0994447,26.961442 C15.0994447,26.338294 15.2026264,25.5268074 15.5823409,24.6517514 C14.7546005,24.7222912 13.8971347,24.7597916 13.0209475,24.7597916 C10.093702,24.7597916 7.36224458,24.353421 5.33105092,23.6159594 C3.89965461,23.0962511 3.25998509,22.5737547 3.01089126,22.2447549 C2.91071067,22.1125973 2.87341091,22.0115274 2.87341091,21.9545101 L2.87341091,20.2091379 C3.29757067,20.4266123 3.78003812,20.6371165 4.32953081,20.8367469 C6.67341369,21.6881038 9.76057654,22.157068 13.0209475,22.157068 C14.7481695,22.157068 16.4246581,22.0243528 17.9695258,21.7739784 C18.8159875,21.1469269 19.9019679,20.5568182 21.2962074,20.0509112 C22.6904469,19.5444466 24.3029114,19.1592658 26.0384222,18.9059638 L26.0378506,16.643532 C26.0389939,16.6121655 26.0395655,16.581496 26.0395655,16.5506871 L26.0384222,16.5506871 C26.0389939,16.5279638 26.0395655,16.5046829 26.0395655,16.4825173 L26.0378506,11.1715392 C26.0389939,11.1401727 26.0395655,11.1095032 26.0395655,11.0786943 L26.0384222,11.0786943 C26.0389939,11.055971 26.0395655,11.0326901 26.0395655,11.0105244 L26.0378506,5.69954641 Z" id="Fill-3" fill="#696E88"></path>
                    <g id="Group-7" transform="translate(17.863872, 21.241682)">
                        <mask id="mask-2" fill="white">
                            <use xlink:href="#path-1"></use>
                        </mask>
                        <g id="Clip-6"></g>
                        <path d="M23.2715943,11.1244894 L23.2715943,11.1462369 C23.2407256,11.3733305 22.7535421,12.081656 20.8152405,12.78566 C18.7833323,13.5231216 16.0525894,13.9294922 13.1254869,13.9294922 C10.1982414,13.9294922 7.46692687,13.5231216 5.43559029,12.78566 C3.42954896,12.0572598 2.97795028,11.3232834 2.97795028,11.1239318 L2.97795028,10.977973 L2.97795028,9.37883842 C3.40211005,9.59617351 3.8845775,9.80667766 4.43407019,10.0063081 C4.62328432,10.075175 4.81892944,10.140278 5.0175757,10.2039868 C7.27914185,10.92932 10.128215,11.3259322 13.1254869,11.3259322 C16.3857149,11.3259322 19.4728778,10.8571073 21.8167606,10.0063081 C22.3662533,9.80667766 22.8487208,9.59673113 23.272166,9.37925664 L23.2734522,11.1244894 L23.2715943,11.1244894 Z M23.2715943,16.5966217 L23.2715943,16.6180903 C23.2407256,16.8451839 22.7535421,17.5536488 20.8152405,18.2576528 C18.7833323,18.9951144 16.0525894,19.4013456 13.1254869,19.4013456 C10.1982414,19.4013456 7.46692687,18.9951144 5.43559029,18.2576528 C3.42954896,17.5291132 2.97795028,16.7951368 2.97795028,16.5959246 L2.97795028,14.8506918 C3.40211005,15.0681663 3.8845775,15.2786705 4.43407019,15.4783009 C6.77795307,16.3296578 9.864973,16.797925 13.1254869,16.797925 C16.3857149,16.797925 19.4728778,16.3291002 21.8167606,15.4783009 C22.3662533,15.2786705 22.8487208,15.0687239 23.272166,14.8512494 L23.2734522,16.5966217 L23.2715943,16.5966217 Z M20.8152405,23.7295062 C18.7839039,24.4676648 16.0525894,24.873896 13.1254869,24.873896 C10.1982414,24.873896 7.46692687,24.4676648 5.43559029,23.7302032 C3.42954896,23.0016637 2.97795028,22.2676873 2.97795028,22.0684751 L2.97795028,20.3232423 C3.40211005,20.5405773 3.8845775,20.7512209 4.43407019,20.9508513 C6.77795307,21.8022082 9.864973,22.2704754 13.1254869,22.2704754 C16.3857149,22.2704754 19.4728778,21.8016506 21.8167606,20.9508513 C22.3662533,20.7512209 22.8487208,20.541135 23.272166,20.3237999 L23.2728805,22.0690327 C23.2728805,22.2682449 22.8207102,23.0016637 20.8152405,23.7295062 L20.8152405,23.7295062 Z M5.43559029,4.05824132 C6.24675298,3.76381431 7.17052951,3.5231983 8.17247835,3.33904202 C9.68033203,3.06204085 11.3666815,2.91440913 13.1254869,2.91440913 C16.0525894,2.91440913 18.7839039,3.32064033 20.8152405,4.05824132 C22.7535421,4.76210588 23.2407256,5.47057086 23.2715943,5.69752501 L23.2715943,5.74199575 C23.2407256,5.96908931 22.7535421,6.67755429 20.8152405,7.38141885 C18.7833323,8.11888043 16.0525894,8.52511163 13.1254869,8.52511163 C11.1876141,8.52511163 9.33720278,8.3461134 7.71744981,8.01181607 C6.89028109,7.84104283 6.12227752,7.63067808 5.43559029,7.38141885 C5.15619934,7.27993076 4.90796298,7.17844266 4.68587933,7.07820922 C3.31350525,6.45896455 2.97795028,5.89116095 2.97795028,5.71969068 C2.97795028,5.66922544 3.00724703,5.58404793 3.08341858,5.4734984 C3.30750299,5.14826251 3.93874076,4.60164874 5.43559029,4.05824132 L5.43559029,4.05824132 Z M26.14239,5.80793514 C26.1429616,5.77838091 26.1441049,5.74882668 26.1441049,5.71969068 C26.1446765,4.48148014 25.3939652,2.73220454 21.8167606,1.43363089 C19.4728778,0.58241342 16.3857149,0.114146227 13.1254869,0.114146227 C10.4423333,0.114146227 7.8775101,0.432272376 5.74685039,1.01889588 C5.28839199,1.14505897 4.84908366,1.28307162 4.43407019,1.43363089 C0.857437259,2.73220454 0.106725915,4.48148014 0.106725915,5.72038771 L0.106725915,6.15575492 L0.106725915,8.71805054 L0.106725915,11.1244894 C0.106725915,11.1467945 0.107297559,11.1695178 0.107869203,11.1922411 L0.106725915,11.1922411 L0.106725915,11.6271901 L0.106725915,16.5964823 C0.106725915,16.6187873 0.107297559,16.6415106 0.107869203,16.6642339 L0.106725915,16.6642339 L0.106725915,16.7319856 L0.106725915,22.0679174 L0.106725915,22.1356691 C0.106725915,23.3744373 0.857437259,25.1237129 4.43407019,26.4222865 C6.77795307,27.2736434 9.864973,27.7419106 13.1254869,27.7419106 C16.3857149,27.7419106 19.4728778,27.2730858 21.8167606,26.4222865 C25.3932506,25.1237129 26.1441049,23.3744373 26.1441049,22.1349721 L26.1441049,22.0684751 L26.1441049,22.0673598 L26.14239,16.7519208 C26.1429616,16.7222271 26.1441049,16.6926729 26.1441049,16.6636763 L26.1429616,16.6636763 C26.1435333,16.640953 26.1441049,16.6175327 26.1441049,16.595367 L26.14239,11.2799279 C26.1429616,11.2502343 26.1441049,11.2206801 26.1441049,11.1916835 L26.1429616,11.1916835 C26.1435333,11.1689602 26.1441049,11.1456793 26.1441049,11.1233742 L26.14239,5.80793514 Z" id="Fill-5" fill="#696E88" mask="url(#mask-2)"></path>
                    </g>
                </g>
            </g>
        </g>
    </g>
</svg>