<?xml version="1.0" encoding="UTF-8"?>
<svg width="24px" height="25px" viewBox="0 0 24 25" version="1.1" xmlns="http://www.w3.org/2000/svg" xmlns:xlink="http://www.w3.org/1999/xlink">
    <!-- Generator: Sketch 44.1 (41455) - http://www.bohemiancoding.com/sketch -->
    <title>Mobile</title>
    <desc>Created with Sketch.</desc>
    <defs></defs>
    <g id="Page-1" stroke="none" stroke-width="1" fill="none" fill-rule="evenodd">
        <g id="Profile_Two_Addresses_&amp;_USA" transform="translate(-192.000000, -1535.000000)" fill-rule="nonzero" fill="#050E39">
            <g id="Mobile" transform="translate(192.000000, 1535.000000)">
                <path d="M17.2331576,24.2373499 C14.2947137,24.2373499 10.9771944,22.2706348 6.79248243,18.0477809 C4.07969811,15.3108168 2.31852584,12.9473729 1.40750002,10.8220208 C0.109552046,7.79426788 0.43803002,5.22358578 2.38454612,3.1809652 C3.10833408,2.41590399 4.29399346,1.31391005 4.34377925,1.26749306 C4.69633839,0.910901361 5.22044204,0.69765625 5.76646227,0.69765625 C6.31248249,0.69765625 6.83685672,0.910901361 7.20565036,1.28332944 L10.3751652,4.48309828 C10.7588404,4.8697245 10.9701595,5.38549916 10.9701595,5.93458485 C10.9701595,6.48421661 10.7588404,6.99999128 10.3751652,7.38716358 L8.96601091,8.80888867 C8.7868903,8.98936885 8.68840102,9.23073719 8.68840102,9.48821497 C8.6886716,9.74569274 8.78716087,9.98733412 8.96655206,10.1683604 L14.6012751,15.8544416 C14.7679493,16.0223619 15.0136313,16.1190185 15.2752773,16.1190185 C15.5366527,16.1190185 15.7820642,16.0226349 15.9490089,15.8544416 L17.3581632,14.4327165 C17.7269568,14.0605615 18.251331,13.8467703 18.7965395,13.8467703 C19.341748,13.8467703 19.8663928,14.0602884 20.2357276,14.4324435 L23.4049719,17.6319393 C24.1982976,18.4319497 24.1982976,19.7343559 23.4052425,20.5354585 C23.3771027,20.5663121 22.4095267,21.6109675 21.5228526,22.4325482 C20.2914661,23.6271031 18.8449725,24.2373499 17.2331576,24.2373499 Z M5.76646227,1.79009375 C5.50562803,1.79009375 5.26021656,1.88675031 5.09327182,2.05576276 C5.06486146,2.08279383 3.86675563,3.1962555 3.16596654,3.936743 C1.52682357,5.65717507 1.2770829,7.76696377 2.40105119,10.3887046 C3.25660915,12.3854542 4.94337331,14.6380434 7.55793893,17.2761667 C11.526191,21.2805877 14.600734,23.1457316 17.2334281,23.1457316 C18.556269,23.1457316 19.7503162,22.6381481 20.7825596,21.6366333 C21.6475877,20.8347116 22.6175988,19.7878719 22.6273395,19.7772233 C23.0115559,19.3886858 23.0115559,18.778985 22.6403271,18.4043726 L19.4710829,15.2048768 C19.3033264,15.0361374 19.0573738,14.9386617 18.7968101,14.9386617 C18.5362465,14.9386617 18.2911056,15.0355913 18.1236197,15.2048768 L16.7141948,16.6268749 C16.3459423,16.9982108 15.8212975,17.2111829 15.2755479,17.2111829 C14.7289865,17.2111829 14.2046123,16.9982108 13.8363598,16.6266019 L8.20136613,10.9405207 C7.81769087,10.5533484 7.60637185,10.0375737 7.60610127,9.48848801 C7.60610127,8.93885624 7.81714972,8.42335461 8.20082498,8.03645535 L9.60997926,6.61500331 C9.78909987,6.43425009 9.88785972,6.1926087 9.88785972,5.93485789 C9.88785972,5.67765316 9.78937044,5.43628481 9.61024983,5.25580463 L6.44046444,2.05576276 C6.27324913,1.88675031 6.02756708,1.79009375 5.76646227,1.79009375 Z" id="Shape"></path>
            </g>
        </g>
    </g>
</svg>