<?xml version="1.0" encoding="UTF-8" standalone="no"?>
<svg width="26px" height="30px" viewBox="0 0 26 30" version="1.1" xmlns="http://www.w3.org/2000/svg" xmlns:xlink="http://www.w3.org/1999/xlink">
    <!-- Generator: Sketch Beta 3.6 (26265) - http://www.bohemiancoding.com/sketch -->
    <title>Page 1</title>
    <desc>Created with Sketch Beta.</desc>
    <defs></defs>
    <g id="DESIGNS--&gt;-UPDATES" stroke="none" stroke-width="1" fill="none" fill-rule="evenodd">
        <g id="design_support_logged_in" transform="translate(-500.000000, -545.000000)">
            <g id="Page-1" transform="translate(500.000000, 546.000000)">
                <path d="M23.5300229,16.1362725 C23.3158352,15.8930647 23.0906636,15.8133031 22.9053089,15.7610003 C22.7144622,15.7126203 20.1620595,15.3216573 19.9821968,15.3190422 L17.0055378,14.8457024 C16.9464989,14.8483176 16.8119451,14.8103981 16.6993593,14.7293288 C16.5867735,14.6482596 16.5153776,14.5358087 16.5016476,14.4808908 L15.050389,11.6107781 C14.9913501,11.4159504 13.6746453,8.76550918 13.5387185,8.57460419 C13.4151487,8.40069758 13.1391762,8.1143401 12.642151,8.10126441 C12.1519908,8.11303253 11.8732723,8.39939002 11.7497025,8.57460419 C11.6124027,8.76812432 10.4728146,11.0668296 10.4165217,11.2603498 L8.78677346,14.4808908 C8.77304348,14.5358087 8.7002746,14.6482596 8.58768879,14.7293288 C8.47784897,14.8103981 8.34329519,14.8483176 8.28425629,14.8457024 L5.45038902,15.2968135 C5.20599542,15.3007362 2.462746,15.7178506 2.18951945,15.8276863 C2.05496568,15.8839118 1.89707094,15.9728264 1.75839817,16.1362725 C1.6183524,16.2944882 1.51949657,16.5403111 1.52773455,16.7599826 C1.53322654,17.1117185 1.69112128,17.3261597 1.81743707,17.4752225 C1.95336384,17.6282081 4.14741419,19.2979729 4.30530892,19.3999633 L6.39638444,20.9965043 C6.48837529,21.0318087 6.64627002,21.2985527 6.63254005,21.476382 C6.63254005,21.5195317 6.62704805,21.5561436 6.62018307,21.5809874 L6.12315789,24.418411 C6.06961098,24.5949327 5.45588101,26.7314995 5.45588101,26.9407105 C5.458627,27.1146171 5.48059497,27.342134 5.66457666,27.5984174 C5.84443936,27.8612386 6.24398169,28.0246847 6.51446224,28.0089939 C7.02933638,27.9828425 7.24489703,27.7893224 7.49615561,27.6049552 L12.4224714,24.9192097 C12.4622883,24.8839053 12.5652632,24.8420631 12.680595,24.8420631 C12.7931808,24.8420631 12.8892906,24.8799826 12.9291076,24.9139794 L18.1217849,27.6311066 C18.3757895,27.8102435 18.5872311,27.9933031 19.0897483,28.0194544 L19.1268192,28.0194544 C19.3863158,28.0194544 19.7487872,27.8716992 19.9259039,27.6206461 C20.1167506,27.3682853 20.1400915,27.1368457 20.1400915,26.9642467 C20.1400915,26.7406525 19.5318535,23.9176122 19.4645767,23.7267072 L18.7190389,21.5299923 C18.7080549,21.5038409 18.7025629,21.467229 18.7025629,21.4214641 C18.6902059,21.2540953 18.8316247,21.018733 18.9153776,20.9847362 L21.5748741,18.9501597 C21.7327689,18.8507845 23.3364302,17.6282081 23.470984,17.4752225 C23.6000458,17.3261597 23.7551945,17.1117185 23.7606865,16.7599826 C23.7689245,16.5403111 23.6700686,16.2944882 23.5300229,16.1362725 L23.5300229,16.1362725 Z" id="Stroke-1" stroke="#050E39" stroke-width="1.5"></path>
                <g id="Group-6" transform="translate(22.826087, 5.370370)">
                    <path d="M2.00183066,0.64506087 L0.508009153,2.00100934" id="Fill-3" fill="#050E39"></path>
                    <path d="M2.00183066,0.64506087 L0.508009153,2.00100934" id="Stroke-5" stroke="#050E39" stroke-width="1.5" stroke-linecap="round"></path>
                </g>
                <g id="Group-10" transform="translate(0.000000, 5.370370)">
                    <path d="M1.02974828,0.64506087 L2.52356979,2.00100934" id="Fill-7" fill="#050E39"></path>
                    <path d="M1.02974828,0.64506087 L2.52356979,2.00100934" id="Stroke-9" stroke="#050E39" stroke-width="1.5" stroke-linecap="round"></path>
                </g>
                <g id="Group-14" transform="translate(11.956522, 0.000000)">
                    <path d="M1.00389016,0.181191626 L1.00389016,2.14777456" id="Fill-11" fill="#050E39"></path>
                    <path d="M1.00389016,0.181191626 L1.00389016,2.14777456" id="Stroke-13" stroke="#050E39" stroke-width="1.5" stroke-linecap="round"></path>
                </g>
            </g>
        </g>
    </g>
</svg>