<?xml version="1.0" encoding="UTF-8"?>
<svg width="26px" height="25px" viewBox="0 0 26 25" version="1.1" xmlns="http://www.w3.org/2000/svg" xmlns:xlink="http://www.w3.org/1999/xlink">
    <!-- Generator: Sketch Beta 40.1 (33801) - http://www.bohemiancoding.com/sketch -->
    <title>Group 3</title>
    <desc>Created with Sketch Beta.</desc>
    <defs></defs>
    <g id="Page-1" stroke="none" stroke-width="1" fill="none" fill-rule="evenodd">
        <g id="design_home_dashboard_ultimate_without_progress_level" transform="translate(-556.000000, -681.000000)" fill="#BE8633">
            <g id="Group-3" transform="translate(556.000000, 681.000000)">
                <path d="M23.3755312,2.34375 L19.921875,2.34375 L19.921875,0.78125 C19.921875,0.34921875 19.5656719,1.77635684e-15 19.125,1.77635684e-15 C18.6843281,1.77635684e-15 18.328125,0.34921875 18.328125,0.78125 L18.328125,2.34375 L13.546875,2.34375 L13.546875,0.78125 C13.546875,0.34921875 13.189875,1.77635684e-15 12.75,1.77635684e-15 C12.310125,1.77635684e-15 11.953125,0.34921875 11.953125,0.78125 L11.953125,2.34375 L7.171875,2.34375 L7.171875,0.78125 C7.171875,0.34921875 6.814875,1.77635684e-15 6.375,1.77635684e-15 C5.935125,1.77635684e-15 5.578125,0.34921875 5.578125,0.78125 L5.578125,2.34375 L2.12526562,2.34375 C0.95146875,2.34375 0,3.27578125 0,4.4265625 L0,22.9164063 C0,24.0671875 0.95146875,25 2.12526562,25 L23.3755313,25 C24.5493281,25 25.5,24.0671875 25.5,22.9164063 L25.5,4.4265625 C25.5,3.27578125 24.5493281,2.34375 23.3755312,2.34375 L23.3755312,2.34375 Z M23.90625,22.9164063 C23.90625,23.2039063 23.6679844,23.4375 23.3755312,23.4375 L2.12526562,23.4375 C1.83201562,23.4375 1.59375,23.2039063 1.59375,22.9164063 L1.59375,4.4265625 C1.59375,4.13984375 1.83201562,3.90625 2.12526562,3.90625 L5.578125,3.90625 L5.578125,5.46875 C5.578125,5.90078125 5.935125,6.25 6.375,6.25 C6.814875,6.25 7.171875,5.90078125 7.171875,5.46875 L7.171875,3.90625 L11.953125,3.90625 L11.953125,5.46875 C11.953125,5.90078125 12.310125,6.25 12.75,6.25 C13.189875,6.25 13.546875,5.90078125 13.546875,5.46875 L13.546875,3.90625 L18.328125,3.90625 L18.328125,5.46875 C18.328125,5.90078125 18.6843281,6.25 19.125,6.25 C19.5656719,6.25 19.921875,5.90078125 19.921875,5.46875 L19.921875,3.90625 L23.3755312,3.90625 C23.6679844,3.90625 23.90625,4.13984375 23.90625,4.4265625 L23.90625,22.9164063 L23.90625,22.9164063 Z" id="Shape"></path>
                <text id="To-be-reached-before" font-family="HelveticaNeue-Bold, Helvetica Neue" font-size="12" font-weight="bold">
                    <tspan x="6.79545455" y="17.6818182">31</tspan>
                </text>
            </g>
        </g>
    </g>
</svg>