<?xml version="1.0" encoding="UTF-8" standalone="no"?>
<svg width="23px" height="21px" viewBox="0 0 23 21" version="1.1" xmlns="http://www.w3.org/2000/svg" xmlns:xlink="http://www.w3.org/1999/xlink">
    <!-- Generator: Sketch Beta 3.8.3 (29801) - http://www.bohemiancoding.com/sketch -->
    <title>Page 1</title>
    <desc>Created with Sketch Beta.</desc>
    <defs>
        <polyline id="path-1" points="0 0.0979655172 22.923574 0.0979655172 22.923574 21 0 21"></polyline>
    </defs>
    <g id="Page-1" stroke="none" stroke-width="1" fill="none" fill-rule="evenodd">
        <g id="design_desktop_home_dashboard" transform="translate(-164.000000, -574.000000)">
            <g id="Page-1" transform="translate(164.000000, 574.000000)">
                <mask id="mask-2" fill="white">
                    <use xlink:href="#path-1"></use>
                </mask>
                <g id="Clip-2"></g>
                <path d="M14.9794668,8.45876897 C12.4849466,5.40921724 8.03635471,0.0979758621 7.29385695,0.0979758621 C7.29385695,0.0979758621 6.2518435,0.0979758621 6.2518435,1.14301034 C6.2518435,1.85163103 8.16208117,5.90928621 9.39510807,8.45876897 L4.80212152,8.45876897 C3.49473139,6.63394138 1.68103184,4.27832069 1.04198251,4.27832069 C1.04198251,4.27832069 -3.09417046e-05,4.27832069 -3.09417046e-05,5.32335517 C-3.09417046e-05,6.3684931 2.08389283,10.5489414 2.08389283,10.5489414 C2.08389283,10.5489414 -3.09417046e-05,14.7294931 -3.09417046e-05,15.7744241 C-3.09417046e-05,15.7744241 -3.09417046e-05,16.8196655 1.04198251,16.8196655 C1.68103184,16.8196655 3.49400942,14.461769 4.80212152,12.6391138 L9.39510807,12.6391138 C8.16208117,15.1884931 6.2518435,19.2464586 6.2518435,19.9549759 C6.2518435,19.9549759 6.2518435,21.0000103 7.29385695,21.0000103 C8.03635471,21.0000103 12.4856686,15.688769 14.9794668,12.6391138 L20.8395161,12.6391138 C21.9898256,12.6391138 22.923543,11.7042517 22.923543,10.5489414 C22.923543,9.39373448 21.9898256,8.45876897 20.8395161,8.45876897 L14.9794668,8.45876897 Z" id="Fill-1" fill="#62B4E8" mask="url(#mask-2)"></path>
            </g>
        </g>
    </g>
</svg>