<?xml version="1.0" encoding="UTF-8" standalone="no"?>
<svg width="38px" height="38px" viewBox="0 0 38 38" version="1.1" xmlns="http://www.w3.org/2000/svg" xmlns:xlink="http://www.w3.org/1999/xlink">
    <!-- Generator: Sketch Beta 3.6 (26265) - http://www.bohemiancoding.com/sketch -->
    <title>Group 2</title>
    <desc>Created with Sketch Beta.</desc>
    <defs></defs>
    <g id="DESIGNS--&gt;-UPDATES" stroke="none" stroke-width="1" fill="none" fill-rule="evenodd">
        <g id="design_support_logged_in" transform="translate(-167.000000, -1094.000000)" fill="#050E39">
            <g id="Group-2" transform="translate(167.000000, 1094.000000)">
                <path d="M32.0625,38 L5.9375,38 C5.282,38 4.75,37.468 4.75,36.8125 C4.75,36.157 5.282,35.625 5.9375,35.625 L32.0625,35.625 C34.026625,35.625 35.625,34.026625 35.625,32.0625 C35.625,31.407 36.157,30.875 36.8125,30.875 C37.468,30.875 38,31.407 38,32.0625 C38,35.3364375 35.3364375,38 32.0625,38" id="Fill-1"></path>
                <path d="M38,32.0625 L35.625,32.0625 L35.625,3.5625 C35.625,2.9081875 35.0918125,2.375 34.4375,2.375 L13.0625,2.375 C12.4081875,2.375 11.875,2.9081875 11.875,3.5625 L11.875,32.0625 L9.5,32.0625 L9.5,3.5625 C9.5,1.598375 11.098375,0 13.0625,0 L34.4375,0 C36.401625,0 38,1.598375 38,3.5625 L38,32.0625 Z" id="Fill-3"></path>
                <path d="M5.9375,38 C2.6635625,38 0,35.3364375 0,32.0625 C0,31.407 0.532,30.875 1.1875,30.875 C1.843,30.875 2.375,31.407 2.375,32.0625 C2.375,34.026625 3.973375,35.625 5.9375,35.625 C7.901625,35.625 9.5,34.026625 9.5,32.0625 C9.5,31.407 10.032,30.875 10.6875,30.875 C11.343,30.875 11.875,31.407 11.875,32.0625 C11.875,35.3364375 9.2114375,38 5.9375,38" id="Fill-5"></path>
                <path d="M2.375,32.0625 L0,32.0625 L0,15.4375 C0,13.473375 1.598375,11.875 3.5625,11.875 L11.28125,11.875 L11.28125,14.25 L3.5625,14.25 C2.9081875,14.25 2.375,14.7831875 2.375,15.4375 L2.375,32.0625 Z" id="Fill-7"></path>
                <path d="M32.0625,17.8125 L15.4375,17.8125 C14.782,17.8125 14.25,17.2805 14.25,16.625 C14.25,15.9695 14.782,15.4375 15.4375,15.4375 L32.0625,15.4375 C32.718,15.4375 33.25,15.9695 33.25,16.625 C33.25,17.2805 32.718,17.8125 32.0625,17.8125" id="Fill-9"></path>
                <path d="M23.75,13.0625 L15.4375,13.0625 C14.782,13.0625 14.25,12.5305 14.25,11.875 C14.25,11.2195 14.782,10.6875 15.4375,10.6875 L23.75,10.6875 C24.4055,10.6875 24.9375,11.2195 24.9375,11.875 C24.9375,12.5305 24.4055,13.0625 23.75,13.0625" id="Fill-11"></path>
                <path d="M32.0625,22.5625 L15.4375,22.5625 C14.782,22.5625 14.25,22.0305 14.25,21.375 C14.25,20.7195 14.782,20.1875 15.4375,20.1875 L32.0625,20.1875 C32.718,20.1875 33.25,20.7195 33.25,21.375 C33.25,22.0305 32.718,22.5625 32.0625,22.5625" id="Fill-13"></path>
                <path d="M32.0625,27.3125 L15.4375,27.3125 C14.782,27.3125 14.25,26.7805 14.25,26.125 C14.25,25.4695 14.782,24.9375 15.4375,24.9375 L32.0625,24.9375 C32.718,24.9375 33.25,25.4695 33.25,26.125 C33.25,26.7805 32.718,27.3125 32.0625,27.3125" id="Fill-15"></path>
            </g>
        </g>
    </g>
</svg>