<?xml version="1.0" encoding="UTF-8"?>
<svg width="30px" height="33px" viewBox="0 0 30 33" version="1.1" xmlns="http://www.w3.org/2000/svg" xmlns:xlink="http://www.w3.org/1999/xlink">
    <!-- Generator: Sketch 44.1 (41455) - http://www.bohemiancoding.com/sketch -->
    <title>Business</title>
    <desc>Created with Sketch.</desc>
    <defs></defs>
    <g id="Page-1" stroke="none" stroke-width="1" fill="none" fill-rule="evenodd">
        <g id="Profile_1_Two_Addresses" transform="translate(-194.000000, -1297.000000)" fill-rule="nonzero" fill="#050E39">
            <g id="Business" transform="translate(194.000000, 1297.000000)">
                <g id="build" transform="translate(0.000000, 0.223259)">
                    <path d="M29.6052632,0.126768428 C29.8119474,0.12678593 29.9999605,0.293531778 30,0.476802745 L30,31.9799053 C29.9999605,32.1631833 29.8119474,32.3299046 29.6052632,32.3299396 C19.8684079,32.3299396 10.1315921,32.3299396 0.394736842,32.3299396 C0.188052632,32.3299046 3.94736842e-05,32.1631833 0,31.9799053 L0,9.57769499 C3.94736842e-05,9.39442402 0.188052632,9.22767817 0.394736842,9.22766067 L7.89473684,9.22766067 L7.89473684,0.476802745 C7.89477632,0.293531778 8.08278947,0.12678593 8.28947368,0.126768428 L29.6052632,0.126768428 Z M29.2105263,0.826837062 L8.68421053,0.826837062 C8.68421053,11.0956118 8.68421053,21.3595841 8.68421053,31.629871 L16.5789474,31.629871 L16.5789474,24.9792189 C16.5789868,24.795941 16.767,24.6291846 16.9736842,24.6291846 L20.9210526,24.6291846 C21.1277368,24.6291846 21.31575,24.795941 21.3157895,24.9792189 L21.3157895,31.629871 L29.2105263,31.629871 L29.2105263,0.826837062 Z M27.2368421,2.22697433 C27.4435263,2.22699183 27.6315395,2.39373768 27.6315789,2.57700865 L27.6315789,6.07735182 C27.6315395,6.26062279 27.4435263,6.42736863 27.2368421,6.42738614 L23.2894737,6.42738614 C23.0827895,6.42736863 22.8947763,6.26062279 22.8947368,6.07735182 L22.8947368,2.57700865 C22.8947763,2.39373768 23.0827895,2.22699183 23.2894737,2.22697433 L27.2368421,2.22697433 Z M20.9210526,2.22697433 C21.1277368,2.22699183 21.31575,2.39373768 21.3157895,2.57700865 L21.3157895,6.07735182 C21.31575,6.26062279 21.1277368,6.42736863 20.9210526,6.42738614 L16.9736842,6.42738614 C16.767,6.42736863 16.5789868,6.26062279 16.5789474,6.07735182 L16.5789474,2.57700865 C16.5789868,2.39373768 16.767,2.22699183 16.9736842,2.22697433 L20.9210526,2.22697433 Z M14.6052632,2.22697433 C14.8119474,2.22699183 14.9999605,2.39373768 15,2.57700865 L15,6.07735182 C14.9999605,6.26062279 14.8119474,6.42736863 14.6052632,6.42738614 L10.6578947,6.42738614 C10.4512105,6.42736863 10.2631974,6.26062279 10.2631579,6.07735182 L10.2631579,2.57700865 C10.2631974,2.39373768 10.4512105,2.22699183 10.6578947,2.22697433 L14.6052632,2.22697433 Z M26.8421053,2.92704296 L23.6842105,2.92704296 L23.6842105,5.7273175 L26.8421053,5.7273175 L26.8421053,2.92704296 Z M20.5263158,2.92704296 L17.3684211,2.92704296 L17.3684211,5.7273175 L20.5263158,5.7273175 L20.5263158,2.92704296 Z M14.2105263,2.92704296 L11.0526316,2.92704296 L11.0526316,5.7273175 L14.2105263,5.7273175 L14.2105263,2.92704296 Z M27.2368421,7.8275234 C27.4435263,7.82754091 27.6315395,7.99428675 27.6315789,8.17755772 L27.6315789,11.6779009 C27.6315395,11.8611719 27.4435263,12.0279177 27.2368421,12.0279352 L23.2894737,12.0279352 C23.0827895,12.0279177 22.8947763,11.8611719 22.8947368,11.6779009 L22.8947368,8.17755772 C22.8947763,7.99428675 23.0827895,7.82754091 23.2894737,7.8275234 L27.2368421,7.8275234 Z M20.9210526,7.8275234 C21.1277368,7.82754091 21.31575,7.99428675 21.3157895,8.17755772 L21.3157895,11.6779009 C21.31575,11.8611719 21.1277368,12.0279177 20.9210526,12.0279352 L16.9736842,12.0279352 C16.767,12.0279177 16.5789868,11.8611719 16.5789474,11.6779009 L16.5789474,8.17755772 C16.5789868,7.99428675 16.767,7.82754091 16.9736842,7.8275234 L20.9210526,7.8275234 Z M14.6052632,7.8275234 C14.8119474,7.82754091 14.9999605,7.99428675 15,8.17755772 L15,11.6779009 C14.9999605,11.8611719 14.8119474,12.0279177 14.6052632,12.0279352 L10.6578947,12.0279352 C10.4512105,12.0279177 10.2631974,11.8611719 10.2631579,11.6779009 L10.2631579,8.17755772 C10.2631974,7.99428675 10.4512105,7.82754091 10.6578947,7.8275234 L14.6052632,7.8275234 Z M26.8421053,8.52759204 L23.6842105,8.52759204 L23.6842105,11.3278666 L26.8421053,11.3278666 L26.8421053,8.52759204 Z M20.5263158,8.52759204 L17.3684211,8.52759204 L17.3684211,11.3278666 L20.5263158,11.3278666 L20.5263158,8.52759204 Z M14.2105263,8.52759204 L11.0526316,8.52759204 L11.0526316,11.3278666 L14.2105263,11.3278666 L14.2105263,8.52759204 Z M7.89473684,9.92772931 L0.789473684,9.92772931 L0.789473684,31.629871 L7.89473684,31.629871 L7.89473684,9.92772931 Z M5.92105263,11.3278666 C6.12773684,11.3278841 6.31575,11.4946299 6.31578947,11.6779009 L6.31578947,14.4781754 C6.31575,14.6614464 6.12773684,14.8281887 5.92105263,14.8282237 L2.76315789,14.8282237 C2.55647368,14.8281887 2.36846053,14.6614464 2.36842105,14.4781754 L2.36842105,11.6779009 C2.36846053,11.4946299 2.55647368,11.3278841 2.76315789,11.3278666 L5.92105263,11.3278666 Z M5.52631579,12.0279352 L3.15789474,12.0279352 L3.15789474,14.1281411 L5.52631579,14.1281411 L5.52631579,12.0279352 Z M27.2368421,13.4280725 C27.4435263,13.42809 27.6315395,13.5948358 27.6315789,13.7781068 L27.6315789,17.278464 C27.6315395,17.4617419 27.4435263,17.6284633 27.2368421,17.6284983 L23.2894737,17.6284983 C23.0827895,17.6284633 22.8947763,17.4617419 22.8947368,17.278464 L22.8947368,13.7781068 C22.8947763,13.5948358 23.0827895,13.42809 23.2894737,13.4280725 L27.2368421,13.4280725 Z M20.9210526,13.4280725 C21.1277368,13.42809 21.31575,13.5948358 21.3157895,13.7781068 L21.3157895,17.278464 C21.31575,17.4617419 21.1277368,17.6284633 20.9210526,17.6284983 L16.9736842,17.6284983 C16.767,17.6284633 16.5789868,17.4617419 16.5789474,17.278464 L16.5789474,13.7781068 C16.5789868,13.5948358 16.767,13.42809 16.9736842,13.4280725 L20.9210526,13.4280725 Z M14.6052632,13.4280725 C14.8119474,13.42809 14.9999605,13.5948358 15,13.7781068 L15,17.278464 C14.9999605,17.4617419 14.8119474,17.6284633 14.6052632,17.6284983 L10.6578947,17.6284983 C10.4512105,17.6284633 10.2631974,17.4617419 10.2631579,17.278464 L10.2631579,13.7781068 C10.2631974,13.5948358 10.4512105,13.42809 10.6578947,13.4280725 L14.6052632,13.4280725 Z M26.8421053,14.1281411 L23.6842105,14.1281411 L23.6842105,16.9284296 L26.8421053,16.9284296 L26.8421053,14.1281411 Z M20.5263158,14.1281411 L17.3684211,14.1281411 L17.3684211,16.9284296 L20.5263158,16.9284296 L20.5263158,14.1281411 Z M14.2105263,14.1281411 L11.0526316,14.1281411 L11.0526316,16.9284296 L14.2105263,16.9284296 L14.2105263,14.1281411 Z M5.92105263,16.228361 C6.12773684,16.228361 6.31575,16.3951174 6.31578947,16.5783953 L6.31578947,19.3786699 C6.31575,19.5619478 6.12773684,19.7286692 5.92105263,19.7287042 L2.76315789,19.7287042 C2.55647368,19.7286692 2.36846053,19.5619478 2.36842105,19.3786699 L2.36842105,16.5783953 C2.36846053,16.3951174 2.55647368,16.228361 2.76315789,16.228361 L5.92105263,16.228361 Z M5.52631579,16.9284296 L3.15789474,16.9284296 L3.15789474,19.0286356 L5.52631579,19.0286356 L5.52631579,16.9284296 Z M27.2368421,19.0286356 C27.4435263,19.0286356 27.6315395,19.1953919 27.6315789,19.3786699 L27.6315789,22.879013 C27.6315395,23.062291 27.4435263,23.2290124 27.2368421,23.2290474 L23.2894737,23.2290474 C23.0827895,23.2290124 22.8947763,23.062291 22.8947368,22.879013 L22.8947368,19.3786699 C22.8947763,19.1953919 23.0827895,19.0286356 23.2894737,19.0286356 L27.2368421,19.0286356 Z M20.9210526,19.0286356 C21.1277368,19.0286356 21.31575,19.1953919 21.3157895,19.3786699 L21.3157895,22.879013 C21.31575,23.062291 21.1277368,23.2290124 20.9210526,23.2290474 L16.9736842,23.2290474 C16.767,23.2290124 16.5789868,23.062291 16.5789474,22.879013 L16.5789474,19.3786699 C16.5789868,19.1953919 16.767,19.0286356 16.9736842,19.0286356 L20.9210526,19.0286356 Z M14.6052632,19.0286356 C14.8119474,19.0286356 14.9999605,19.1953919 15,19.3786699 L15,22.879013 C14.9999605,23.062291 14.8119474,23.2290124 14.6052632,23.2290474 L10.6578947,23.2290474 C10.4512105,23.2290124 10.2631974,23.062291 10.2631579,22.879013 L10.2631579,19.3786699 C10.2631974,19.1953919 10.4512105,19.0286356 10.6578947,19.0286356 L14.6052632,19.0286356 Z M26.8421053,19.7287042 L23.6842105,19.7287042 L23.6842105,22.5289787 L26.8421053,22.5289787 L26.8421053,19.7287042 Z M20.5263158,19.7287042 L17.3684211,19.7287042 L17.3684211,22.5289787 L20.5263158,22.5289787 L20.5263158,19.7287042 Z M14.2105263,19.7287042 L11.0526316,19.7287042 L11.0526316,22.5289787 L14.2105263,22.5289787 L14.2105263,19.7287042 Z M5.92105263,21.1288415 C6.12773684,21.1288415 6.31575,21.2955978 6.31578947,21.4788758 L6.31578947,24.2791503 C6.31575,24.4624283 6.12773684,24.6291496 5.92105263,24.6291846 L2.76315789,24.6291846 C2.55647368,24.6291496 2.36846053,24.4624283 2.36842105,24.2791503 L2.36842105,21.4788758 C2.36846053,21.2955978 2.55647368,21.1288415 2.76315789,21.1288415 L5.92105263,21.1288415 Z M5.52631579,21.8289101 L3.15789474,21.8289101 L3.15789474,23.929116 L5.52631579,23.929116 L5.52631579,21.8289101 Z M20.5263158,25.3292533 L17.3684211,25.3292533 L17.3684211,31.629871 L20.5263158,31.629871 L20.5263158,25.3292533 Z M5.92105263,26.0293219 C6.12773684,26.0293219 6.31575,26.1960782 6.31578947,26.3793562 L6.31578947,29.1796307 C6.31575,29.3629087 6.12773684,29.5296301 5.92105263,29.5296651 L2.76315789,29.5296651 C2.55647368,29.5296301 2.36846053,29.3629087 2.36842105,29.1796307 L2.36842105,26.3793562 C2.36846053,26.1960782 2.55647368,26.0293219 2.76315789,26.0293219 L5.92105263,26.0293219 Z M5.52631579,26.7293905 L3.15789474,26.7293905 L3.15789474,28.8295964 L5.52631579,28.8295964 L5.52631579,26.7293905 Z" id="Shape"></path>
                </g>
            </g>
        </g>
    </g>
</svg>