<?xml version="1.0" encoding="utf-8"?>
<!-- Generator: Adobe Illustrator 16.2.1, SVG Export Plug-In . SVG Version: 6.00 Build 0)  -->
<!DOCTYPE svg PUBLIC "-//W3C//DTD SVG 1.1//EN" "http://www.w3.org/Graphics/SVG/1.1/DTD/svg11.dtd">
<svg version="1.1" id="Calque_1" xmlns="http://www.w3.org/2000/svg" xmlns:xlink="http://www.w3.org/1999/xlink" x="0px" y="0px"
	 width="26px" height="16px" viewBox="0 0 26 16" enable-background="new 0 0 26 16" xml:space="preserve">
<title>Hotel</title>
<desc>Created with Sketch.</desc>
<g id="UI-STYLE-GUIDE">
	<g id="ICONS" transform="translate(-72.000000, -222.000000)">
		<g id="Hotel" transform="translate(72.000000, 222.000000)">
			<g id="Group-3">
				<g id="Clip-2">
				</g>
				<defs>
					<filter id="Adobe_OpacityMaskFilter" filterUnits="userSpaceOnUse" x="0" y="0.016" width="25.957" height="15.984">
						<feColorMatrix  type="matrix" values="1 0 0 0 0  0 1 0 0 0  0 0 1 0 0  0 0 0 1 0"/>
					</filter>
				</defs>
				<mask maskUnits="userSpaceOnUse" x="0" y="0.016" width="25.957" height="15.984" id="mask-2">
					<g filter="url(#Adobe_OpacityMaskFilter)">
						<polygon id="path-1" fill="#FFFFFF" points="0,0.016 25.99,0.016 25.99,16 0,16 						"/>
					</g>
				</mask>
				<path id="Fill-1" mask="url(#mask-2)" fill="#051039" d="M23.824,11.924V16h2.133V9.905H2.115V1.088
					c0-0.59-0.468-1.072-1.059-1.072C0.472,0.016,0,0.498,0,1.088V16h2.115v-4.076H23.824z"/>
			</g>
			<path id="Fill-4" fill="#051039" d="M7.286,3.448c0-1.066-0.856-1.931-1.916-1.931c-1.059,0-1.916,0.865-1.916,1.931
				c0,1.073,0.856,1.938,1.916,1.938S7.286,4.521,7.286,3.448z"/>
			<path id="Fill-6" fill="#051039" d="M25.99,8.303l-0.006-2.662c-0.008-0.845-0.711-1.428-1.528-1.529L9.404,2.597
				c-0.03-0.006-0.056-0.02-0.083-0.02c-0.521,0-0.943,0.429-0.943,0.952v2.87H4.443c-0.528,0-0.95,0.429-0.95,0.952
				c0,0.53,0.422,0.952,0.95,0.952H25.99z"/>
		</g>
	</g>
</g>
</svg>
