<?xml version="1.0" encoding="UTF-8" standalone="no"?>
<svg width="34px" height="35px" viewBox="0 0 34 35" version="1.1" xmlns="http://www.w3.org/2000/svg" xmlns:xlink="http://www.w3.org/1999/xlink">
    <!-- Generator: Sketch Beta 39 (31443) - http://www.bohemiancoding.com/sketch -->
    <title>Page 1</title>
    <desc>Created with Sketch Beta.</desc>
    <defs></defs>
    <g id="Page-1" stroke="none" stroke-width="1" fill="none" fill-rule="evenodd">
        <g>
            <path d="M27.0538,22.7854242 C27.0538,23.8216364 26.188925,24.6605758 25.122175,24.6605758 L1.93205,24.6605758 C0.8653,24.6605758 0.000425,23.8216364 0.000425,22.7854242 L0.000425,9.92557576 C0.000425,8.89042424 0.8653,8.05042424 1.93205,8.05042424 L25.122175,8.05042424 C26.188925,8.05042424 27.0538,8.89042424 27.0538,9.92557576 L27.0538,22.7854242 Z" id="Fill-1" fill="#050E39"></path>
            <path d="M25.5358062,22.7932727 C25.5358062,22.9385758 25.4125562,23.0573636 25.2584937,23.0573636 L1.79318125,23.0573636 C1.64124375,23.0573636 1.51799375,22.9385758 1.51799375,22.7932727 L1.51799375,9.87084848 C1.51799375,9.72554545 1.64124375,9.60781818 1.79318125,9.60781818 L25.2584937,9.60781818 C25.4125562,9.60781818 25.5358062,9.72554545 25.5358062,9.87084848 L25.5358062,22.7932727 Z" id="Fill-3" fill="#FEFEFE"></path>
            <path d="M3.5719125,14.3404545 C3.5719125,13.9968182 3.844975,13.7242424 4.1902875,13.7242424 L4.3262875,13.7242424 C4.59085,13.7242424 4.775725,13.86 4.88835,14.0445455 L6.3811625,16.4680303 L7.8814125,14.0360606 C8.009975,13.8292424 8.18635,13.7242424 8.434975,13.7242424 L8.570975,13.7242424 C8.9162875,13.7242424 9.18935,13.9968182 9.18935,14.3404545 L9.18935,18.7865152 C9.18935,19.1312121 8.9162875,19.4027273 8.570975,19.4027273 C8.2341625,19.4027273 7.9611,19.1227273 7.9611,18.7865152 L7.9611,15.9960606 L6.8784125,17.6590909 C6.74985,17.8521212 6.5894125,17.9709091 6.3641625,17.9709091 C6.139975,17.9709091 5.9795375,17.8521212 5.850975,17.6590909 L4.784225,16.0193939 L4.784225,18.8034848 C4.784225,19.139697 4.5111625,19.4027273 4.1732875,19.4027273 C3.836475,19.4027273 3.5719125,19.139697 3.5719125,18.8034848 L3.5719125,14.3404545 Z" id="Fill-5" fill="#050E39"></path>
            <path d="M10.392525,14.0447576 C10.392525,13.6926364 10.6889625,13.4762727 11.07465,13.4762727 C11.459275,13.4762727 11.756775,13.6926364 11.756775,14.0447576 L11.756775,14.0606667 C11.756775,14.4127879 11.459275,14.6365758 11.07465,14.6365758 C10.6889625,14.6365758 10.392525,14.4127879 10.392525,14.0606667 L10.392525,14.0447576 Z M10.464775,15.6282424 C10.464775,15.2920303 10.7378375,15.0205152 11.07465,15.0205152 C11.4114625,15.0205152 11.684525,15.2920303 11.684525,15.6282424 L11.684525,18.7952121 C11.684525,19.1314242 11.4114625,19.4029394 11.07465,19.4029394 C10.7378375,19.4029394 10.464775,19.1314242 10.464775,18.7952121 L10.464775,15.6282424 Z" id="Fill-7" fill="#050E39"></path>
            <path d="M12.8874875,14.0763636 C12.8874875,13.7412121 13.16055,13.4686364 13.4973625,13.4686364 C13.8352375,13.4686364 14.106175,13.7412121 14.106175,14.0763636 L14.106175,18.795 C14.106175,19.1312121 13.8352375,19.4027273 13.4973625,19.4027273 C13.16055,19.4027273 12.8874875,19.1312121 12.8874875,18.795 L12.8874875,14.0763636 Z" id="Fill-9" fill="#050E39"></path>
            <path d="M17.2942062,19.4503485 C16.0011437,19.4503485 15.0470187,18.5467121 15.0470187,17.235803 L15.0470187,17.2188333 C15.0470187,15.9959545 15.9203937,14.9883788 17.1720187,14.9883788 C18.6095812,14.9883788 19.2428312,16.1635303 19.2428312,17.0512576 C19.2428312,17.4033788 18.9942062,17.6356515 18.6743937,17.6356515 L16.2582687,17.6356515 C16.3793937,18.1871667 16.7629562,18.4756515 17.3090812,18.4756515 C17.6469562,18.4756515 17.9274562,18.3706515 18.1760812,18.1871667 C18.2632062,18.1235303 18.3439562,18.0917121 18.4725187,18.0917121 C18.7445187,18.0917121 18.9463937,18.2995909 18.9463937,18.5711061 C18.9463937,18.7312576 18.8730812,18.8511061 18.7859562,18.9306515 C18.4087687,19.2520152 17.9189562,19.4503485 17.2942062,19.4503485 L17.2942062,19.4503485 Z M18.0783312,16.875197 C18.0082062,16.3321667 17.6862687,15.9641364 17.1720187,15.9641364 C16.6673312,15.9641364 16.3379562,16.3236818 16.2423312,16.875197 L18.0783312,16.875197 Z" id="Fill-11" fill="#050E39"></path>
            <path d="M20.060425,18.9469848 C19.9339875,18.8674394 19.8277375,18.723197 19.8277375,18.5312273 C19.8277375,18.2597121 20.0381125,18.0518333 20.30905,18.0518333 C20.3983,18.0518333 20.485425,18.0751667 20.5502375,18.1154697 C20.9593,18.3710758 21.369425,18.4994091 21.7147375,18.4994091 C22.0674875,18.4994091 22.2268625,18.3710758 22.2268625,18.1791061 L22.2268625,18.163197 C22.2268625,17.8991061 21.8093,17.8110758 21.3364875,17.6668333 C20.7351125,17.4918333 20.05405,17.2118333 20.05405,16.3803182 L20.05405,16.3633485 C20.05405,15.4925909 20.75955,15.0047121 21.6254875,15.0047121 C22.074925,15.0047121 22.5403,15.1245606 22.9578625,15.3324394 C23.1342375,15.4204697 23.247925,15.5806212 23.247925,15.7874394 C23.247925,16.0600152 23.0301125,16.2678939 22.7581125,16.2678939 C22.6688625,16.2678939 22.61255,16.2519848 22.5318,16.2116818 C22.18755,16.0441061 21.8592375,15.9401667 21.6021125,15.9401667 C21.305675,15.9401667 21.1516125,16.0685 21.1516125,16.2360758 L21.1516125,16.2519848 C21.1516125,16.4916818 21.560675,16.6041061 22.028175,16.763197 C22.62955,16.9636515 23.32655,17.2510758 23.32655,18.0359242 L23.32655,18.0518333 C23.32655,19.003197 22.61255,19.4348636 21.6807375,19.4348636 C21.1516125,19.4348636 20.583175,19.2821364 20.060425,18.9469848" id="Fill-13" fill="#050E39"></path>
            <path d="M16.33955,33.7338485 C12.5432375,33.7338485 8.9573,32.5056667 5.9684875,30.1829394 L7.012925,28.8433939 C9.6999875,30.9327879 12.9257375,32.0368788 16.33955,32.0368788 L16.341675,32.0368788 C24.722675,32.0368788 31.5407375,25.2320303 31.5407375,16.8670303 C31.5407375,8.5020303 24.722675,1.69612121 16.341675,1.69612121 C12.4327375,1.69612121 8.7203625,3.17460606 5.886675,5.85793939 L4.7158,4.62657576 C7.867175,1.64309091 11.99605,0.000212121212 16.341675,0.000212121212 C25.6587375,0.000212121212 33.239675,7.56657576 33.239675,16.8670303 C33.239675,26.1674848 25.6587375,33.7338485 16.341675,33.7338485 L16.33955,33.7338485 Z" id="Fill-15" fill="#050E39"></path>
            <path d="M5.1656625,34.1973333 L5.1656625,30.4374848 C5.1422875,26.9470303 4.8405375,27.3458182 6.6021625,27.3447576 L12.068725,27.3458182 L5.1656625,34.1973333 Z" id="Fill-17" fill="#050E39"></path>
        </g>
    </g>
</svg>