<?xml version="1.0" encoding="UTF-8"?>
<svg width="220px" height="150px" viewBox="0 0 220 150" version="1.1" xmlns="http://www.w3.org/2000/svg" xmlns:xlink="http://www.w3.org/1999/xlink">
    <!-- Generator: Sketch Beta 41.2 (35396) - http://www.bohemiancoding.com/sketch -->
    <title>Group</title>
    <desc>Created with Sketch Beta.</desc>
    <defs>
        <polyline id="path-1" points="0 0.0680902174 219.718024 0.0680902174 219.718024 149.863636 0 149.863636"></polyline>
        <polyline id="path-3" points="0 0.225661489 147.561315 0.225661489 147.561315 76.2222222 0 76.2222222"></polyline>
        <polyline id="path-5" points="0 0 147.561315 0 147.561315 75.9965607 0 75.9965607"></polyline>
    </defs>
    <g id="Page-1" stroke="none" stroke-width="1" fill="none" fill-rule="evenodd">
        <g id="Charity_Done" transform="translate(-402.000000, -444.000000)">
            <g id="Group" transform="translate(402.000000, 444.000000)">
                <g id="Page-1">
                    <g id="Group-13">
                        <mask id="mask-2" fill="white">
                            <use xlink:href="#path-1"></use>
                        </mask>
                        <g id="Clip-12"></g>
                        <path d="M10.9273156,113.344949 L10.9273156,14.6043603 C10.9273156,13.068258 12.2385546,11.7517385 13.7678466,11.7517385 L183.139617,11.7517385 C184.669233,11.7517385 185.980472,13.068258 185.980472,14.6043603 L185.980472,83.362774 C167.796077,83.4422669 153.023304,98.0334466 152.560265,116.197571 L13.7678466,116.197571 C12.2385546,116.197571 10.9273156,114.881051 10.9273156,113.344949 M196.907788,14.8239431 C196.689086,7.1440833 190.569646,1 183.139617,1 L13.7678466,1 C6.33749263,1 0,7.1440833 0,14.8239431 L0,113.564532 C0,121.024483 6.11911504,127.388149 13.7678466,127.388149 L154.151534,127.388149 C158.491504,140.965143 171.16649,150.795546 186.128761,150.795546 C204.682743,150.795546 219.718024,135.695807 219.718024,117.076228 C219.718024,102.240054 210.17236,89.6417346 196.907788,85.134097 L196.907788,14.8239431 Z" id="Fill-11" stroke="#FFFFFF" stroke-width="5" fill="#62B4E8" mask="url(#mask-2)"></path>
                    </g>
                    <polygon id="Shape" fill="#FFFFFF" points="169 117.363636 173.4 112.818182 182.2 121.909091 197.6 106 202 110.545455 182.2 131"></polygon>
                </g>
                <g id="Charity" transform="translate(2.000000, 19.000000)">
                    <g id="Group-3" transform="translate(5.096135, 0.000000)">
                        <mask id="mask-4" fill="white">
                            <use xlink:href="#path-3"></use>
                        </mask>
                        <g id="Clip-2"></g>
                        <path d="M128.194882,0.22557953 C122.326565,0.238419833 119.381164,3.23212274 116.456479,9.21215221 C113.526489,3.23212274 110.581088,0.232955874 104.712771,0.22557953 C98.1994915,0.212739227 92.8993366,5.63162015 92.8889788,12.3033868 C92.8670001,24.3978591 104.658203,36.5237492 116.45471,48.6439021 C128.247681,36.5218368 140.039137,24.3978591 140.023726,12.3033868 C140.010084,5.63162015 134.718266,0.212739227 128.194882,0.22557953" id="Fill-1" fill="#62B4E8" mask="url(#mask-4)"></path>
                    </g>
                    <g id="Group-6" transform="translate(0.000000, 21.777778)">
                        <mask id="mask-6" fill="white">
                            <use xlink:href="#path-5"></use>
                        </mask>
                        <g id="Clip-5"></g>
                        <path d="M109.143456,36.0735502 C108.818575,37.3873591 108.16174,38.6203013 107.275518,39.641242 C104.251802,42.9532205 99.3073487,43.0308087 96.2139074,39.8051607 L80.8954998,23.6405857 L78.450557,26.6159843 L93.798017,42.7914873 C97.9767521,47.1779532 105.570525,47.6306422 109.68484,43.120964 C111.10032,41.5457047 112.325317,38.2208859 112.749229,36.15469 L144.001953,36.15469 C148.357781,36.15469 152.657273,40.541156 152.657273,45.2295056 C152.657273,49.9544638 149.984206,54.4444718 144.001953,54.4444718 L90.2026021,54.4444718 C87.4037262,54.3595072 84.2355068,53.1730086 81.8092586,50.9336052 L47.434293,22.8879254 L5.09621105,22.7169035 L5.09621105,-7.6304689 L67.193412,-7.6304689 C67.193412,-7.6304689 71.2976216,-7.53867439 74.1303497,-5.75195994 C76.7455644,-4.10321043 79.0545928,-1.70016145 79.0545928,-1.70016145 L107.098425,27.741833 C108.165277,28.846099 108.9123,30.2462384 109.281391,31.8305132 C109.546904,33.2178123 109.521136,34.6769624 109.143456,36.0735502 Z" id="Fill-4" fill="#62B4E8" mask="url(#mask-6)"></path>
                    </g>
                </g>
            </g>
        </g>
    </g>
</svg>