<?xml version="1.0" encoding="UTF-8" standalone="no"?>
<svg width="73px" height="39px" viewBox="0 0 73 39" version="1.1" xmlns="http://www.w3.org/2000/svg" xmlns:xlink="http://www.w3.org/1999/xlink">
    <!-- Generator: Sketch Beta 3.6 (26304) - http://www.bohemiancoding.com/sketch -->
    <title>icon-plane</title>
    <desc>Created with Sketch Beta.</desc>
    <defs></defs>
    <g id="Page-1" stroke="none" stroke-width="1" fill="none" fill-rule="evenodd">
        <g id="ORC_landing_2" transform="translate(-93.000000, -743.000000)">
            <g id="icon-plane" transform="translate(95.000000, 743.000000)">
                <path d="M67.222616,10.9910728 C69.7183864,9.53949583 70.7194201,6.02075545 69.4483055,3.17094776 L69.4483055,3.17094776 C68.1765714,0.321841989 65.0947999,-0.821590704 62.5990295,0.629986219 L54.111304,5.56801507 C53.9991833,10.0315439 52.7937305,17.2178324 47,22.7553035 L67.222616,10.9910728 L67.222616,10.9910728 Z" id="XMLID_1175_" fill="#62B4E8" opacity="0.1"></path>
                <path d="M40.2345767,13.2853862 C40.2345767,13.2853862 24.0730569,2.69820239 18.3521925,5.6371071 C15.7045353,6.99934351 13.7748762,7.98773073 13.7748762,7.98773073 L25.3590797,20.9255382 L14.4885001,26.5088945 L4.70772801,24.2676749 L0.131036543,26.6189237 L8.81075316,35.2368351 C11.9520732,37.7093661 16.5062686,37.0954532 20.296849,35.1486867 L66.0668881,11.6399497 C68.5839434,10.3471067 69.5943899,7.21315023 68.3114916,4.67497684 L68.3114916,4.67497684 C67.0285932,2.13742861 63.9197674,1.11903343 61.4020872,2.41187642 L40.2345767,13.2853862" id="XMLID_1172_" stroke="#050E39" stroke-width="2.5"></path>
                <path d="M56.0923387,5.26957692 C55.9653468,9.35475867 54.6000081,15.9319077 48.0378226,21" id="XMLID_1139_" stroke="#050E39" stroke-width="2.5"></path>
            </g>
        </g>
    </g>
</svg>