<?xml version="1.0" encoding="UTF-8" standalone="no"?>
<svg width="25px" height="25px" viewBox="0 0 25 25" version="1.1" xmlns="http://www.w3.org/2000/svg" xmlns:xlink="http://www.w3.org/1999/xlink">
    <!-- Generator: Sketch Beta 3.6 (26265) - http://www.bohemiancoding.com/sketch -->
    <title>Group 2</title>
    <desc>Created with Sketch Beta.</desc>
    <defs></defs>
    <g id="Page-1" stroke="none" stroke-width="1" fill="none" fill-rule="evenodd">
        <g id="Group" fill="#FFFFFF">
            <g id="Group-2">
                <path d="M20.613125,19.921875 L12.4998437,19.921875 C12.0685937,19.921875 11.7185937,19.571875 11.7185937,19.140625 C11.7185937,18.709375 12.0685937,18.359375 12.4998437,18.359375 L20.613125,18.359375 C22.1709375,18.359375 23.4373437,17.0921875 23.4373437,15.534375 L23.4373437,4.38671875 C23.4373437,2.8296875 22.1709375,1.5625 20.613125,1.5625 L4.3865625,1.5625 C2.82953125,1.5625 1.56234375,2.8296875 1.56234375,4.38671875 L1.56234375,15.534375 C1.56234375,17.0921875 2.82953125,18.359375 4.3865625,18.359375 C4.81859375,18.359375 5.1678125,18.709375 5.1678125,19.140625 C5.1678125,19.571875 4.81859375,19.921875 4.3865625,19.921875 C1.9678125,19.921875 -0.00015625,17.953125 -0.00015625,15.534375 L-0.00015625,4.38671875 C-0.00015625,1.96796875 1.9678125,0 4.3865625,0 L20.613125,0 C23.031875,0 24.9998437,1.96796875 24.9998437,4.38671875 L24.9998437,15.534375 C24.9998437,17.953125 23.031875,19.921875 20.613125,19.921875" id="Fill-1"></path>
                <path d="M4.6875,25 C4.559375,25 4.43125,24.96875 4.31484375,24.9054688 C4.06328125,24.76875 3.90625,24.5054687 3.90625,24.21875 L3.90625,19.140625 C3.90625,18.709375 4.25625,18.359375 4.6875,18.359375 C5.11875,18.359375 5.46875,18.709375 5.46875,19.140625 L5.46875,22.7789062 L12.0742188,18.4859375 C12.4359375,18.25 12.9203125,18.3539063 13.1546875,18.7148438 C13.390625,19.0765625 13.2875,19.5609375 12.9257813,19.7953125 L5.11328125,24.8734375 C4.984375,24.9578125 4.8359375,25 4.6875,25" id="Fill-4"></path>
                <path d="M18.75,14.0625 L6.25,14.0625 C5.81875,14.0625 5.46875,13.7125 5.46875,13.28125 C5.46875,12.85 5.81875,12.5 6.25,12.5 L18.75,12.5 C19.18125,12.5 19.53125,12.85 19.53125,13.28125 C19.53125,13.7125 19.18125,14.0625 18.75,14.0625" id="Fill-6"></path>
                <path d="M18.75,10.9375 L6.25,10.9375 C5.81875,10.9375 5.46875,10.5875 5.46875,10.15625 C5.46875,9.725 5.81875,9.375 6.25,9.375 L18.75,9.375 C19.18125,9.375 19.53125,9.725 19.53125,10.15625 C19.53125,10.5875 19.18125,10.9375 18.75,10.9375" id="Fill-8"></path>
                <path d="M18.75,7.8125 L6.25,7.8125 C5.81875,7.8125 5.46875,7.4625 5.46875,7.03125 C5.46875,6.6 5.81875,6.25 6.25,6.25 L18.75,6.25 C19.18125,6.25 19.53125,6.6 19.53125,7.03125 C19.53125,7.4625 19.18125,7.8125 18.75,7.8125" id="Fill-10"></path>
            </g>
        </g>
    </g>
</svg>