<?xml version="1.0" encoding="UTF-8"?>
<svg width="13px" height="22px" viewBox="0 0 13 22" version="1.1" xmlns="http://www.w3.org/2000/svg" xmlns:xlink="http://www.w3.org/1999/xlink">
    <!-- Generator: Sketch Beta 43 (38963) - http://www.bohemiancoding.com/sketch -->
    <title>phone</title>
    <desc>Created with Sketch Beta.</desc>
    <defs>
        <polygon id="path-1" points="6.49999783 22 0 22 0 0 6.49999783 0 12.9999957 0 12.9999957 22 6.49999783 22"></polygon>
    </defs>
    <g id="Page-1" stroke="none" stroke-width="1" fill="none" fill-rule="evenodd">
        <g id="Desktop-Profile-Edit" transform="translate(-309.000000, -485.000000)">
            <g id="Group-8" transform="translate(306.000000, 484.000000)">
                <g id="Group-7" transform="translate(3.000000, 0.000000)">
                    <g id="phone" transform="translate(0.000000, 1.000000)">
                        <g id="Page-1">
                            <g id="Group-3">
                                <mask id="mask-2" fill="white">
                                    <use xlink:href="#path-1"></use>
                                </mask>
                                <g id="Clip-2"></g>
                                <path d="M12.0450157,2.74101953 C12.0450157,2.53902344 12.053249,2.36014453 12.0435857,2.18225391 C12.0037623,1.45427734 11.4696357,0.917167969 10.7368257,0.900925781 C9.914489,0.882664062 9.09150233,0.89134375 8.268819,0.891902344 C6.24814233,0.893363281 4.227379,0.888035156 2.206789,0.905695312 C1.68492567,0.91025 1.29869567,1.18408984 1.07106567,1.66228906 C0.906702333,2.0075 0.950989,2.36938281 0.950945667,2.74101953 L12.0450157,2.74101953 Z M12.016069,17.4196172 L0.950252333,17.4196172 C0.950252333,18.2288906 0.942365667,19.0229531 0.952809,19.8166719 C0.960912333,20.4353789 1.39108233,20.9410352 2.008799,21.0518516 C2.261519,21.0971836 2.52485567,21.0958945 2.78342567,21.0961953 C5.39781233,21.0990742 8.01224233,21.0988594 10.626629,21.0972266 C11.3617357,21.0967539 11.9367257,20.6858438 11.9989957,19.9702422 C12.0718823,19.1329531 12.016069,18.284707 12.016069,17.4196172 L12.016069,17.4196172 Z M0.966459,16.4854766 L12.0343557,16.4854766 L12.0343557,3.6664375 L0.966459,3.6664375 L0.966459,16.4854766 Z M12.9999957,3.22265625 L12.9999957,3.265625 C12.986909,3.35474219 12.9624257,3.44381641 12.9623823,3.53297656 C12.9589157,8.903125 12.9578323,14.2733594 12.9552323,19.6435078 C12.9548857,20.3769844 12.6379457,20.963207 12.0909923,21.4404609 C11.752689,21.7356563 11.346959,21.8889258 10.9199957,22 L2.07999567,22 C2.05412567,21.9881406 2.02929567,21.9692773 2.002299,21.9654102 C1.01854567,21.8252461 -0.0117043333,20.8105391 0.0285523333,19.6011406 C0.0544656667,18.8232344 0.034619,18.0438672 0.0322356667,17.2651875 C0.0319756667,17.181957 0.011219,17.0988125 -4.33333333e-06,17.015625 L-4.33333333e-06,3.13671875 C0.0110023333,2.88195703 0.0337523333,2.62710937 0.030719,2.37251953 C0.0234823333,1.76356641 0.236942333,1.24411719 0.638599,0.790152344 C1.00355233,0.377738281 1.46869233,0.140164063 1.993329,0 L11.0066623,0 C11.0313623,0.012890625 11.054719,0.0309804688 11.0810657,0.0379414062 C12.0131223,0.285613281 12.635909,0.865089844 12.8757157,1.78883203 C12.9704423,2.15376563 12.9312257,2.55260156 12.957009,2.93575391 C12.9634223,3.03191797 12.985219,3.12705078 12.9999957,3.22265625 L12.9999957,3.22265625 Z" id="Fill-1" fill="#050E39" mask="url(#mask-2)"></path>
                            </g>
                            <path d="M6.48849067,19.5990352 C6.73882733,19.5998945 6.81648067,19.5276641 6.82137733,19.2894453 C6.826404,19.0430625 6.735794,18.9492617 6.49200067,18.9483594 C6.25501067,18.947543 6.159634,19.0365312 6.15478067,19.2630625 C6.149624,19.5039883 6.243224,19.5981758 6.48849067,19.5990352 M6.49481733,20.502625 C5.862064,20.5036133 5.24993733,19.9075938 5.24525733,19.2859648 C5.24049067,18.6607695 5.86210733,18.0453281 6.49676733,18.0467891 C7.123064,18.04825 7.733804,18.6558281 7.73358733,19.2771992 C7.733414,19.8984414 7.12362733,20.5016367 6.49481733,20.502625" id="Fill-4" fill="#050E39"></path>
                        </g>
                    </g>
                </g>
            </g>
        </g>
    </g>
</svg>