<?xml version="1.0" encoding="UTF-8" standalone="no"?>
<svg width="162px" height="192px" viewBox="0 0 162 192" version="1.1" xmlns="http://www.w3.org/2000/svg" xmlns:xlink="http://www.w3.org/1999/xlink">
    <!-- Generator: Sketch Beta 3.7.2 (28276) - http://www.bohemiancoding.com/sketch -->
    <title>Page 1</title>
    <desc>Created with Sketch Beta.</desc>
    <defs></defs>
    <g id="Page-1" stroke="none" stroke-width="1" fill="none" fill-rule="evenodd">
        <g id="Artboard-1" transform="translate(-44.000000, -29.000000)" fill="#051039">
            <g id="Page-1" transform="translate(44.000000, 29.000000)">
                <g id="Group-3" transform="translate(0.000000, 0.096396)">
                    <path d="M115.523416,184.350936 C94.0100108,184.350936 76.5655784,166.897477 76.5655784,145.364241 C76.5655784,123.830518 94.0100108,106.377545 115.523416,106.377545 C137.037308,106.377545 154.481254,123.830518 154.481254,145.364241 C154.481254,166.897477 137.037308,184.350936 115.523416,184.350936 L115.523416,184.350936 Z M35.8106595,37.9872476 C37.5586054,25.3292296 44.3815784,12.9501748 52.5355784,12.9501748 C60.6856865,12.9501748 67.5042811,25.3292296 69.2570919,37.9872476 L35.8106595,37.9872476 Z M129.891795,101.647341 L129.891795,37.9872476 L105.624389,37.9872476 C101.952389,17.53968 90.6435243,4.55644832 77.6363351,2.34665049 C74.1715784,1.75805265 69.7348216,3.60028112 68.7545514,5.83296076 C69.9882811,6.85095751 75.1192541,12.5261312 76.6555784,15.5187788 C77.3094162,14.7992191 78.2570919,14.5879276 78.2570919,14.5879276 C85.7373081,14.5879276 92.0494703,24.3555359 94.0839568,37.9872476 L80.8797405,37.9872476 C77.6037405,17.0528332 66.156227,0.390499856 52.5355784,0.390499856 C38.8944973,0.390499856 27.4314162,17.0528332 24.1792541,37.9872476 L-9.72972973e-05,37.9872476 L-9.72972973e-05,167.488509 L75.2666595,167.488509 C83.1190378,181.607067 98.1937946,191.330859 115.523416,191.330859 C140.938443,191.330859 161.523146,170.755251 161.523146,145.321885 C161.523146,124.928844 148.378281,107.702256 129.891795,101.647341 L129.891795,101.647341 Z" id="Fill-1"></path>
                </g>
                <path d="M133.907789,138.861038 L120.162114,138.861038 L120.162114,126.126585 C120.162114,123.640745 118.122762,121.621304 115.540492,121.621304 C112.958708,121.621304 110.91887,123.640745 110.91887,126.126585 L110.91887,138.861038 L97.2461676,138.861038 C94.6595189,138.861038 92.5681135,141.071809 92.5681135,143.729506 C92.5681135,146.387203 94.6595189,148.597975 97.2461676,148.597975 L110.91887,148.597975 L110.91887,163.162972 C110.91887,165.652707 112.958708,167.672634 115.540492,167.672634 C118.122762,167.672634 120.162114,165.652707 120.162114,163.162972 L120.162114,148.597975 L133.907789,148.597975 C136.493465,148.597975 138.585357,146.387203 138.585357,143.729506 C138.585357,141.071809 136.493465,138.861038 133.907789,138.861038" id="Fill-4"></path>
            </g>
        </g>
    </g>
</svg>