<?xml version="1.0" encoding="UTF-8"?>
<svg width="120px" height="60px" viewBox="0 0 120 60" version="1.1" xmlns="http://www.w3.org/2000/svg" xmlns:xlink="http://www.w3.org/1999/xlink">
    <!-- Generator: Sketch Beta 43 (38917) - http://www.bohemiancoding.com/sketch -->
    <title>Group 4</title>
    <desc>Created with Sketch Beta.</desc>
    <defs></defs>
    <g id="Page-1" stroke="none" stroke-width="1" fill="none" fill-rule="evenodd">
        <g id="Group-4" fill-rule="nonzero">
            <g id="Group-2" fill="#B3B6C5">
                <path d="M50.7728972,50.771215 C62.3725234,39.1721495 62.3714019,20.2990654 50.7740187,8.70168224 C39.1721495,-2.90018692 20.2979439,-2.90018692 8.69943925,8.6988785 C-2.90074766,20.2979439 -2.89962617,39.1727103 8.70056075,50.7740187 C20.2979439,62.3719626 39.1721495,62.3719626 50.7728972,50.771215 L50.7728972,50.771215 Z M11.944486,11.9439252 C21.7536449,2.13476636 37.7164486,2.13364486 47.5284112,11.9450467 C57.3381308,21.7547664 57.3370093,37.7181308 47.5272897,47.5272897 C37.7175701,57.3370093 21.7542056,57.3381308 11.944486,47.5284112 C2.13252336,37.7175701 2.13364486,21.7536449 11.944486,11.9439252 L11.944486,11.9439252 Z" id="Shape"></path>
                <path d="M17.0596262,39.8293458 C17.0596262,40.9065421 17.933271,41.7801869 19.0104673,41.7801869 L40.4641121,41.7801869 C41.5418692,41.7801869 42.4149533,40.9065421 42.4149533,39.8293458 C42.4149533,38.7521495 41.5413084,37.8790654 40.4641121,37.8790654 L19.0099065,37.8790654 C17.9327103,37.8796262 17.0596262,38.7521495 17.0596262,39.8293458 L17.0596262,39.8293458 Z" id="Shape"></path>
                <path d="M18.6392523,21.6846729 C18.6392523,19.7646729 20.1964486,18.2074766 22.1164486,18.2074766 C24.0358879,18.2074766 25.5930841,19.7641121 25.5930841,21.6846729 C25.5930841,23.6057944 24.0358879,25.1624299 22.1164486,25.1624299 C20.1964486,25.1624299 18.6392523,23.6057944 18.6392523,21.6846729 L18.6392523,21.6846729 Z M34.4057944,21.6846729 C34.4057944,19.7646729 35.9641121,18.2074766 37.8841121,18.2074766 C39.8035514,18.2074766 41.3607477,19.7641121 41.3607477,21.6846729 C41.3607477,23.6057944 39.8041121,25.1624299 37.8841121,25.1624299 C35.9641121,25.1624299 34.4057944,23.6057944 34.4057944,21.6846729 L34.4057944,21.6846729 Z" id="Shape"></path>
            </g>
            <g id="Group-2-Copy" transform="translate(60.000000, 0.000000)" fill="#62B4E8">
                <path d="M50.7728972,50.771215 C62.3725234,39.1721495 62.3714019,20.2990654 50.7740187,8.70168224 C39.1721495,-2.90018692 20.2979439,-2.90018692 8.69943925,8.6988785 C-2.90074766,20.2979439 -2.89962617,39.1727103 8.70056075,50.7740187 C20.2979439,62.3719626 39.1721495,62.3719626 50.7728972,50.771215 L50.7728972,50.771215 Z M11.944486,11.9439252 C21.7536449,2.13476636 37.7164486,2.13364486 47.5284112,11.9450467 C57.3381308,21.7547664 57.3370093,37.7181308 47.5272897,47.5272897 C37.7175701,57.3370093 21.7542056,57.3381308 11.944486,47.5284112 C2.13252336,37.7175701 2.13364486,21.7536449 11.944486,11.9439252 L11.944486,11.9439252 Z" id="Shape"></path>
                <path d="M17.0596262,39.8293458 C17.0596262,40.9065421 17.933271,41.7801869 19.0104673,41.7801869 L40.4641121,41.7801869 C41.5418692,41.7801869 42.4149533,40.9065421 42.4149533,39.8293458 C42.4149533,38.7521495 41.5413084,37.8790654 40.4641121,37.8790654 L19.0099065,37.8790654 C17.9327103,37.8796262 17.0596262,38.7521495 17.0596262,39.8293458 L17.0596262,39.8293458 Z" id="Shape"></path>
                <path d="M18.6392523,21.6846729 C18.6392523,19.7646729 20.1964486,18.2074766 22.1164486,18.2074766 C24.0358879,18.2074766 25.5930841,19.7641121 25.5930841,21.6846729 C25.5930841,23.6057944 24.0358879,25.1624299 22.1164486,25.1624299 C20.1964486,25.1624299 18.6392523,23.6057944 18.6392523,21.6846729 L18.6392523,21.6846729 Z M34.4057944,21.6846729 C34.4057944,19.7646729 35.9641121,18.2074766 37.8841121,18.2074766 C39.8035514,18.2074766 41.3607477,19.7641121 41.3607477,21.6846729 C41.3607477,23.6057944 39.8041121,25.1624299 37.8841121,25.1624299 C35.9641121,25.1624299 34.4057944,23.6057944 34.4057944,21.6846729 L34.4057944,21.6846729 Z" id="Shape"></path>
            </g>
        </g>
    </g>
</svg>