<?xml version="1.0" encoding="UTF-8"?>
<svg width="120px" height="60px" viewBox="0 0 120 60" version="1.1" xmlns="http://www.w3.org/2000/svg" xmlns:xlink="http://www.w3.org/1999/xlink">
    <!-- Generator: Sketch Beta 43 (38917) - http://www.bohemiancoding.com/sketch -->
    <title>Group 3</title>
    <desc>Created with Sketch Beta.</desc>
    <defs></defs>
    <g id="Page-1" stroke="none" stroke-width="1" fill="none" fill-rule="evenodd">
        <g id="Group-3" fill-rule="nonzero">
            <g id="no" fill="#B3B6C5">
                <path d="M50.773458,8.70175237 C39.1727103,-2.90011679 20.2985047,-2.90011679 8.70000002,8.69894863 C-2.90074764,20.2980141 -2.89962615,39.1727804 8.70112152,50.7740888 C20.2985047,62.3725935 39.1727103,62.3725935 50.7723365,50.7718458 C62.3719626,39.1727804 62.3714019,20.2991355 50.773458,8.70175237 L50.773458,8.70175237 Z M47.5272897,47.5279206 C37.7175701,57.3376402 21.7553271,57.3387617 11.9450467,47.5290421 C2.13308413,37.7176402 2.13420563,21.753715 11.9450467,11.9439954 C21.7547664,2.13483648 37.7164486,2.13371499 47.5284112,11.9451169 C57.3381309,21.7548365 57.3370094,37.7187617 47.5272897,47.5279206 L47.5272897,47.5279206 Z M43.1871028,41.495958 C43.5560748,42.3488552 43.1635514,43.3385748 42.311215,43.706986 C41.4583178,44.0770795 40.4685982,43.6834346 40.0996262,42.8310982 C38.4773832,39.080257 34.6435514,36.6561449 30.3308411,36.6561449 C25.9188785,36.6561449 22.0614953,39.0780141 20.5054206,42.8266122 C20.2368225,43.473715 19.6104673,43.8645561 18.9515888,43.8645561 C18.7362617,43.8645561 18.5181309,43.8230608 18.306729,43.7355841 C17.4487851,43.3789486 17.042243,42.3942757 17.3983178,41.5368926 C19.4786916,36.5282944 24.555701,33.2922197 30.3308411,33.2922197 C35.9854206,33.2922197 41.0321496,36.5120327 43.1871028,41.495958 L43.1871028,41.495958 Z M18.6392524,21.684743 C18.6392524,19.764743 20.1964486,18.2075468 22.1164486,18.2075468 C24.0358879,18.2075468 25.5930841,19.7641823 25.5930841,21.684743 C25.5930841,23.6058645 24.0358879,25.1625 22.1164486,25.1625 C20.1964486,25.1625 18.6392524,23.6058645 18.6392524,21.684743 L18.6392524,21.684743 Z M34.4057944,21.684743 C34.4057944,19.764743 35.9641122,18.2075468 37.8841122,18.2075468 C39.8035514,18.2075468 41.3607477,19.7641823 41.3607477,21.684743 C41.3607477,23.6058645 39.8041122,25.1625 37.8841122,25.1625 C35.9641122,25.1625 34.4057944,23.6058645 34.4057944,21.684743 L34.4057944,21.684743 Z" id="Shape"></path>
            </g>
            <g id="Group" transform="translate(60.000000, 0.000000)" fill="#62B4E8">
                <path d="M50.773458,8.70175237 C39.1727103,-2.90011679 20.2985047,-2.90011679 8.70000002,8.69894863 C-2.90074764,20.2980141 -2.89962615,39.1727804 8.70112152,50.7740888 C20.2985047,62.3725935 39.1727103,62.3725935 50.7723365,50.7718458 C62.3719626,39.1727804 62.3714019,20.2991355 50.773458,8.70175237 L50.773458,8.70175237 Z M47.5272897,47.5279206 C37.7175701,57.3376402 21.7553271,57.3387617 11.9450467,47.5290421 C2.13308413,37.7176402 2.13420563,21.753715 11.9450467,11.9439954 C21.7547664,2.13483648 37.7164486,2.13371499 47.5284112,11.9451169 C57.3381309,21.7548365 57.3370094,37.7187617 47.5272897,47.5279206 L47.5272897,47.5279206 Z M43.1871028,41.495958 C43.5560748,42.3488552 43.1635514,43.3385748 42.311215,43.706986 C41.4583178,44.0770795 40.4685982,43.6834346 40.0996262,42.8310982 C38.4773832,39.080257 34.6435514,36.6561449 30.3308411,36.6561449 C25.9188785,36.6561449 22.0614953,39.0780141 20.5054206,42.8266122 C20.2368225,43.473715 19.6104673,43.8645561 18.9515888,43.8645561 C18.7362617,43.8645561 18.5181309,43.8230608 18.306729,43.7355841 C17.4487851,43.3789486 17.042243,42.3942757 17.3983178,41.5368926 C19.4786916,36.5282944 24.555701,33.2922197 30.3308411,33.2922197 C35.9854206,33.2922197 41.0321496,36.5120327 43.1871028,41.495958 L43.1871028,41.495958 Z M18.6392524,21.684743 C18.6392524,19.764743 20.1964486,18.2075468 22.1164486,18.2075468 C24.0358879,18.2075468 25.5930841,19.7641823 25.5930841,21.684743 C25.5930841,23.6058645 24.0358879,25.1625 22.1164486,25.1625 C20.1964486,25.1625 18.6392524,23.6058645 18.6392524,21.684743 L18.6392524,21.684743 Z M34.4057944,21.684743 C34.4057944,19.764743 35.9641122,18.2075468 37.8841122,18.2075468 C39.8035514,18.2075468 41.3607477,19.7641823 41.3607477,21.684743 C41.3607477,23.6058645 39.8041122,25.1625 37.8841122,25.1625 C35.9641122,25.1625 34.4057944,23.6058645 34.4057944,21.684743 L34.4057944,21.684743 Z" id="Shape-blue"></path>
            </g>
        </g>
    </g>
</svg>