<?xml version="1.0" encoding="UTF-8" standalone="no"?>
<svg width="194px" height="195px" viewBox="0 0 194 195" version="1.1" xmlns="http://www.w3.org/2000/svg" xmlns:xlink="http://www.w3.org/1999/xlink">
    <!-- Generator: Sketch Beta 39 (31443) - http://www.bohemiancoding.com/sketch -->
    <title>Group</title>
    <desc>Created with Sketch Beta.</desc>
    <defs>
        <polygon id="path-1" points="193.382644 0 0 0 8.45950165e-15 194.51049 193.382644 194.51049 193.382644 3.80909508e-14"></polygon>
    </defs>
    <g id="Page-1" stroke="none" stroke-width="1" fill="none" fill-rule="evenodd">
        <g id="Group">
            <g id="Page-1" transform="translate(0.615177, 0.000000)">
                <mask id="mask-2" fill="white">
                    <use xlink:href="#path-1"></use>
                </mask>
                <g id="Clip-2"></g>
                <path d="M153.112944,148.314253 C150.096063,147.706469 147.079181,149.226263 146.173119,152.26518 L138.630583,173.84384 L115.398269,131.294974 C129.579274,127.03982 141.949485,118.225954 150.397418,106.37317 L175.742547,153.481418 L153.112944,148.314253 Z M42.3824252,66.8632216 C42.3824252,36.7742526 66.8214917,12.1566753 96.6916098,12.1566753 C126.561728,12.1566753 151.000794,36.7742526 151.000794,66.8632216 C151.000794,96.9515206 126.561728,121.569098 96.6916098,121.569098 C66.8214917,121.569098 42.3824252,96.9515206 42.3824252,66.8632216 L42.3824252,66.8632216 Z M54.7526362,173.540284 L47.2101005,152.26518 C46.3040382,149.226263 43.287157,147.706469 40.2702757,148.314253 L17.6406727,153.481418 L43.287157,106.676727 C51.7350897,118.225954 63.5025897,126.735593 77.381574,130.990747 L54.7526362,173.540284 Z M192.638413,159.559253 L157.337243,93.911933 C160.958166,85.7058505 163.06965,76.5884278 163.06965,66.8632216 C163.06965,30.0879639 133.501553,-0.000335051545 96.6916098,-0.000335051545 C60.1836877,-0.000335051545 30.3129044,29.7844072 30.3129044,66.8632216 C30.3129044,76.5884278 32.4250539,86.0100773 36.0459767,94.2161598 L0.744807113,159.559253 C-0.461945391,161.68683 -0.159924643,164.118634 1.34818336,166.246211 C2.85695662,168.068892 5.27046162,168.981572 7.38261113,168.373789 L37.5547499,161.383273 L47.8134767,190.559562 C48.7182085,192.687139 50.5283372,194.51049 52.9425075,194.51049 L53.243863,194.51049 C55.3560125,194.51049 57.468162,193.294923 58.6749145,191.167345 L89.4504295,133.117655 C91.5625791,133.421881 93.9760841,133.421881 96.0882336,133.421881 C98.2003831,133.421881 100.312533,133.421881 102.424682,133.117655 L134.40695,191.470902 C135.613037,193.294923 137.423831,194.51049 139.837336,194.51049 L140.440712,194.51049 C142.854882,194.206263 144.967032,192.687139 145.570408,190.559562 L155.82847,161.383273 L186.000608,168.373789 C188.414114,168.981572 190.827619,168.068892 192.035036,166.246211 C193.543144,164.118634 193.845165,161.68683 192.638413,159.559253 L192.638413,159.559253 Z" id="Fill-1" fill="#FFFFFF" mask="url(#mask-2)"></path>
            </g>
            <path d="M97.2957417,40.3392568 C95.7109186,40.3392568 94.3024244,41.3682068 93.81475,42.888473 L89.7830075,55.3813626 L76.7413974,55.3813626 C75.1565743,55.3813626 73.7480801,56.4103126 73.2603266,57.9310572 C72.7682202,59.4488521 73.3068622,61.1130932 74.5888871,62.0532348 L85.1414742,69.7779731 L81.1097318,82.272776 C80.6176254,83.7906506 81.1561882,85.4572036 82.4382923,86.3949536 C83.0814812,86.8652237 83.8380809,87.1 84.5907235,87.1 C85.3473231,87.1 86.1043185,86.8652237 86.7432337,86.3949536 L97.2957417,78.6706936 L107.84825,86.3949536 C108.487165,86.8652237 109.244239,87.1 110.000681,87.1 C110.753402,87.1 111.510002,86.8652237 112.153191,86.3949536 C113.435295,85.454812 113.973304,83.7906506 113.481831,82.272776 L109.450009,69.7779731 L120.006474,62.0557061 C121.288499,61.1174779 121.827141,59.4513234 121.335035,57.9329705 C120.842928,56.4127839 119.438787,55.3832759 117.853489,55.3832759 L104.808555,55.3832759 L100.776733,42.8885528 C100.284706,41.3682068 98.8804856,40.3392568 97.2957417,40.3392568 Z" id="Fill-1" fill="#FFFFFF"></path>
        </g>
    </g>
</svg>