<?xml version="1.0" encoding="UTF-8"?>
<svg width="145px" height="245px" viewBox="0 0 145 245" version="1.1" xmlns="http://www.w3.org/2000/svg" xmlns:xlink="http://www.w3.org/1999/xlink">
    <!-- Generator: Sketch 46.2 (44496) - http://www.bohemiancoding.com/sketch -->
    <title>Picto_Return_Trip</title>
    <desc>Created with Sketch.</desc>
    <defs>
        <polyline id="path-1" points="0 0 144.299645 0 144.299645 133.216506 0 133.216506"></polyline>
        <polyline id="path-3" points="0 0 144.299645 0 144.299645 133.216506 0 133.216506"></polyline>
    </defs>
    <g id="Page-1" stroke="none" stroke-width="1" fill="none" fill-rule="evenodd">
        <g id="Picto_Return_Trip" transform="translate(-0.028881, 0.444689)">
            <g id="Flight">
                <g id="Fill-1-Clipped">
                    <mask id="mask-2" fill="white">
                        <use xlink:href="#path-1"></use>
                    </mask>
                    <g id="path-1"></g>
                    <path d="M131.181083,53.2864706 L94.2931592,53.2864706 C78.5906175,33.8505335 50.5875567,0 45.913671,0 C45.913671,0 39.3543897,0 39.3543897,6.66039675 C39.3543897,11.1767022 51.3789814,37.0376606 59.140657,53.2864706 L30.2286588,53.2864706 C21.9988805,41.6561599 10.5819783,26.6429056 6.55928136,26.6429056 C6.55928136,26.6429056 0,26.6429056 0,33.3033024 C0,39.9643584 13.1179135,66.6079234 13.1179135,66.6079234 C13.1179135,66.6079234 0,93.2521476 0,99.9118851 C0,99.9118851 0,106.5736 6.55928136,106.5736 C10.5819783,106.5736 21.9943358,91.5458413 30.2286588,79.9293762 L59.140657,79.9293762 C51.3789814,96.1775268 39.3543897,122.040463 39.3543897,126.556109 C39.3543897,126.556109 39.3543897,133.216506 45.913671,133.216506 C50.5875567,133.216506 78.5951622,99.3659725 94.2931592,79.9293762 L131.181083,79.9293762 C138.422067,79.9293762 144.299645,73.9711496 144.299645,66.6079234 C144.299645,59.2453565 138.422067,53.2864706 131.181083,53.2864706" id="Fill-1" fill="#050E39" fill-rule="nonzero" mask="url(#mask-2)"></path>
                </g>
            </g>
            <g id="Flight" transform="translate(72.500000, 178.000000) scale(-1, 1) translate(-72.500000, -178.000000) translate(0.000000, 111.000000)">
                <g id="Fill-1-Clipped">
                    <mask id="mask-4" fill="white">
                        <use xlink:href="#path-3"></use>
                    </mask>
                    <g id="path-3"></g>
                    <path d="M131.181083,53.2864706 L94.2931592,53.2864706 C78.5906175,33.8505335 50.5875567,0 45.913671,0 C45.913671,0 39.3543897,0 39.3543897,6.66039675 C39.3543897,11.1767022 51.3789814,37.0376606 59.140657,53.2864706 L30.2286588,53.2864706 C21.9988805,41.6561599 10.5819783,26.6429056 6.55928136,26.6429056 C6.55928136,26.6429056 0,26.6429056 0,33.3033024 C0,39.9643584 13.1179135,66.6079234 13.1179135,66.6079234 C13.1179135,66.6079234 0,93.2521476 0,99.9118851 C0,99.9118851 0,106.5736 6.55928136,106.5736 C10.5819783,106.5736 21.9943358,91.5458413 30.2286588,79.9293762 L59.140657,79.9293762 C51.3789814,96.1775268 39.3543897,122.040463 39.3543897,126.556109 C39.3543897,126.556109 39.3543897,133.216506 45.913671,133.216506 C50.5875567,133.216506 78.5951622,99.3659725 94.2931592,79.9293762 L131.181083,79.9293762 C138.422067,79.9293762 144.299645,73.9711496 144.299645,66.6079234 C144.299645,59.2453565 138.422067,53.2864706 131.181083,53.2864706" id="Fill-1" fill="#050E39" fill-rule="nonzero" mask="url(#mask-4)"></path>
                </g>
            </g>
        </g>
    </g>
</svg>