<?xml version="1.0" encoding="utf-8"?>
<!-- Generator: Adobe Illustrator 16.2.1, SVG Export Plug-In . SVG Version: 6.00 Build 0)  -->
<!DOCTYPE svg PUBLIC "-//W3C//DTD SVG 1.1//EN" "http://www.w3.org/Graphics/SVG/1.1/DTD/svg11.dtd">
<svg version="1.1" id="Calque_1" xmlns="http://www.w3.org/2000/svg" xmlns:xlink="http://www.w3.org/1999/xlink" x="0px" y="0px"
	 width="30px" height="10px" viewBox="0 0 30 10" enable-background="new 0 0 30 10" xml:space="preserve">
<title>Car</title>
<desc>Created with Sketch.</desc>
<g id="UI-STYLE-GUIDE">
	<g id="ICONS" transform="translate(-337.000000, -152.000000)">
		<g id="Car" transform="translate(337.000000, 152.000000)">
			<g id="Group-3">
				<g id="Clip-2">
				</g>
				<defs>
					<filter id="Adobe_OpacityMaskFilter" filterUnits="userSpaceOnUse" x="23.294" y="5.51" width="4.205" height="4.49">
						<feColorMatrix  type="matrix" values="1 0 0 0 0  0 1 0 0 0  0 0 1 0 0  0 0 0 1 0"/>
					</filter>
				</defs>
				<mask maskUnits="userSpaceOnUse" x="23.294" y="5.51" width="4.205" height="4.49" id="mask-2">
					<g filter="url(#Adobe_OpacityMaskFilter)">
						<polyline id="path-1" fill="#FFFFFF" points="0,0.038 29.967,0.038 29.967,10 0,10 						"/>
					</g>
				</mask>
				<path id="Fill-1" mask="url(#mask-2)" fill="#051039" d="M25.33,5.51c1.201,0,2.168,1.018,2.168,2.28
					C27.531,8.912,26.664,10,25.43,10c-1.168,0-2.135-0.982-2.135-2.28C23.262,6.422,24.262,5.51,25.33,5.51"/>
			</g>
			<g id="Group-6">
				<g id="Clip-5">
				</g>
				<defs>
					<filter id="Adobe_OpacityMaskFilter_1_" filterUnits="userSpaceOnUse" x="3.876" y="5.51" width="4.204" height="4.49">
						<feColorMatrix  type="matrix" values="1 0 0 0 0  0 1 0 0 0  0 0 1 0 0  0 0 0 1 0"/>
					</filter>
				</defs>
				<mask maskUnits="userSpaceOnUse" x="3.876" y="5.51" width="4.204" height="4.49" id="mask-4">
					<g filter="url(#Adobe_OpacityMaskFilter_1_)">
						<polyline id="path-3" fill="#FFFFFF" points="0,0.038 29.967,0.038 29.967,10 0,10 						"/>
					</g>
				</mask>
				<path id="Fill-4" mask="url(#mask-4)" fill="#051039" d="M5.979,5.51c1.168,0,2.102,0.947,2.102,2.245
					C8.081,9.018,7.146,10,5.979,10S3.91,9.053,3.876,7.755C3.91,6.492,4.811,5.51,5.979,5.51"/>
			</g>
			<path id="Fill-7" fill="#051039" d="M5.945,2.599c0-0.211,0.267-0.421,0.333-0.456C6.446,2.002,7.247,1.616,8.314,1.16
				c0.868-0.386,2.035-0.386,2.469-0.456c0.1,0,0.167,0.07,0.167,0.14l0.2,2.456c-0.467,0-4.604-0.105-4.704-0.105
				C6.312,3.195,5.979,3.02,5.945,2.599 M11.917,0.599c0.634-0.07,1.568-0.07,2.269-0.035c0.667,0.035,1.301,0.14,1.935,0.351
				c0.567,0.21,2.836,1.473,2.836,1.473c0.066,0.035,0.1,0.07,0.167,0.105h-0.101c-0.033,0-0.066,0.035-0.133,0.07
				c-0.066-0.035-0.1-0.035-0.167-0.035c-0.033,0-0.333-0.141-0.4,0.105c0,0.035-0.067,0.21-0.067,0.316
				c0,0.246,0.168,0.386,0.168,0.386c-0.033,0.07-0.067,0.141-0.101,0.21c-0.134,0-3.604-0.105-5.905-0.14L11.75,0.95
				C11.75,0.774,11.817,0.599,11.917,0.599 M0.073,6.598c-0.067,0.105-0.067,0.21,0,0.315c0.1,0.21,0.167,0.386,0.233,0.597
				C0.34,7.545,0.34,7.615,0.374,7.65c0.1,0.069,0.133,0.21,0.167,0.314C0.574,8,0.574,8.035,0.607,8.07
				c0.5,0.387,1.101,0.387,1.702,0.526c0.3,0.07,0.567,0.07,0.867,0.105c0.067,0,0.1-0.386,0.067-0.562
				c0-0.105,0.033-0.176,0.033-0.28V7.79C3.31,6.176,4.477,4.914,5.945,4.914c1.067,0,1.968,0.631,2.402,1.579v0.035
				c0.034,0.035,0.034,0.105,0.067,0.141c0.3,0.771,0.267,1.543,0.2,1.613c-0.067,0.28-0.133,0.596-0.167,0.807
				c-0.033,0.141,0.067,0.246,0.2,0.246c0.367-0.035,1.101-0.105,1.869-0.176c4.104,0,8.174-0.035,12.312-0.035
				c0.066-0.105,0.033-0.07,0.1-0.176c-0.134-0.28-0.234-0.842-0.234-1.157c0.034-1.614,1.201-2.876,2.67-2.876
				c1.468,0,2.669,1.227,2.669,2.841c0,0.386-0.067,0.702-0.134,0.877c-0.033,0.105,0.033,0.176,0.101,0.176
				c0.3,0,0.634,0,0.935-0.105c0.133-0.035,0.267-0.035,0.4-0.07c0.166-0.035,0.199-0.104,0.199-0.28v-0.07
				c0.134-0.316,0.168-0.631,0.201-0.947c0-0.07,0-0.141,0.033-0.211c0.166-0.104,0.166-0.104,0.166-0.28
				c0-0.175,0.033-0.315,0.033-0.491c0-0.141-0.066-0.245-0.166-0.315c-0.134-0.07-0.301-0.14-0.434-0.21v-0.07V5.299
				C29.4,4.809,29.166,4.528,28.8,4.317c-0.2-0.105-0.4-0.176-0.601-0.246c-0.434-0.105-1.902-0.526-2.235-0.596
				C25.43,3.37,24.863,3.3,24.295,3.229c-0.6-0.07-1.168-0.105-1.768-0.175c-0.234-0.035-0.467-0.035-0.734,0
				c-0.166,0-0.301-0.035-0.434-0.105c-1.135-0.702-4.204-2.175-4.537-2.351c-0.567-0.28-1.201-0.386-1.802-0.491
				c-0.4-0.07-0.801-0.07-1.201-0.07c-1.368,0-2.736,0-4.104,0.14c-0.567,0.07-1.134,0.141-1.702,0.281
				c-0.601,0.14-1.201,0.456-1.768,0.667C5.478,1.441,4.744,1.827,3.977,2.177c-0.4,0.281-1.368,0.526-2.335,0.526H0.874
				c-0.067,0-0.134,0-0.201,0.035c-0.066,0.035-0.133,0.07-0.1,0.175C0.707,3.476,0.64,4.037,0.54,4.598
				C0.507,4.809,0.507,5.019,0.507,5.264V5.37C0.44,5.405,0.34,5.405,0.273,5.439c-0.2,0.07-0.3,0.281-0.267,0.491
				c0.033,0.176,0.067,0.351,0.1,0.526C0.106,6.457,0.106,6.527,0.073,6.598"/>
		</g>
	</g>
</g>
</svg>
