<?xml version="1.0" encoding="UTF-8"?>
<svg width="612px" height="576px" viewBox="0 0 612 576" version="1.1" xmlns="http://www.w3.org/2000/svg" xmlns:xlink="http://www.w3.org/1999/xlink">
    <!-- Generator: Sketch Beta 43 (38963) - http://www.bohemiancoding.com/sketch -->
    <title>house-outline</title>
    <desc>Created with Sketch Beta.</desc>
    <defs></defs>
    <g id="Page-1" stroke="none" stroke-width="1" fill="none" fill-rule="evenodd">
        <g id="house-outline" fill-rule="nonzero" fill="#050E39">
            <path d="M511.114,282.251 C501.174,282.251 493.476,289.914 493.476,299.902 L493.476,541.007 L368.401,541.007 L368.401,442.554 C368.401,433.318 360.704,425.244 351.399,425.244 L260.964,425.244 C251.016,425.244 243.004,433.317 243.004,442.554 L243.004,541.007 L118.244,541.007 L118.244,307.907 C118.244,298.601 110.554,290.871 100.606,290.871 C91.308,290.871 83.611,298.601 83.611,307.907 L83.611,558.659 C83.611,567.964 91.308,575.695 100.606,575.695 L260.964,575.695 C270.262,575.695 277.959,567.964 277.959,558.659 L277.959,460.205 L333.76,460.205 L333.76,558.659 C333.76,567.964 341.457,575.695 351.399,575.695 L511.114,575.695 C520.413,575.695 528.109,567.964 528.109,558.659 L528.109,299.903 C528.109,289.915 520.413,282.251 511.114,282.251 Z" id="Shape"></path>
            <path d="M607.003,296.003 L467.819,156.225 L467.819,60.919 C467.819,50.998 459.8,43.336 449.859,43.336 C440.554,43.336 432.858,50.999 432.858,60.919 L432.858,121.264 L318.046,5.774 C314.528,2.216 310.349,0.3 306.182,0.3 C301.372,0.3 297.199,2.284 293.675,5.774 L5.361,294.087 C-1.556,300.997 -2.014,312.081 5.361,318.444 C11.772,325.833 22.815,325.354 29.732,318.444 L306.182,42.651 L581.989,321.044 C584.862,323.918 589.043,325.56 594.496,325.56 C599.306,325.56 603.472,323.918 607.003,321.044 C613.42,314.613 613.899,302.982 607.003,296.003 Z" id="Shape"></path>
        </g>
    </g>
</svg>