<?xml version="1.0" encoding="UTF-8"?>
<svg width="23px" height="21px" viewBox="0 0 23 21" version="1.1" xmlns="http://www.w3.org/2000/svg" xmlns:xlink="http://www.w3.org/1999/xlink">
    <!-- Generator: Sketch Beta 40.1 (33801) - http://www.bohemiancoding.com/sketch -->
    <title>Page 1</title>
    <desc>Created with Sketch Beta.</desc>
    <defs></defs>
    <g id="Page-1" stroke="none" stroke-width="1" fill="none" fill-rule="evenodd">
        <g id="design_home_dashboard_ultimate_without_progress_level" transform="translate(-141.000000, -623.000000)" fill="#BE8633">
            <g id="Group-2" transform="translate(30.000000, 616.000000)">
                <g id="Page-1" transform="translate(111.000000, 7.000000)">
                    <path d="M14.9794978,8.3607931 C12.4849776,5.31124138 8.03638565,0 7.29388789,0 C7.29388789,0 6.25187444,0 6.25187444,1.04503448 C6.25187444,1.75365517 8.16211211,5.81131034 9.39513901,8.3607931 L4.80215247,8.3607931 C3.49476233,6.53596552 1.68106278,4.18034483 1.04201345,4.18034483 C1.04201345,4.18034483 0,4.18034483 0,5.22537931 C0,6.27051724 2.08392377,10.4509655 2.08392377,10.4509655 C2.08392377,10.4509655 0,14.6315172 0,15.6764483 C0,15.6764483 0,16.7216897 1.04201345,16.7216897 C1.68106278,16.7216897 3.49404036,14.3637931 4.80215247,12.5411379 L9.39513901,12.5411379 C8.16211211,15.0905172 6.25187444,19.1484828 6.25187444,19.857 C6.25187444,19.857 6.25187444,20.9020345 7.29388789,20.9020345 C8.03638565,20.9020345 12.4856996,15.5907931 14.9794978,12.5411379 L20.8395471,12.5411379 C21.9898565,12.5411379 22.923574,11.6062759 22.923574,10.4509655 C22.923574,9.29575862 21.9898565,8.3607931 20.8395471,8.3607931 L14.9794978,8.3607931 Z" id="Fill-1"></path>
                </g>
            </g>
        </g>
    </g>
</svg>