<?xml version="1.0" encoding="UTF-8"?>
<svg width="24px" height="23px" viewBox="0 0 24 23" version="1.1" xmlns="http://www.w3.org/2000/svg" xmlns:xlink="http://www.w3.org/1999/xlink">
    <!-- Generator: Sketch 44.1 (41455) - http://www.bohemiancoding.com/sketch -->
    <title>Fix</title>
    <desc>Created with Sketch.</desc>
    <defs></defs>
    <g id="Page-1" stroke="none" stroke-width="1" fill="none" fill-rule="evenodd">
        <g id="Profile_3_Two_Addresses" transform="translate(-193.000000, -1246.000000)" fill-rule="nonzero" fill="#050E39">
            <g id="Fix" transform="translate(193.000000, 1246.000000)">
                <g id="Phone" transform="translate(0.606742, 0.185488)">
                    <path d="M11.2680578,0.105327857 C8.25144703,0.105327857 5.52352276,0.532900561 3.50321027,1.25950515 C2.49305403,1.62280745 1.65728947,2.05839796 1.03832263,2.58635464 C0.419355795,3.11431133 6.42118737e-17,3.78042903 6.42118737e-17,4.53118883 L6.42118737e-17,8.248185 C3.19076179e-05,8.56939854 0.25872508,8.82978554 0.577849117,8.82981765 L3.83727929,8.82981765 L0.0541733547,16.7182105 C0.017254813,16.7978254 -0.00126643707,16.8848238 6.42118737e-17,16.9726748 L6.42118737e-17,21.4348878 C6.42118737e-17,22.1728342 0.612148218,22.7890013 1.34530498,22.7890013 L21.1908106,22.7890013 C21.9239674,22.7890013 22.5361156,22.1728342 22.5361156,21.4348878 L22.5361156,16.9726748 C22.537382,16.8848238 22.5188608,16.7978254 22.4819422,16.7182105 L18.6988363,8.82981765 L21.9582665,8.82981765 C22.2773905,8.82978554 22.5360837,8.56939854 22.5361156,8.248185 L22.5361156,4.53118883 C22.5361156,3.78042903 22.1167598,3.11431133 21.4977929,2.58635464 C20.8788261,2.05839796 20.0430615,1.62280745 19.0329053,1.25950515 C17.0125928,0.532900561 14.2846685,0.105327857 11.2680578,0.105327857 Z M11.2680578,1.26859316 C14.1738226,1.26859316 16.7914361,1.69588959 18.635634,2.35915439 C19.557733,2.69078679 20.2883189,3.08455209 20.7483949,3.47697964 C21.2084708,3.86940719 21.3804173,4.21745908 21.3804173,4.53118883 L21.3804173,7.66655235 L17.046549,7.66655235 L17.046549,6.89407148 C17.0466989,6.88787709 17.0464545,6.88208985 17.046549,6.87589546 C17.0644594,5.70476066 16.0924675,4.75838908 14.942817,4.75838908 L7.59329856,4.75838908 C6.44364809,4.75838908 5.47165647,5.70476066 5.48956661,6.87589546 C5.48966109,6.88208985 5.48941666,6.88787709 5.48956661,6.89407148 L5.48956661,7.66655235 L1.15569823,7.66655235 L1.15569823,4.53118883 C1.15569823,4.21745908 1.32764475,3.86940719 1.78772071,3.47697964 C2.24779666,3.08455209 2.97838257,2.69078679 3.90048154,2.35915439 C5.74467949,1.69588959 8.36229294,1.26859316 11.2680578,1.26859316 Z M7.59329856,5.92165439 L14.942817,5.92165439 C15.4791968,5.92165439 15.9035022,6.33482296 15.8908507,6.85771944 C15.8907567,6.86377774 15.8907567,6.86983716 15.8908507,6.87589546 L15.8908507,8.248185 C15.8908826,8.56939854 16.1495758,8.82978554 16.4686998,8.82981765 L17.4077047,8.82981765 L21.3804173,17.1089949 L21.3804173,21.4348878 C21.3804173,21.5485388 21.3037116,21.625736 21.1908106,21.625736 L1.34530498,21.625736 C1.23240395,21.625736 1.15569823,21.5485388 1.15569823,21.4348878 L1.15569823,17.1089949 L5.12841091,8.82981765 L6.06741573,8.82981765 C6.38653977,8.82978554 6.64523294,8.56939854 6.64526485,8.248185 L6.64526485,6.87589546 C6.64535889,6.86983716 6.64535889,6.86377774 6.64526485,6.85771944 C6.63261284,6.33482296 7.05691878,5.92165439 7.59329856,5.92165439 Z M11.2680578,9.41145031 C8.40266812,9.41145031 6.06741573,11.7619733 6.06741573,14.6461442 C6.06741573,17.530286 8.40266465,19.8808381 11.2680578,19.8808381 C14.1334509,19.8808381 16.4686998,17.530286 16.4686998,14.6461442 C16.4686998,11.7619733 14.1334474,9.41145031 11.2680578,9.41145031 Z M11.2680578,10.5747156 C13.5088636,10.5747156 15.3130016,12.39066 15.3130016,14.6461442 C15.3130016,16.9015993 13.5088602,18.7175728 11.2680578,18.7175728 C9.02725541,18.7175728 7.22311396,16.9015993 7.22311396,14.6461442 C7.22311396,12.39066 9.02725194,10.5747156 11.2680578,10.5747156 Z" id="Shape"></path>
                </g>
            </g>
        </g>
    </g>
</svg>