<?xml version="1.0" encoding="UTF-8" standalone="no"?>
<svg width="191px" height="120px" viewBox="0 0 191 120" version="1.1" xmlns="http://www.w3.org/2000/svg" xmlns:xlink="http://www.w3.org/1999/xlink">
    <!-- Generator: Sketch Beta 3.6 (26304) - http://www.bohemiancoding.com/sketch -->
    <title>Page 1</title>
    <desc>Created with Sketch Beta.</desc>
    <defs>
        <path id="path-1" d="M0,0.0542119565 L190.755193,0.0542119565 L190.755193,119.318182 L0,119.318182"></path>
    </defs>
    <g id="Page-1" stroke="none" stroke-width="1" fill="none" fill-rule="evenodd">
        <g id="ORC_Step_4_Confirmation_total" transform="translate(-271.000000, -190.000000)">
            <g id="Page-1" transform="translate(271.000000, 190.000000)">
                <path d="M29.1672494,37.1785079 C29.1672494,35.3360795 30.7493379,33.8793602 32.7500488,33.8793602 L33.5410931,33.8793602 C35.076981,33.8793602 36.146919,34.6077199 36.7985164,35.5933918 L45.4535208,48.57521 L54.1550075,35.5503335 C54.8995695,34.4365242 55.9230252,33.8793602 57.3656668,33.8793602 L58.1567111,33.8793602 C60.157422,33.8793602 61.7397922,35.3360795 61.7397922,37.1785079 L61.7397922,61.0001235 C61.7397922,62.8422925 60.157422,64.2992712 58.1567111,64.2992712 C56.2024824,64.2992712 54.6201122,62.7994936 54.6201122,61.0001235 L54.6201122,46.0472208 L48.3382406,54.9589921 C47.5936786,55.9874629 46.6631875,56.6299654 45.3602745,56.6299654 C44.0573615,56.6299654 43.1268704,55.9874629 42.3820267,54.9589921 L36.1934013,46.175877 L36.1934013,61.0857213 C36.1934013,62.8850914 34.6113128,64.2992712 32.6570842,64.2992712 C30.7025739,64.2992712 29.1672494,62.8850914 29.1672494,61.0857213 L29.1672494,37.1785079 Z" id="Fill-1" fill="#62B4E8"></path>
                <path d="M69.1363658,44.0763439 C69.1363658,42.2769738 70.7181726,40.8202544 72.6726829,40.8202544 C74.6269115,40.8202544 76.209,42.2769738 76.209,44.0763439 L76.209,61.0428706 C76.209,62.8425 74.6269115,64.2992194 72.6726829,64.2992194 C70.7181726,64.2992194 69.1363658,62.8425 69.1363658,61.0428706 L69.1363658,44.0763439 Z M68.7177434,35.5933399 C68.7177434,33.7078533 70.4392788,32.5512451 72.6726829,32.5512451 C74.906087,32.5512451 76.6279041,33.7078533 76.6279041,35.5933399 L76.6279041,35.6789377 C76.6279041,37.564165 74.906087,38.7638315 72.6726829,38.7638315 C70.4392788,38.7638315 68.7177434,37.564165 68.7177434,35.6789377 L68.7177434,35.5933399 Z" id="Fill-3" fill="#62B4E8"></path>
                <path d="M83.1877963,35.7645615 C83.1877963,33.9651915 84.7698848,32.5084721 86.7241134,32.5084721 C88.678342,32.5084721 90.2607122,33.9651915 90.2607122,35.7645615 L90.2607122,61.0428965 C90.2607122,62.8425259 88.678342,64.2992453 86.7241134,64.2992453 C84.7698848,64.2992453 83.1877963,62.8425259 83.1877963,61.0428965 L83.1877963,35.7645615 Z" id="Fill-5" fill="#62B4E8"></path>
                <path d="M113.292918,50.7601334 C112.874295,47.8469541 111.01275,45.8758696 108.034502,45.8758696 C105.1033,45.8758696 103.195272,47.8041551 102.636921,50.7601334 L113.292918,50.7601334 Z M108.732863,64.5564279 C101.241043,64.5564279 95.7034516,59.7147036 95.7034516,52.688419 L95.7034516,52.6025618 C95.7034516,46.0473246 100.775375,40.648955 108.034502,40.648955 C116.363848,40.648955 120.039894,46.9471393 120.039894,51.702747 C120.039894,53.5879743 118.597534,54.8304397 116.73627,54.8304397 L102.729885,54.8304397 C103.427965,57.7866774 105.661369,59.329254 108.825828,59.329254 C110.780056,59.329254 112.408627,58.7723493 113.851269,57.7866774 C114.363137,57.4440267 114.828242,57.2725716 115.573086,57.2725716 C117.154893,57.2725716 118.318077,58.3863809 118.318077,59.8433597 C118.318077,60.7001161 117.899455,61.342878 117.387586,61.7713859 C115.200382,63.4851581 112.361863,64.5564279 108.732863,64.5564279 L108.732863,64.5564279 Z" id="Fill-7" fill="#62B4E8"></path>
                <path d="M124.784441,61.8570356 C124.039879,61.4285277 123.435046,60.6573691 123.435046,59.6291576 C123.435046,58.1724382 124.644994,57.0583696 126.226801,57.0583696 C126.73867,57.0583696 127.25082,57.1867663 127.622679,57.4010203 C129.996093,58.7721418 132.369226,59.4577026 134.369937,59.4577026 C136.417412,59.4577026 137.348185,58.7721418 137.348185,57.7439303 L137.348185,57.6583325 C137.348185,56.2441527 134.928569,55.7731052 132.183015,55.0016873 C128.69318,54.059333 124.737959,52.5595553 124.737959,48.1040588 L124.737959,48.0179422 C124.737959,43.3481917 128.832627,40.7343454 133.85835,40.7343454 C136.464176,40.7343454 139.162966,41.3773666 141.582581,42.4911759 C142.606319,42.9624827 143.257634,43.8194985 143.257634,44.9333078 C143.257634,46.3900272 142.001204,47.5040958 140.419115,47.5040958 C139.907528,47.5040958 139.581589,47.4182386 139.116202,47.2042441 C137.115491,46.3044293 135.207463,45.7475247 133.718621,45.7475247 C131.997086,45.7475247 131.112795,46.4328261 131.112795,47.3326408 L131.112795,47.4182386 C131.112795,48.7037624 133.485928,49.3037253 136.184718,50.1602223 C139.674553,51.2314921 143.723303,52.7738093 143.723303,56.9727717 L143.723303,57.0583696 C143.723303,62.1568874 139.581589,64.4703631 134.184008,64.4703631 C131.112795,64.4703631 127.80889,63.6564056 124.784441,61.8570356" id="Fill-9" fill="#62B4E8"></path>
                <g id="Group-13">
                    <mask id="mask-2" fill="white">
                        <use xlink:href="#path-1"></use>
                    </mask>
                    <g id="Clip-12"></g>
                    <path d="M9.48684041,89.5008016 L9.48684041,10.8856831 C9.48684041,9.66267169 10.6252342,8.6144874 11.9529378,8.6144874 L158.998429,8.6144874 C160.326414,8.6144874 161.464808,9.66267169 161.464808,10.8856831 L161.464808,65.629643 C145.677447,65.6929335 132.851994,77.3101149 132.449992,91.7719973 L11.9529378,91.7719973 C10.6252342,91.7719973 9.48684041,90.723813 9.48684041,89.5008016 M170.951705,67.0399321 L170.951705,11.0605101 C170.761832,4.94597208 165.449045,0.0541860178 158.998429,0.0541860178 L11.9529378,0.0541860178 C5.50203953,0.0541860178 -5.63421823e-05,4.94597208 -5.63421823e-05,11.0605101 L-5.63421823e-05,89.6756287 C-5.63421823e-05,95.6150803 5.31244808,100.681693 11.9529378,100.681693 L133.831503,100.681693 C137.599386,111.491402 148.603578,119.318156 161.59355,119.318156 C177.70178,119.318156 190.755137,107.296071 190.755137,92.471565 C190.755137,80.6593244 182.467765,70.6288155 170.951705,67.0399321" id="Fill-11" fill="#62B4E8" mask="url(#mask-2)"></path>
                </g>
                <path d="M161.870444,108.625535 C164.061873,108.625535 165.831581,106.960268 165.831581,104.899954 L165.831581,95.8400729 L175.670334,95.8400729 C177.916415,95.8400729 179.725,94.2035981 179.725,92.1894553 C179.725,90.1714217 177.916415,88.5388377 175.670334,88.5388377 L165.831581,88.5388377 L165.831581,79.5253866 C165.831581,77.4754484 164.061873,75.8034375 161.870444,75.8034375 C159.686057,75.8034375 157.916631,77.4754484 157.916631,79.5253866 L157.908743,88.5349469 L148.077595,88.5349469 C145.831514,88.5349469 144.023494,90.1680497 144.023494,92.1858239 C144.023494,94.200226 145.831514,95.8364415 148.077595,95.8364415 L157.908743,95.8364415 L157.916631,104.896323 C157.916631,106.960268 159.686057,108.625535 161.870444,108.625535" id="Fill-14" fill="#FEFEFE"></path>
            </g>
        </g>
    </g>
</svg>