<?xml version="1.0" encoding="UTF-8"?>
<svg width="15px" height="19px" viewBox="0 0 15 19" version="1.1" xmlns="http://www.w3.org/2000/svg" xmlns:xlink="http://www.w3.org/1999/xlink">
    <!-- Generator: Sketch Beta 40.1 (33801) - http://www.bohemiancoding.com/sketch -->
    <title>Page 1</title>
    <desc>Created with Sketch Beta.</desc>
    <defs></defs>
    <g id="Page-1" stroke="none" stroke-width="1" fill="none" fill-rule="evenodd">
        <g id="design_home_dashboard_ultimate_without_progress_level" transform="translate(-270.000000, -640.000000)" fill="#BE8633">
            <g id="Group-2" transform="translate(30.000000, 616.000000)">
                <g id="Page-1" transform="translate(240.000000, 24.000000)">
                    <polygon id="Fill-1" points="0 19 4.39021472 19 4.39021472 4.11421924 0 4.11421924"></polygon>
                    <polygon id="Fill-2" points="2.19510736 19 14.9784049 19 14.9784049 4.11421924 2.19510736 4.11421924"></polygon>
                    <g id="Group-7" transform="translate(2.822086, 0.000000)">
                        <path d="M1.3132362,3.86192082 C1.3132362,2.60039874 1.84572086,1.34166372 3.03314417,1.34166372 C4.22056748,1.34166372 4.75283742,2.60039874 4.75283742,3.86192082 L6.04280675,3.86192082 C6.04280675,2.09578991 4.93256135,0.0814302839 3.03314417,0.0814302839 C1.1332362,0.0814302839 0.0235429448,2.09578991 0.0235429448,3.86192082 L1.3132362,3.86192082 Z" id="Fill-3"></path>
                        <path d="M6.04279448,1.28314132 C7.22865337,1.33813344 7.76270245,2.60040473 7.76270245,3.86192681 L9.05215031,3.86192681 C9.05215031,2.0957959 7.94193558,0.0231476341 6.04279448,0.0231476341 C6.04279448,0.0231476341 5.18254908,-0.00637129338 4.75282515,0.413456782 C4.75282515,0.413456782 5.15623006,0.703611356 5.5725184,1.34724385 C5.5725184,1.3474836 5.76052454,1.27004511 6.04279448,1.28314132" id="Fill-5"></path>
                    </g>
                </g>
            </g>
        </g>
    </g>
</svg>