<?xml version="1.0" encoding="UTF-8" standalone="no"?>
<svg width="26px" height="29px" viewBox="0 0 26 29" version="1.1" xmlns="http://www.w3.org/2000/svg" xmlns:xlink="http://www.w3.org/1999/xlink">
    <!-- Generator: Sketch Beta 3.6 (26265) - http://www.bohemiancoding.com/sketch -->
    <title>Group</title>
    <desc>Created with Sketch Beta.</desc>
    <defs></defs>
    <g id="Page-1" stroke="none" stroke-width="1" fill="none" fill-rule="evenodd">
        <g id="Group" transform="translate(1.000000, 0.000000)">
            <path d="M22.5300229,16.1362725 C22.3158352,15.8930647 22.0906636,15.8133031 21.9053089,15.7610003 C21.7144622,15.7126203 19.1620595,15.3216573 18.9821968,15.3190422 L16.0055378,14.8457024 C15.9464989,14.8483176 15.8119451,14.8103981 15.6993593,14.7293288 C15.5867735,14.6482596 15.5153776,14.5358087 15.5016476,14.4808908 L14.050389,11.6107781 C13.9913501,11.4159504 12.6746453,8.76550918 12.5387185,8.57460419 C12.4151487,8.40069758 12.1391762,8.1143401 11.642151,8.10126441 C11.1519908,8.11303253 10.8732723,8.39939002 10.7497025,8.57460419 C10.6124027,8.76812432 9.4728146,11.0668296 9.4165217,11.2603498 L7.78677346,14.4808908 C7.77304348,14.5358087 7.7002746,14.6482596 7.58768879,14.7293288 C7.47784897,14.8103981 7.34329519,14.8483176 7.28425629,14.8457024 L4.45038902,15.2968135 C4.20599542,15.3007362 1.462746,15.7178506 1.18951945,15.8276863 C1.05496568,15.8839118 0.89707094,15.9728264 0.75839817,16.1362725 C0.6183524,16.2944882 0.51949657,16.5403111 0.52773455,16.7599826 C0.53322654,17.1117185 0.69112128,17.3261597 0.81743707,17.4752225 C0.95336384,17.6282081 3.14741419,19.2979729 3.30530892,19.3999633 L5.39638444,20.9965043 C5.48837529,21.0318087 5.64627002,21.2985527 5.63254005,21.476382 C5.63254005,21.5195317 5.62704805,21.5561436 5.62018307,21.5809874 L5.12315789,24.418411 C5.06961098,24.5949327 4.45588101,26.7314995 4.45588101,26.9407105 C4.458627,27.1146171 4.48059497,27.342134 4.66457666,27.5984174 C4.84443936,27.8612386 5.24398169,28.0246847 5.51446224,28.0089939 C6.02933638,27.9828425 6.24489703,27.7893224 6.49615561,27.6049552 L11.4224714,24.9192097 C11.4622883,24.8839053 11.5652632,24.8420631 11.680595,24.8420631 C11.7931808,24.8420631 11.8892906,24.8799826 11.9291076,24.9139794 L17.1217849,27.6311066 C17.3757895,27.8102435 17.5872311,27.9933031 18.0897483,28.0194544 L18.1268192,28.0194544 C18.3863158,28.0194544 18.7487872,27.8716992 18.9259039,27.6206461 C19.1167506,27.3682853 19.1400915,27.1368457 19.1400915,26.9642467 C19.1400915,26.7406525 18.5318535,23.9176122 18.4645767,23.7267072 L17.7190389,21.5299923 C17.7080549,21.5038409 17.7025629,21.467229 17.7025629,21.4214641 C17.6902059,21.2540953 17.8316247,21.018733 17.9153776,20.9847362 L20.5748741,18.9501597 C20.7327689,18.8507845 22.3364302,17.6282081 22.470984,17.4752225 C22.6000458,17.3261597 22.7551945,17.1117185 22.7606865,16.7599826 C22.7689245,16.5403111 22.6700686,16.2944882 22.5300229,16.1362725 L22.5300229,16.1362725 L22.5300229,16.1362725 Z" id="Stroke-1" stroke="#FFFFFF" stroke-width="1.5"></path>
            <path d="M23.8279177,6.01543087 L22.3340962,7.37137934" id="Fill-3"></path>
            <path d="M23.8279177,6.01543087 L22.3340962,7.37137934" id="Stroke-5" stroke="#FFFFFF" stroke-width="1.5"></path>
            <path d="M0.02974828,6.01543087 L1.52356979,7.37137934" id="Fill-7"></path>
            <path d="M0.02974828,6.01543087 L1.52356979,7.37137934" id="Stroke-9" stroke="#FFFFFF" stroke-width="1.5"></path>
            <path d="M11.9604122,0.181191626 L11.9604122,2.14777456" id="Fill-11"></path>
            <path d="M11.9604122,0.181191626 L11.9604122,2.14777456" id="Stroke-13" stroke="#FFFFFF" stroke-width="1.5"></path>
        </g>
    </g>
</svg>