<?xml version="1.0" encoding="UTF-8"?>
<svg width="20px" height="20px" viewBox="0 0 20 20" version="1.1" xmlns="http://www.w3.org/2000/svg" xmlns:xlink="http://www.w3.org/1999/xlink">
    <!-- Generator: Sketch 45.1 (43504) - http://www.bohemiancoding.com/sketch -->
    <title>path1962</title>
    <desc>Created with Sketch.</desc>
    <defs></defs>
    <g id="Symbols" stroke="none" stroke-width="1" fill="none" fill-rule="evenodd">
        <g id="Rectangle-212-Copy-5" transform="translate(-17.000000, -19.000000)" fill="#050E39">
            <path d="M27.5050065,33.330945 C26.4497038,31.2969558 25.5698742,29.6160956 25.5498297,29.5956998 C25.5264275,29.5718887 24.9679225,30.1039506 23.9892321,31.0824108 C22.5594673,32.5118398 22.4651162,32.6144797 22.4656681,32.7398224 C22.4659909,32.8133123 22.524753,33.3538199 22.5962492,33.9409509 L22.7262422,35.0084611 L22.1084048,35.629014 L21.4905674,36.2495661 L20.7735856,34.8847063 L20.0566048,33.519847 L18.7072755,32.8153894 C17.9651448,32.4279381 17.3575703,32.1021534 17.3571106,32.091423 C17.3566507,32.0806927 17.6291384,31.7994499 17.9626385,31.4664385 L18.5690025,30.8609635 L19.7584125,31.0053251 L20.9478224,31.1496874 L22.4884139,29.6096651 C23.6897994,28.4087227 24.0172762,28.0612482 23.9757391,28.0315171 C23.9464433,28.0105483 22.2306001,27.1013334 20.1627541,26.0110397 L16.4030336,24.0286879 L17.1794701,23.2522519 L17.9559071,22.4758159 L22.5967607,23.7057002 L27.2376153,24.9355841 L29.359677,22.8177484 C30.8470737,21.3333143 31.5330504,20.6741786 31.6533038,20.6138693 C31.7640532,20.558326 31.9200121,20.5216102 32.0932794,20.5102902 C32.4341647,20.4880191 32.6878384,20.5876557 32.9134745,20.8324415 C33.1231489,21.0599111 33.191098,21.2314978 33.1901618,21.5311403 C33.1887165,21.9939591 33.2148875,21.9626501 30.8318789,24.3524184 L28.6838876,26.506502 L29.6117128,30.0902877 C30.1220166,32.0613695 30.6507425,34.1052805 30.7866587,34.6323112 L31.033779,35.5905489 L30.2618669,36.3617719 C29.688332,36.9347938 29.4814465,37.1196453 29.4568473,37.0810503 C29.4386381,37.0524813 28.5603096,35.3649335 27.5050065,33.330945 Z" id="path1962" transform="translate(24.796602, 28.796602) rotate(-315.000000) translate(-24.796602, -28.796602) "></path>
        </g>
    </g>
</svg>