<?xml version="1.0" encoding="UTF-8" standalone="no"?>
<svg width="17px" height="12px" viewBox="0 0 17 12" version="1.1" xmlns="http://www.w3.org/2000/svg" xmlns:xlink="http://www.w3.org/1999/xlink">
    <!-- Generator: Sketch Beta 3.8.3 (29801) - http://www.bohemiancoding.com/sketch -->
    <title>Shape</title>
    <desc>Created with Sketch Beta.</desc>
    <defs></defs>
    <g id="Page-1" stroke="none" stroke-width="1" fill="none" fill-rule="evenodd">
        <g id="b_pin_code_recovery_2-copy" transform="translate(-106.000000, -199.000000)" fill="#98BBE8">
            <path d="M121.785714,203.8 L110.128571,203.8 L112.933571,201.028 C113.172786,200.7916 113.285714,200.5096 113.285714,200.2 C113.285714,199.6096 112.792107,199 112.071429,199 C111.749036,199 111.467929,199.1158 111.233571,199.348 L106.401929,204.1228 C106.202786,204.3196 106,204.5626 106,205 C106,205.4374 106.169393,205.648 106.392214,205.8682 L111.233571,210.652 C111.467929,210.8842 111.749036,211 112.071429,211 C112.792714,211 113.285714,210.3904 113.285714,209.8 C113.285714,209.4904 113.172786,209.2084 112.933571,208.972 L110.128571,206.2 L121.785714,206.2 C122.456,206.2 123,205.6624 123,205 C123,204.3376 122.456,203.8 121.785714,203.8 L121.785714,203.8 Z" id="Shape" transform="translate(114.500000, 205.000000) scale(-1, 1) rotate(-180.000000) translate(-114.500000, -205.000000) "></path>
        </g>
    </g>
</svg>