<?xml version="1.0" encoding="UTF-8" standalone="no"?>
<svg width="19px" height="20px" viewBox="0 0 19 20" version="1.1" xmlns="http://www.w3.org/2000/svg" xmlns:xlink="http://www.w3.org/1999/xlink">
    <!-- Generator: Sketch Beta 3.6 (26265) - http://www.bohemiancoding.com/sketch -->
    <title>Path</title>
    <desc>Created with Sketch Beta.</desc>
    <defs></defs>
    <g id="DESIGNS--&gt;-UPDATES" stroke="none" stroke-width="1" fill="none" fill-rule="evenodd" stroke-linecap="round" stroke-linejoin="round">
        <g id="design_support_logged_in" transform="translate(-181.000000, -558.000000)" stroke="#050E39" stroke-width="1.5">
            <path d="M196.35396,564.600979 C196.35396,566.598907 195.309008,568.355964 193.740301,569.347598 C194.791832,569.747392 195.729357,570.345258 196.516074,571.090624 C198.01621,572.515802 198.936281,574.443507 199.107307,576.50306 L190.788831,576.50306 L182.470355,576.50306 C182.641381,574.443507 183.561452,572.515802 185.061589,571.090624 C185.850006,570.343646 186.789884,569.744808 187.844183,569.345009 C187.223262,568.905136 185.223703,567.644881 185.223703,564.600979 C185.223703,561.512739 187.720358,559 190.788831,559 C192.323068,559 193.71435,559.628185 194.722073,560.6424 C195.729796,561.656614 196.35396,563.056859 196.35396,564.600979 Z" id="Path"></path>
        </g>
    </g>
</svg>