<?xml version="1.0" encoding="UTF-8"?>
<svg width="120px" height="60px" viewBox="0 0 120 60" version="1.1" xmlns="http://www.w3.org/2000/svg" xmlns:xlink="http://www.w3.org/1999/xlink">
    <!-- Generator: Sketch Beta 43 (38917) - http://www.bohemiancoding.com/sketch -->
    <title>Group 5</title>
    <desc>Created with Sketch Beta.</desc>
    <defs></defs>
    <g id="Page-1" stroke="none" stroke-width="1" fill="none" fill-rule="evenodd">
        <g id="Group-5" fill-rule="nonzero">
            <g id="yes" fill="#B3B6C5">
                <path d="M50.7734579,8.70168224 C39.1727103,-2.90018692 20.2985047,-2.90018692 8.7,8.6988785 C-2.90074766,20.2979439 -2.89962617,39.1727103 8.7011215,50.7740187 C20.2985047,62.3725234 39.1727103,62.3725234 50.7723364,50.7717757 C62.3719626,39.1727103 62.3714019,20.2990654 50.7734579,8.70168224 L50.7734579,8.70168224 Z M47.5272897,47.5278505 C37.7175701,57.3375701 21.7553271,57.3386916 11.9450467,47.528972 C2.13308411,37.7175701 2.13420561,21.7536449 11.9450467,11.9439252 C21.7547664,2.13476636 37.7164486,2.13364486 47.5284112,11.9450467 C57.3381308,21.7547664 57.3370093,37.7186916 47.5272897,47.5278505 L47.5272897,47.5278505 Z M18.6392523,21.6846729 C18.6392523,19.7646729 20.1964486,18.2074766 22.1164486,18.2074766 C24.0358879,18.2074766 25.5930841,19.7641121 25.5930841,21.6846729 C25.5930841,23.6057944 24.0358879,25.1624299 22.1164486,25.1624299 C20.1964486,25.1624299 18.6392523,23.6057944 18.6392523,21.6846729 L18.6392523,21.6846729 Z M34.4057944,21.6846729 C34.4057944,19.7646729 35.9641121,18.2074766 37.8841121,18.2074766 C39.8035514,18.2074766 41.3607477,19.7641121 41.3607477,21.6846729 C41.3607477,23.6057944 39.8041121,25.1624299 37.8841121,25.1624299 C35.9641121,25.1624299 34.4057944,23.6057944 34.4057944,21.6846729 L34.4057944,21.6846729 Z M42.6263551,35.9259813 C40.4714019,40.9093458 35.4246729,44.1291589 29.7700935,44.1291589 C23.9938318,44.1291589 18.9173832,40.8930841 16.8370093,35.884486 C16.4803738,35.0271028 16.8869159,34.0424299 17.7454206,33.6857944 C17.9562617,33.5988785 18.1749533,33.5573832 18.3902804,33.5573832 C19.0497196,33.5573832 19.675514,33.9471028 19.9441121,34.5947664 C21.5013084,38.3439252 25.3581308,40.7652336 29.7700935,40.7652336 C34.082243,40.7652336 37.9166355,38.342243 39.5383178,34.5908411 C39.9072897,33.7379439 40.8975701,33.3448598 41.7499065,33.7143925 C42.602243,34.0839252 42.9953271,35.0736449 42.6263551,35.9259813 L42.6263551,35.9259813 Z" id="Shape"></path>
            </g>
            <g id="yes-copy" transform="translate(60.000000, 0.000000)" fill="#62B4E8">
                <path d="M50.7734579,8.70168224 C39.1727103,-2.90018692 20.2985047,-2.90018692 8.7,8.6988785 C-2.90074766,20.2979439 -2.89962617,39.1727103 8.7011215,50.7740187 C20.2985047,62.3725234 39.1727103,62.3725234 50.7723364,50.7717757 C62.3719626,39.1727103 62.3714019,20.2990654 50.7734579,8.70168224 L50.7734579,8.70168224 Z M47.5272897,47.5278505 C37.7175701,57.3375701 21.7553271,57.3386916 11.9450467,47.528972 C2.13308411,37.7175701 2.13420561,21.7536449 11.9450467,11.9439252 C21.7547664,2.13476636 37.7164486,2.13364486 47.5284112,11.9450467 C57.3381308,21.7547664 57.3370093,37.7186916 47.5272897,47.5278505 L47.5272897,47.5278505 Z M18.6392523,21.6846729 C18.6392523,19.7646729 20.1964486,18.2074766 22.1164486,18.2074766 C24.0358879,18.2074766 25.5930841,19.7641121 25.5930841,21.6846729 C25.5930841,23.6057944 24.0358879,25.1624299 22.1164486,25.1624299 C20.1964486,25.1624299 18.6392523,23.6057944 18.6392523,21.6846729 L18.6392523,21.6846729 Z M34.4057944,21.6846729 C34.4057944,19.7646729 35.9641121,18.2074766 37.8841121,18.2074766 C39.8035514,18.2074766 41.3607477,19.7641121 41.3607477,21.6846729 C41.3607477,23.6057944 39.8041121,25.1624299 37.8841121,25.1624299 C35.9641121,25.1624299 34.4057944,23.6057944 34.4057944,21.6846729 L34.4057944,21.6846729 Z M42.6263551,35.9259813 C40.4714019,40.9093458 35.4246729,44.1291589 29.7700935,44.1291589 C23.9938318,44.1291589 18.9173832,40.8930841 16.8370093,35.884486 C16.4803738,35.0271028 16.8869159,34.0424299 17.7454206,33.6857944 C17.9562617,33.5988785 18.1749533,33.5573832 18.3902804,33.5573832 C19.0497196,33.5573832 19.675514,33.9471028 19.9441121,34.5947664 C21.5013084,38.3439252 25.3581308,40.7652336 29.7700935,40.7652336 C34.082243,40.7652336 37.9166355,38.342243 39.5383178,34.5908411 C39.9072897,33.7379439 40.8975701,33.3448598 41.7499065,33.7143925 C42.602243,34.0839252 42.9953271,35.0736449 42.6263551,35.9259813 L42.6263551,35.9259813 Z" id="Shape"></path>
            </g>
        </g>
    </g>
</svg>