<?xml version="1.0" encoding="UTF-8"?>
<svg width="40px" height="32px" viewBox="0 0 40 32" version="1.1" xmlns="http://www.w3.org/2000/svg" xmlns:xlink="http://www.w3.org/1999/xlink">
    <!-- Generator: Sketch 44.1 (41455) - http://www.bohemiancoding.com/sketch -->
    <title>Home</title>
    <desc>Created with Sketch.</desc>
    <defs></defs>
    <g id="Page-1" stroke="none" stroke-width="1" fill="none" fill-rule="evenodd">
        <g id="Profile_1_Two_Addresses" transform="translate(-194.000000, -903.000000)" fill-rule="nonzero" fill="#050E39">
            <g id="Home" transform="translate(194.000000, 903.000000)">
                <g id="Group" transform="translate(0.000000, 0.314577)">
                    <path d="M27.4982525,0.178614742 C27.1577925,0.194890557 27.0305125,0.444063424 26.9982525,0.671821264 L26.9982525,5.48058485 L20.3107525,0.271090965 C20.0596275,0.120150041 19.7909225,0.207713927 19.6857525,0.271090965 L0.6857525,15.067262 C0.4829275,15.2036336 0.4283575,15.5704313 0.5920025,15.7762463 C0.7556525,15.9820614 1.1021375,16.0148103 1.3107525,15.8533345 L19.9982525,1.30374212 L38.6857525,15.8533345 C38.8943675,16.0148103 39.2408525,15.9820614 39.4045025,15.7762463 C39.5681465,15.5704313 39.5254915,15.1988001 39.3107525,15.067262 L31.9982525,9.01883688 L31.9982525,0.671821264 C31.9982275,0.413588193 31.7600425,0.178639402 31.4982525,0.178614742 L27.4982525,0.178614742 Z M27.9982525,1.16502779 L30.9982525,1.16502779 L30.9982525,8.59393129 L27.9982525,6.25120031 L27.9982525,1.16502779 Z M6.9982525,12.103134 L5.9982525,13.325656 L5.9982525,30.2642372 C5.99828011,30.5366164 6.22212156,30.7574165 6.4982525,30.7574438 L15.9982525,30.7574438 C16.2743834,30.7574165 16.4982249,30.5366164 16.4982525,30.2642372 L16.4982525,20.893264 L23.4982525,20.893264 L23.4982525,30.2642372 C23.4982801,30.5366164 23.7221216,30.7574165 23.9982525,30.7574438 L33.4982525,30.7574438 C33.7743834,30.7574165 33.9982249,30.5366164 33.9982525,30.2642372 L33.9982525,13.325656 L32.9982525,12.103134 L32.9982525,29.7710307 L24.4982525,29.7710307 L24.4982525,20.4000575 C24.4982249,20.1276783 24.2743834,19.9068782 23.9982525,19.906851 L15.9982525,19.906851 C15.7221216,19.9068782 15.4982801,20.1276783 15.4982525,20.4000575 L15.4982525,29.7710307 L6.9982525,29.7710307 L6.9982525,12.5550208 L6.9982525,12.103134 Z" id="Icon"></path>
                </g>
            </g>
        </g>
    </g>
</svg>