<?xml version="1.0" encoding="UTF-8" standalone="no"?>
<svg width="278px" height="171px" viewBox="0 0 278 171" version="1.1" xmlns="http://www.w3.org/2000/svg" xmlns:xlink="http://www.w3.org/1999/xlink">
    <!-- Generator: Sketch Beta 39 (31443) - http://www.bohemiancoding.com/sketch -->
    <title>Group 2</title>
    <desc>Created with Sketch Beta.</desc>
    <defs>
        <polygon id="path-1" points="0 0.037173913 277.764712 0.037173913 277.764712 171 0 171"></polygon>
    </defs>
    <g id="Page-1" stroke="none" stroke-width="1" fill="none" fill-rule="evenodd">
        <g id="Group-2">
            <g id="Page-1">
                <g id="Group-3">
                    <mask id="mask-2" fill="white">
                        <use xlink:href="#path-1"></use>
                    </mask>
                    <g id="Clip-2"></g>
                    <path d="M16.6311439,11.9326774 C14.0714458,11.9326774 11.9890685,13.99806 11.9890685,16.5377817 L11.9890685,154.499095 C11.9890685,157.038817 14.0714458,159.104199 16.6311439,159.104199 L261.134767,159.104199 C263.693715,159.104199 265.775343,157.038817 265.775343,154.499095 L265.775343,16.5377817 C265.775343,13.99806 263.693715,11.9326774 261.134767,11.9326774 L16.6311439,11.9326774 Z M261.134767,170.999851 L16.6311439,170.999851 C7.46089057,170.999851 -0.000149865229,163.597782 -0.000149865229,154.499095 L-0.000149865229,16.5377817 C-0.000149865229,7.43909478 7.46089057,0.0370252174 16.6311439,0.0370252174 L261.134767,0.0370252174 C270.304271,0.0370252174 277.764562,7.43909478 277.764562,16.5377817 L277.764562,154.499095 C277.764562,163.597782 270.304271,170.999851 261.134767,170.999851 L261.134767,170.999851 Z" id="Fill-1" fill="#050E39" mask="url(#mask-2)"></path>
                </g>
                <path d="M52.5161482,66.5872761 C52.5161482,63.3880891 55.0653558,60.8587761 58.2897062,60.8587761 L59.56431,60.8587761 C62.0385849,60.8587761 63.7635337,62.1234326 64.8125903,63.8349196 L78.7590485,86.3756935 L92.7804394,63.7598283 C93.9801105,61.8260413 95.6301267,60.8587761 97.9545364,60.8587761 L99.2291402,60.8587761 C102.453491,60.8587761 105.002698,63.3880891 105.002698,66.5872761 L105.002698,107.950689 C105.002698,111.149876 102.453491,113.679189 99.2291402,113.679189 C96.0797224,113.679189 93.5297655,111.075528 93.5297655,107.950689 L93.5297655,81.9869413 L83.4086173,97.4609543 C82.2081968,99.2467891 80.7087951,100.36275 78.6091833,100.36275 C76.5103208,100.36275 75.0109191,99.2467891 73.8104987,97.4609543 L63.837717,82.2099848 L63.837717,108.099385 C63.837717,111.224224 61.2885094,113.679189 58.139841,113.679189 C54.9911725,113.679189 52.5161482,111.224224 52.5161482,108.099385 L52.5161482,66.5872761 Z" id="Fill-4" fill="#050E39"></path>
                <path d="M116.921555,78.5642648 C116.921555,75.4401691 119.470762,72.9108561 122.619431,72.9108561 C125.768849,72.9108561 128.318056,75.4401691 128.318056,78.5642648 L128.318056,108.025334 C128.318056,111.14943 125.768849,113.678743 122.619431,113.678743 C119.470762,113.678743 116.921555,111.14943 116.921555,108.025334 L116.921555,78.5642648 Z M116.247161,63.8344735 C116.247161,60.5609387 119.020417,58.5528039 122.619431,58.5528039 C126.218444,58.5528039 128.99245,60.5609387 128.99245,63.8344735 L128.99245,63.9831691 C128.99245,67.2567039 126.218444,69.33993 122.619431,69.33993 C119.020417,69.33993 116.247161,67.2567039 116.247161,63.9831691 L116.247161,63.8344735 Z" id="Fill-6" fill="#050E39"></path>
                <path d="M139.563793,64.1317904 C139.563793,61.0076948 142.112251,58.4783817 145.261669,58.4783817 C148.411087,58.4783817 150.960294,61.0076948 150.960294,64.1317904 L150.960294,108.02526 C150.960294,111.149356 148.411087,113.679412 145.261669,113.679412 C142.112251,113.679412 139.563793,111.149356 139.563793,108.02526 L139.563793,64.1317904 Z" id="Fill-8" fill="#050E39"></path>
                <path d="M188.073894,90.1701835 C187.3995,85.1115574 184.399948,81.689327 179.600514,81.689327 C174.877511,81.689327 171.803026,85.0372096 170.903835,90.1701835 L188.073894,90.1701835 Z M180.725252,114.125797 C168.654357,114.125797 159.731382,105.718544 159.731382,93.5180661 L159.731382,93.3693704 C159.731382,81.9867183 167.903533,72.6129443 179.600514,72.6129443 C193.022444,72.6129443 198.945867,83.5495096 198.945867,91.8065791 C198.945867,95.0801139 196.621457,97.2384313 193.621905,97.2384313 L171.05295,97.2384313 C172.177689,102.370662 175.777452,105.049414 180.876616,105.049414 C184.025285,105.049414 186.650174,104.082149 188.973835,102.370662 C189.798843,101.775879 190.547419,101.478488 191.747091,101.478488 C194.297047,101.478488 196.171861,103.413018 196.171861,105.942331 C196.171861,107.430031 195.496719,108.545992 194.67246,109.290214 C191.148379,112.265614 186.573743,114.125797 180.725252,114.125797 L180.725252,114.125797 Z" id="Fill-10" fill="#050E39"></path>
                <path d="M206.591167,109.43891 C205.390746,108.694688 204.417371,107.355683 204.417371,105.570592 C204.417371,103.041279 206.365619,101.106749 208.915576,101.106749 C209.739835,101.106749 210.565592,101.329792 211.165053,101.701531 C214.988865,104.082149 218.812676,105.272457 222.037026,105.272457 C225.336309,105.272457 226.835711,104.082149 226.835711,102.297057 L226.835711,102.147618 C226.835711,99.692653 222.936218,98.874827 218.512946,97.5350791 C212.889253,95.8986835 206.516234,93.2942791 206.516234,85.5576443 L206.516234,85.4089487 C206.516234,77.2998313 213.1148,72.76164 221.212768,72.76164 C225.411242,72.76164 229.760331,73.8783443 233.659075,75.8121313 C235.308342,76.6307009 236.358897,78.1184009 236.358897,80.0529313 C236.358897,82.5822443 234.333468,84.5167748 231.784261,84.5167748 C230.960002,84.5167748 230.434725,84.3673357 229.684649,83.9955965 C226.461048,82.4335487 223.386563,81.4662835 220.98797,81.4662835 C218.213215,81.4662835 216.787997,82.6565922 216.787997,84.21864 L216.787997,84.3673357 C216.787997,86.5992574 220.612557,87.6416139 224.961646,89.1285704 C230.585339,90.988753 237.108223,93.6667617 237.108223,100.958053 L237.108223,101.106749 C237.108223,109.959344 230.434725,113.977101 221.737296,113.977101 C216.787997,113.977101 211.464784,112.563005 206.591167,109.43891" id="Fill-12" fill="#050E39"></path>
            </g>
        </g>
    </g>
</svg>