<?xml version="1.0" encoding="UTF-8" standalone="no"?>
<svg width="92px" height="56px" viewBox="0 0 92 56" version="1.1" xmlns="http://www.w3.org/2000/svg" xmlns:xlink="http://www.w3.org/1999/xlink">
    <!-- Generator: Sketch Beta 3.6 (26304) - http://www.bohemiancoding.com/sketch -->
    <title>icon-laptop</title>
    <desc>Created with Sketch Beta.</desc>
    <defs></defs>
    <g id="Page-1" stroke="none" stroke-width="1" fill="none" fill-rule="evenodd">
        <g id="ORC_landing_2" transform="translate(-624.000000, -734.000000)">
            <g id="icon-laptop" transform="translate(625.594595, 735.500000)">
                <g id="XMLID_666_">
                    <path d="M83.7972973,53 L5.01351351,53 C2.25608108,53 0,50.7439189 0,47.9864865 L0,47.2702703 C0,46.4824324 0.644594595,45.8378378 1.43243243,45.8378378 L87.3783784,45.8378378 C88.1697973,45.8378378 88.8108108,46.4788514 88.8108108,47.2702703 L88.8108108,47.9864865 C88.8108108,50.7439189 86.5547297,53 83.7972973,53 L83.7972973,53 Z" id="XMLID_679_" stroke="#000000" stroke-width="2.5"></path>
                    <path d="M78.7837838,45.8378378 L10.027027,45.8378378 L10.027027,4.2972973 C10.027027,1.93378378 11.9608108,0 14.3243243,0 L74.4864865,0 C76.85,0 78.7837838,1.93378378 78.7837838,4.2972973 L78.7837838,45.8378378 L78.7837838,45.8378378 Z" id="XMLID_678_" stroke="#000000" stroke-width="2"></path>
                    <path d="M15.7567568,5.72972973 L15.7567568,45.8378378 L73.0540541,45.8378378 L73.0540541,5.72972973 L15.7567568,5.72972973 L15.7567568,5.72972973 Z M65.8918919,38.6756757 L40.1081081,38.6756757 L40.1081081,32.9459459 L22.9189189,32.9459459 L22.9189189,12.8918919 L48.7027027,12.8918919 L48.7027027,18.6216216 L65.8918919,18.6216216 L65.8918919,38.6756757 L65.8918919,38.6756757 Z" id="XMLID_671_" fill="#62B4E8" opacity="0.1"></path>
                    <path d="M48.7027027,18.6216216 L48.7027027,12.8918919 L22.9189189,12.8918919 L22.9189189,32.9459459 L40.1081081,32.9459459" id="XMLID_670_" stroke="#000000" stroke-width="2"></path>
                    <rect id="XMLID_669_" stroke="#000000" stroke-width="2" x="40.1081081" y="18.6216216" width="25.7837838" height="20.0540541"></rect>
                    <rect id="XMLID_668_" stroke="#000000" stroke-width="2" x="15.7567568" y="5.72972973" width="57.2972973" height="40.1081081"></rect>
                </g>
            </g>
        </g>
    </g>
</svg>