<?xml version="1.0" encoding="UTF-8"?>
<svg width="18px" height="17px" viewBox="0 0 18 17" version="1.1" xmlns="http://www.w3.org/2000/svg" xmlns:xlink="http://www.w3.org/1999/xlink">
    <!-- Generator: Sketch 44.1 (41455) - http://www.bohemiancoding.com/sketch -->
    <title>Page 1</title>
    <desc>Created with Sketch.</desc>
    <defs></defs>
    <g id="Page-1" stroke="none" stroke-width="1" fill="none" fill-rule="evenodd">
        <g id="Profile_1_Two_Addresses" transform="translate(-597.000000, -1304.000000)" fill="#62B4E8">
            <g id="Page-1" transform="translate(597.000000, 1304.000000)">
                <path d="M3.59269714,12.06105 L2.71532571,14.36455 L5.22401143,13.61455 L5.69612571,13.15005 L15.1240114,3.98405 L13.5091543,2.41405 L3.59269714,12.06105 Z M1.02846857,16.91555 C0.75024,16.91555 0.478182857,16.80555 0.281211429,16.60255 C0.01224,16.32605 -0.0715885714,15.92555 0.0641828571,15.56855 L1.74024,11.16455 C1.79115429,11.03105 1.87035429,10.91005 1.97321143,10.80905 L2.62686857,10.16555 L12.7819543,0.29305 C13.1830971,-0.09745 13.8346971,-0.09745 14.2363543,0.29305 L17.3061257,3.27705 C17.4989829,3.46455 17.6074971,3.71855 17.6074971,3.98405 C17.6074971,4.24905 17.4989829,4.50355 17.3061257,4.69105 L6.50664,15.19855 C6.38732571,15.31655 6.23921143,15.40405 6.07669714,15.45255 L1.33086857,16.87155 C1.23161143,16.90105 1.12926857,16.91555 1.02846857,16.91555 L1.02846857,16.91555 Z" id="Fill-1"></path>
                <path d="M6.58676571,13.77055 C6.45510857,13.77055 6.32345143,13.72155 6.22316571,13.62405 L3.15596571,10.64155 C2.95488,10.44655 2.95488,10.13005 3.15596571,9.93455 C3.35653714,9.73905 3.68208,9.73905 3.88316571,9.93455 L6.95036571,12.91705 C7.15145143,13.11255 7.15145143,13.42855 6.95036571,13.62405 C6.85008,13.72155 6.71842286,13.77055 6.58676571,13.77055" id="Fill-3"></path>
                <path d="M16.8046971,16.91555 L1.53144,16.91555 C0.963668571,16.91555 0.502868571,16.46755 0.502868571,15.91555 C0.502868571,15.36355 0.963668571,14.91555 1.53144,14.91555 L16.8046971,14.91555 C17.3724686,14.91555 17.8332686,15.36355 17.8332686,15.91555 C17.8332686,16.46755 17.3724686,16.91555 16.8046971,16.91555" id="Fill-5"></path>
            </g>
        </g>
    </g>
</svg>