<?xml version="1.0" encoding="UTF-8" standalone="no"?>
<svg width="175px" height="224px" viewBox="0 0 175 224" version="1.1" xmlns="http://www.w3.org/2000/svg" xmlns:xlink="http://www.w3.org/1999/xlink">
    <!-- Generator: Sketch Beta 3.6 (26304) - http://www.bohemiancoding.com/sketch -->
    <title>Plane_Window</title>
    <desc>Created with Sketch Beta.</desc>
    <defs></defs>
    <g id="Page-1" stroke="none" stroke-width="1" fill="none" fill-rule="evenodd">
        <g id="ORC_Flight_Not_Valid" transform="translate(-425.000000, -176.000000)">
            <g id="Plane_Window" transform="translate(428.000000, 179.000000)">
                <g id="XMLID_1158_">
                    <g id="XMLID_1164_" transform="translate(84.798033, 115.546767)" fill="#62B4E8">
                        <path d="M63.4806631,7.00283439 C63.6522514,7.00283439 64.1302473,7.05010352 64.7833333,7.12538399 L64.7833333,22.7592118 C64.7833333,38.4070452 58.5203608,52.6122948 48.3808937,63.0255095 L22.2679577,63.0255095 C13.8373698,63.0255095 7.0036036,55.8633606 7.0036036,47.2691321 C7.0036036,38.6749036 13.8373698,31.5127548 22.2679577,31.5127548 L25.4580991,31.5127548 C25.3740559,31.5127548 25.3215288,30.6829189 25.3215288,30.1507035 C25.3215288,24.9948666 29.4221387,21.0085032 34.4804914,21.0085032 C36.8161932,21.0085032 38.9417869,21.9083674 40.5596194,23.3754612 C43.9773779,13.8305979 52.9349869,7.00283439 63.4806631,7.00283439 L63.4806631,7.00283439 Z M63.4806631,0 C52.8526946,0 43.0686604,5.51473208 37.3274563,14.2612722 C36.3942261,14.0932042 35.441736,14.0056688 34.4787405,14.0056688 C27.4751369,14.0056688 21.4958104,18.4787292 19.258159,24.716504 C8.39732072,26.2221134 0,35.7617245 0,47.2691321 C0,59.8182114 9.98888964,70.0283439 22.2679577,70.0283439 L48.3808937,70.0283439 L51.3364144,70.0283439 L53.3989757,67.9099865 C65.2560766,55.7320575 71.7869369,39.6973175 71.7869369,22.7592118 L71.7869369,7.12538399 L71.7869369,0.880606425 L65.583495,0.168068025 C64.4734239,0.0402662977 63.9639117,0 63.4806631,0 L63.4806631,0 L63.4806631,0 Z" id="XMLID_22_"></path>
                    </g>
                    <path d="M89.2959459,0.912133891 L78.7905405,0.912133891 C35.4557432,0.912133891 0,36.363983 0,79.6940208 L0,139.218113 C0,182.548151 35.4557432,218 78.7905405,218 L89.2959459,218 C132.630743,218 168.086486,182.548151 168.086486,139.218113 L168.086486,79.6940208 C168.086486,36.363983 132.630743,0.912133891 89.2959459,0.912133891 L89.2959459,0.912133891 Z M150.577477,139.218113 C150.577477,173.005038 123.086582,200.492914 89.2959459,200.492914 L78.7905405,200.492914 C44.9999041,200.492914 17.509009,173.005038 17.509009,139.218113 L17.509009,79.6940208 C17.509009,45.9070956 44.9999041,18.4192199 78.7905405,18.4192199 L89.2959459,18.4192199 C123.086582,18.4192199 150.577477,45.9070956 150.577477,79.6940208 L150.577477,139.218113 L150.577477,139.218113 Z" id="XMLID_1167_" fill="#EAEAEA"></path>
                    <path d="M20.1734234,72 L149.74009,72" id="XMLID_1166_" stroke="#696E88" stroke-width="6"></path>
                    <path d="M67.4477477,55 L102.465766,55" id="XMLID_1165_" stroke="#696E88" stroke-width="6"></path>
                    <g id="XMLID_1163_" transform="translate(34.180631, 87.535430)" fill="#62B4E8">
                        <path d="M33.781882,7.00283439 C39.6981761,7.00283439 44.4938937,12.0186145 44.4938937,18.2073694 C48.9306766,18.2073694 52.527027,21.9696422 52.527027,26.6107707 C52.527027,31.2518992 48.9306766,35.014172 44.4938937,35.014172 L15.0367369,35.014172 C10.5999541,35.014172 7.0036036,31.2518992 7.0036036,26.6107707 C7.0036036,21.9696422 10.5999541,18.2073694 15.0367369,18.2073694 C15.0367369,15.1138673 17.4337203,12.6051019 20.3927428,12.6051019 C21.7251784,12.6051019 22.9297982,13.1338159 23.8665302,13.9759067 C25.4633518,9.88625145 29.2995757,7.00283439 33.781882,7.00283439 L33.781882,7.00283439 Z M33.781882,0 C28.8198288,0 24.241223,2.08684465 20.9705401,5.61627318 C20.777941,5.60751964 20.5853419,5.60226751 20.3927428,5.60226751 C15.6705631,5.60226751 11.5594477,8.31586584 9.47937748,12.2952265 C3.93077252,14.5641448 0,20.126146 0,26.6107707 C0,35.1052088 6.74622117,42.0170063 15.0367369,42.0170063 L44.4921428,42.0170063 C52.7844095,42.0170063 59.5306306,35.1052088 59.5306306,26.6107707 C59.5306306,20.3502367 55.865995,14.9493007 50.618545,12.5420764 C48.2950995,5.26788217 41.625918,0 33.781882,0 L33.781882,0 L33.781882,0 Z" id="XMLID_18_"></path>
                    </g>
                    <path d="M90.2094595,217.087866 L79.7040541,217.087866 C36.3692568,217.087866 0.913513514,181.636017 0.913513514,138.305979 L0.913513514,78.7818869 C0.913513514,35.4518491 36.3692568,0 79.7040541,0 L90.2094595,0 C133.544257,0 169,35.4518491 169,78.7818869 L169,138.305979 C169,181.636017 133.544257,217.087866 90.2094595,217.087866 L90.2094595,217.087866 Z" id="XMLID_1162_" stroke="#696E88" stroke-width="6"></path>
                    <g id="XMLID_1159_" transform="translate(18.683417, 18.661479)" stroke="#696E88" stroke-width="6">
                        <path d="M61.2815315,0 C27.490895,0 0,27.4878757 0,61.2748009 L0,120.798893 C0,154.585818 27.490895,182.073694 61.2815315,182.073694 L71.7869369,182.073694 C105.577573,182.073694 133.068468,154.585818 133.068468,120.798893 L133.068468,61.2748009 C133.068468,27.4878757 105.577573,0 71.7869369,0 L61.2815315,0 L61.2815315,0 Z" id="XMLID_1160_"></path>
                    </g>
                </g>
            </g>
        </g>
    </g>
</svg>