<?xml version="1.0" encoding="UTF-8" standalone="no"?>
<svg width="27px" height="23px" viewBox="0 0 27 23" version="1.1" xmlns="http://www.w3.org/2000/svg" xmlns:xlink="http://www.w3.org/1999/xlink">
    <!-- Generator: Sketch Beta 3.6 (26265) - http://www.bohemiancoding.com/sketch -->
    <title>twtter bloc</title>
    <desc>Created with Sketch Beta.</desc>
    <defs></defs>
    <g id="DESIGNS--&gt;-UPDATES" stroke="none" stroke-width="1" fill="none" fill-rule="evenodd">
        <g id="design_support_logged_contact_form" transform="translate(-513.000000, -1102.000000)" fill="#050E39">
            <g id="twtter-bloc" transform="translate(513.000000, 1102.000000)">
                <path d="M26.3549453,2.71153571 C25.3796016,3.17975 24.3430922,3.48203571 23.2445906,3.6225 C24.3637563,2.90621429 25.2233813,1.77839286 25.63005,0.427142857 C24.5827953,1.08592857 23.4239547,1.55825 22.1890703,1.83342857 C21.2062875,0.703964286 19.7961719,0 18.2447141,0 C15.2591703,0 12.8381688,2.5875 12.8381688,5.78614286 C12.8381688,6.23546429 12.8852828,6.67985714 12.9753781,7.09796429 C8.48962344,6.86796429 4.49980625,4.55564286 1.8316625,1.06210714 C1.36796094,1.91392857 1.10263437,2.90621429 1.10263437,3.96996429 C1.10263437,5.97260714 2.05566094,7.75428571 3.50875781,8.77614286 C2.62102969,8.74 1.78702813,8.49439286 1.05882656,8.05657143 L1.05882656,8.13625 C1.05882656,10.9332143 2.922725,13.2685357 5.3958,13.8082143 C4.94284375,13.9396429 4.46426406,13.9996071 3.9675,13.9996071 C3.62034375,13.9996071 3.29054531,13.9757857 2.95661406,13.8969286 C3.64183438,16.2035 5.6404625,17.8783929 8.00608438,17.9128929 C6.15541094,19.4719643 3.82450469,20.3886786 1.29109063,20.3886786 C0.8530125,20.3886786 0.421546875,20.3632143 0,20.3073571 C2.39207188,21.9567857 5.22883438,22.9170357 8.28876875,22.9170357 C18.2331422,22.9170357 23.6744031,14.0998214 23.6744031,6.45560714 C23.6744031,6.21164286 23.6686172,5.96357143 23.6562188,5.7155 C24.7117391,4.88914286 25.63005,3.86892857 26.3549453,2.71153571" id="Fill-1"></path>
            </g>
        </g>
    </g>
</svg>