<?xml version="1.0" encoding="UTF-8" standalone="no"?>
<svg width="39px" height="24px" viewBox="0 0 39 24" version="1.1" xmlns="http://www.w3.org/2000/svg" xmlns:xlink="http://www.w3.org/1999/xlink">
    <!-- Generator: Sketch Beta 3.6 (26265) - http://www.bohemiancoding.com/sketch -->
    <title>Group</title>
    <desc>Created with Sketch Beta.</desc>
    <defs>
        <path id="path-1" d="M0,0.0052173913 L38.9669919,0.0052173913 L38.9669919,24 L0,24 L0,0.0052173913 L0,0.0052173913 Z"></path>
    </defs>
    <g id="Page-1" stroke="none" stroke-width="1" fill="none" fill-rule="evenodd">
        <g id="Group">
            <mask id="mask-2" fill="white">
                <use xlink:href="#path-1"></use>
            </mask>
            <g id="path-1"></g>
            <path d="M2.33314609,1.67476174 C1.97405175,1.67476174 1.68191968,1.96464 1.68191968,2.32109217 L1.68191968,21.6840835 C1.68191968,22.0405357 1.97405175,22.3304139 2.33314609,22.3304139 L36.634014,22.3304139 C36.9930032,22.3304139 37.2850302,22.0405357 37.2850302,21.6840835 L37.2850302,2.32109217 C37.2850302,1.96464 36.9930032,1.67476174 36.634014,1.67476174 L2.33314609,1.67476174 L2.33314609,1.67476174 Z M36.634014,23.9999791 L2.33314609,23.9999791 C1.0466717,23.9999791 -2.10242588e-05,22.9610922 -2.10242588e-05,21.6840835 L-2.10242588e-05,2.32109217 C-2.10242588e-05,1.04408348 1.0466717,0.00519652174 2.33314609,0.00519652174 L36.634014,0.00519652174 C37.9203833,0.00519652174 38.9669709,1.04408348 38.9669709,2.32109217 L38.9669709,21.6840835 C38.9669709,22.9610922 37.9203833,23.9999791 36.634014,23.9999791 L36.634014,23.9999791 L36.634014,23.9999791 Z" id="Fill-1" fill="#FFFFFF" mask="url(#mask-2)"></path>
            <path d="M7.36737332,9.34558261 C7.36737332,8.89657391 7.72499596,8.54158261 8.17733288,8.54158261 L8.3561442,8.54158261 C8.70325472,8.54158261 8.94524394,8.71907826 9.09241375,8.95928696 L11.0489313,12.1229043 L13.0159609,8.94874783 C13.1842601,8.67733913 13.4157372,8.54158261 13.7418235,8.54158261 L13.9206348,8.54158261 C14.3729717,8.54158261 14.7305943,8.89657391 14.7305943,9.34558261 L14.7305943,15.1509739 C14.7305943,15.5999826 14.3729717,15.9549739 13.9206348,15.9549739 C13.47881,15.9549739 13.1210822,15.5895478 13.1210822,15.1509739 L13.1210822,11.5069391 L11.7012089,13.6787304 C11.5328046,13.9293739 11.3224569,14.086 11.027907,14.086 C10.7334623,14.086 10.5231146,13.9293739 10.3547102,13.6787304 L8.95565094,11.5382435 L8.95565094,15.1718435 C8.95565094,15.6104174 8.5980283,15.9549739 8.15630863,15.9549739 C7.71458895,15.9549739 7.36737332,15.6104174 7.36737332,15.1718435 L7.36737332,9.34558261 L7.36737332,9.34558261 Z" id="Fill-4" fill="#FFFFFF" mask="url(#mask-2)"></path>
            <path d="M16.4026642,11.0265635 C16.4026642,10.5880939 16.7602868,10.2331026 17.2020065,10.2331026 C17.6438313,10.2331026 18.0014539,10.5880939 18.0014539,11.0265635 L18.0014539,15.1614504 C18.0014539,15.59992 17.6438313,15.9549113 17.2020065,15.9549113 C16.7602868,15.9549113 16.4026642,15.59992 16.4026642,15.1614504 L16.4026642,11.0265635 L16.4026642,11.0265635 Z M16.308055,8.95922435 C16.308055,8.49978087 16.6971089,8.21793739 17.2020065,8.21793739 C17.706904,8.21793739 18.0960631,8.49978087 18.0960631,8.95922435 L18.0960631,8.98009391 C18.0960631,9.43953739 17.706904,9.73192 17.2020065,9.73192 C16.6971089,9.73192 16.308055,9.43953739 16.308055,8.98009391 L16.308055,8.95922435 L16.308055,8.95922435 Z" id="Fill-6" fill="#FFFFFF" mask="url(#mask-2)"></path>
            <path d="M19.5790933,9.00095304 C19.5790933,8.56248348 19.9366108,8.20749217 20.3784356,8.20749217 C20.8202604,8.20749217 21.177883,8.56248348 21.177883,9.00095304 L21.177883,15.16144 C21.177883,15.5999096 20.8202604,15.9550052 20.3784356,15.9550052 C19.9366108,15.9550052 19.5790933,15.5999096 19.5790933,15.16144 L19.5790933,9.00095304 L19.5790933,9.00095304 Z" id="Fill-8" fill="#FFFFFF" mask="url(#mask-2)"></path>
            <path d="M26.3844671,12.6554643 C26.289858,11.9454817 25.8690574,11.4651687 25.1957555,11.4651687 C24.533176,11.4651687 24.1018633,11.935047 23.9757178,12.6554643 L26.3844671,12.6554643 L26.3844671,12.6554643 Z M25.3535426,16.0176557 C23.6601437,16.0176557 22.4083593,14.8376904 22.4083593,13.1253426 L22.4083593,13.104473 C22.4083593,11.5069078 23.5548121,10.1912904 25.1957555,10.1912904 C27.0786881,10.1912904 27.909672,11.726247 27.909672,12.8851339 C27.909672,13.3445774 27.5835857,13.6474991 27.1627852,13.6474991 L23.9966369,13.6474991 C24.154424,14.3678122 24.6594267,14.7437774 25.3747771,14.7437774 C25.8164968,14.7437774 26.1847367,14.6080209 26.5107178,14.3678122 C26.6264563,14.2843339 26.7314725,14.2425948 26.8997717,14.2425948 C27.2574995,14.2425948 27.5205129,14.5141078 27.5205129,14.8690991 C27.5205129,15.0778991 27.4257987,15.2345252 27.3101652,15.3389774 C26.8157798,15.7565774 26.1740143,16.0176557 25.3535426,16.0176557 L25.3535426,16.0176557 L25.3535426,16.0176557 Z" id="Fill-10" fill="#FFFFFF" mask="url(#mask-2)"></path>
            <path d="M28.982214,15.359847 C28.8138097,15.2553948 28.6772571,15.0674643 28.6772571,14.8169252 C28.6772571,14.4619339 28.9505725,14.1904209 29.3083003,14.1904209 C29.4239337,14.1904209 29.5397774,14.2217252 29.6238744,14.2738991 C30.1603084,14.6080209 30.6967423,14.7750817 31.1490792,14.7750817 C31.6119283,14.7750817 31.822276,14.6080209 31.822276,14.3574817 L31.822276,14.3365078 C31.822276,13.9919513 31.2752248,13.8771687 30.6546938,13.6891339 C29.8657585,13.4594643 28.9717019,13.0939339 28.9717019,12.0080904 L28.9717019,11.9872209 C28.9717019,10.8490991 29.8974,10.21216 31.0334458,10.21216 C31.6224404,10.21216 32.2325644,10.3688904 32.7795105,10.6402991 C33.0108825,10.7551861 33.1582625,10.9639861 33.1582625,11.2354991 C33.1582625,11.5904904 32.8741197,11.8620035 32.516497,11.8620035 C32.4008636,11.8620035 32.3271736,11.8410296 32.2219472,11.7888557 C31.7697154,11.5696209 31.3384027,11.4338643 31.0019094,11.4338643 C30.6126453,11.4338643 30.4127046,11.6009252 30.4127046,11.82016 L30.4127046,11.8410296 C30.4127046,12.1542817 30.9492437,12.3005774 31.5593677,12.509273 C32.348303,12.7703513 33.2633838,13.1462122 33.2633838,14.1695513 L33.2633838,14.1904209 C33.2633838,15.4328904 32.3271736,15.9967861 31.1070307,15.9967861 C30.4127046,15.9967861 29.6659229,15.7983165 28.982214,15.359847" id="Fill-12" fill="#FFFFFF" mask="url(#mask-2)"></path>
        </g>
    </g>
</svg>