<?xml version="1.0" encoding="UTF-8" standalone="no"?>
<svg width="46px" height="70px" viewBox="0 0 46 70" version="1.1" xmlns="http://www.w3.org/2000/svg" xmlns:xlink="http://www.w3.org/1999/xlink">
    <!-- Generator: Sketch Beta 3.6 (26304) - http://www.bohemiancoding.com/sketch -->
    <title>icon-doorlabel</title>
    <desc>Created with Sketch Beta.</desc>
    <defs></defs>
    <g id="Page-1" stroke="none" stroke-width="1" fill="none" fill-rule="evenodd">
        <g id="ORC_landing_2" transform="translate(-468.000000, -720.000000)">
            <g id="icon-doorlabel" transform="translate(470.000000, 722.000000)">
                <ellipse id="XMLID_720_" fill="#FFFFFF" opacity="0.1" cx="27.4615385" cy="10.72" rx="6.46153846" ry="6.432"></ellipse>
                <path d="M32.8461538,46.576256 C25.4999231,51.486016 15.7763846,53.546936 6.59830769,51.11296 C5.61992308,50.853536 3.71538462,50.128864 2.37892308,49.610016 L0.042,58.131344 C-0.133,58.76972 0.255769231,59.427928 0.909461538,59.599448 L26.9758462,66.4238 C27.6295385,66.594784 28.3031538,66.21476 28.4781538,65.576384 L33.8692308,45.916976 C33.3663077,46.239648 32.9484615,46.507648 32.8461538,46.576256 L32.8461538,46.576256 Z" id="XMLID_362_" fill-opacity="0.1" fill="#62B4E8"></path>
                <path d="M0.909461538,59.598376 C0.255769231,59.427392 -0.133,58.769184 0.042,58.130272 L10.836,18.769112 C11.7799231,15.343536 13.2240769,10.119144 13.3344615,9.771816 C15.6832308,2.935672 22.9223077,-1.148112 30.1694615,0.285688 C30.4801538,0.347328 30.7854615,0.417008 31.0864615,0.496336 C37.4629231,2.165976 41.951,7.83096 42,14.272608 C42.0048462,14.921704 41.7033077,15.523096 41.174,15.923488 C40.635,16.330312 39.9495385,16.465384 39.2936923,16.293864 C38.3621538,16.049984 37.709,15.248128 37.7052308,14.343896 C37.6869231,9.76324 34.5083846,5.7352 29.9750769,4.548496 C29.8183846,4.507224 29.659,4.469168 29.4985385,4.434864 C24.2959231,3.32052 18.9457692,6.329624 17.3325385,11.288696 C17.2975385,11.39536 14.6655385,21.013344 14.6655385,21.013344 L33.0303077,25.821264 C36.2971538,26.67672 38.2426154,29.968832 37.3670769,33.160712 L28.4776154,65.575848 C28.3026154,66.214224 27.629,66.594248 26.9753077,66.423264 L0.909461538,59.598376 L0.909461538,59.598376 Z" id="XMLID_363_" stroke="#050E39" stroke-width="2.5"></path>
                <g id="XMLID_360_" transform="translate(2.153846, 45.560000)" stroke="#050E39" stroke-width="2.5">
                    <path d="M31.5285385,0.437376 C24.0945385,5.760392 13.9757692,8.0802 4.44446154,5.552424 C3.25769231,5.237792 1.66653846,4.688928 0.422153846,4.20224" id="XMLID_361_"></path>
                </g>
                <ellipse id="XMLID_359_" stroke="#050E39" stroke-width="2" cx="27.4615385" cy="11.432" rx="6.46153846" ry="6.432"></ellipse>
            </g>
        </g>
    </g>
</svg>