<?xml version="1.0" encoding="UTF-8" standalone="no"?>
<svg width="82px" height="96px" viewBox="0 0 82 96" version="1.1" xmlns="http://www.w3.org/2000/svg" xmlns:xlink="http://www.w3.org/1999/xlink">
    <!-- Generator: Sketch Beta 3.6 (26304) - http://www.bohemiancoding.com/sketch -->
    <title>trash</title>
    <desc>Created with Sketch Beta.</desc>
    <defs></defs>
    <g id="Page-1" stroke="none" stroke-width="1" fill="none" fill-rule="evenodd">
        <g id="ORC_Step_3_Form_Bluelink" transform="translate(-447.000000, -726.000000)" fill="#696E88">
            <g id="trash" transform="translate(447.000000, 726.000000)">
                <path d="M58.021978,96 L23.2087912,96 C15.2104615,96 8.7032967,89.271 8.7032967,81 L8.7032967,28.5 C8.7032967,26.844 10.0000879,25.5 11.6043956,25.5 C13.2087033,25.5 14.5054945,26.844 14.5054945,28.5 L14.5054945,81 C14.5054945,85.962 18.4103736,90 23.2087912,90 L58.021978,90 C62.8203956,90 66.7252747,85.962 66.7252747,81 L66.7252747,28.5 C66.7252747,26.844 68.0220659,25.5 69.6263736,25.5 C71.2306813,25.5 72.5274725,26.844 72.5274725,28.5 L72.5274725,81 C72.5274725,89.271 66.0203077,96 58.021978,96" id="Fill-1"></path>
                <path d="M46.4175824,18 C44.8132747,18 43.5164835,16.656 43.5164835,15 L43.5164835,9 C43.5164835,7.347 42.2167912,6 40.6153846,6 C39.013978,6 37.7142857,7.347 37.7142857,9 L37.7142857,15 C37.7142857,16.656 36.4174945,18 34.8131868,18 C33.2088791,18 31.9120879,16.656 31.9120879,15 L31.9120879,9 C31.9120879,4.038 35.816967,0 40.6153846,0 C45.4138022,0 49.3186813,4.038 49.3186813,9 L49.3186813,15 C49.3186813,16.656 48.0218901,18 46.4175824,18" id="Fill-3"></path>
                <path d="M5.8021978,24 L75.4285714,24 L75.4285714,21 C75.4285714,19.347 74.1288791,18 72.5274725,18 L8.7032967,18 C7.10189011,18 5.8021978,19.347 5.8021978,21 L5.8021978,24 Z M78.3296703,30 L2.9010989,30 C1.29679121,30 0,28.656 0,27 L0,21 C0,16.038 3.90487912,12 8.7032967,12 L72.5274725,12 C77.3258901,12 81.2307692,16.038 81.2307692,21 L81.2307692,27 C81.2307692,28.656 79.933978,30 78.3296703,30 L78.3296703,30 Z" id="Fill-5"></path>
                <path d="M26.1098901,83.9823 C24.5055824,83.9823 23.2087912,82.6383 23.2087912,80.9823 L23.2087912,39.0183 C23.2087912,37.3593 24.5055824,36.0183 26.1098901,36.0183 C27.7141978,36.0183 29.010989,37.3593 29.010989,39.0183 L29.010989,80.9823 C29.010989,82.6383 27.7141978,83.9823 26.1098901,83.9823" id="Fill-7"></path>
                <path d="M40.6153846,83.9823 C39.0110769,83.9823 37.7142857,82.6383 37.7142857,80.9823 L37.7142857,39.0183 C37.7142857,37.3593 39.0110769,36.0183 40.6153846,36.0183 C42.2196923,36.0183 43.5164835,37.3593 43.5164835,39.0183 L43.5164835,80.9823 C43.5164835,82.6383 42.2196923,83.9823 40.6153846,83.9823" id="Fill-9"></path>
                <path d="M55.1208791,83.9823 C53.5165714,83.9823 52.2197802,82.6383 52.2197802,80.9823 L52.2197802,39.0183 C52.2197802,37.3593 53.5165714,36.0183 55.1208791,36.0183 C56.7251868,36.0183 58.021978,37.3593 58.021978,39.0183 L58.021978,80.9823 C58.021978,82.6383 56.7251868,83.9823 55.1208791,83.9823" id="Fill-11"></path>
            </g>
        </g>
    </g>
</svg>