<?xml version="1.0" encoding="UTF-8" standalone="no"?>
<svg width="166px" height="151px" viewBox="0 0 166 151" version="1.1" xmlns="http://www.w3.org/2000/svg" xmlns:xlink="http://www.w3.org/1999/xlink">
    <!-- Generator: Sketch Beta 3.6 (26304) - http://www.bohemiancoding.com/sketch -->
    <title>noun_110598_cc</title>
    <desc>Created with Sketch Beta.</desc>
    <defs></defs>
    <g id="Page-1" stroke="none" stroke-width="1" fill="none" fill-rule="evenodd">
        <g id="ORC_Step_4_Email_Confirmation" transform="translate(-429.000000, -175.000000)" stroke="#62B4E8">
            <g id="noun_110598_cc" transform="translate(431.000000, 178.000000)">
                <g id="Group">
                    <g transform="translate(0.708463, 0.000000)" id="Shape">
                        <g stroke-width="5">
                            <path d="M160.089286,62.615764 L160.089286,144.739957 L0,144.739957 L0,62.615764"></path>
                            <path d="M24.7094332,77.7190638 L24.7094332,0 L135.379852,0 L135.379852,77.7190638"></path>
                            <path d="M0,62.615764 L80.0446429,111.072184 L160.089286,62.615764"></path>
                            <path d="M135.379852,46.3098996 L160.089286,63.615764"></path>
                            <path d="M0,63.615764 L24.7094332,46.3098996"></path>
                        </g>
                        <path d="M88.7396958,62.6049413 C85.2925879,64.4121163 81.6300358,65.014508 77.5365951,65.014508 C67.1952713,65.014508 58.3620573,57.9866051 58.3620573,46.5411632 C58.3620573,34.2925324 67.4107156,23.8510766 81.4145915,23.8510766 C92.402248,23.8510766 99.7273523,31.0797768 99.7273523,40.9188409 C99.7273523,49.7539188 94.3412462,54.9746467 88.5242516,54.9746467 C85.9389207,54.9746467 83.569034,53.3682689 83.7844782,49.7539188 L83.569034,49.7539188 C81.4145915,53.1674717 78.3983721,54.9746467 74.7358199,54.9746467 C71.0732678,54.9746467 67.8416041,52.1634855 67.8416041,47.5451493 C67.8416041,40.3164492 74.0894872,33.4893435 82.9227012,33.4893435 C85.7234764,33.4893435 88.0933631,34.0917352 89.6014728,34.6941269 L87.4470304,45.3363798 C86.5852534,49.7539188 87.2315861,51.9626883 89.3860286,51.9626883 C92.6176922,51.9626883 96.2802444,47.9467438 96.2802444,41.1196381 C96.2802444,32.6861546 90.678694,26.6622378 80.983703,26.6622378 C70.6423793,26.6622378 61.8091652,34.2925324 61.8091652,46.1395687 C61.8091652,55.9786328 68.7033811,62.0025496 77.9674836,62.0025496 C81.6300358,62.0025496 84.8616994,61.1993607 87.4470304,59.9945773 L88.7396958,62.6049413 L88.7396958,62.6049413 Z M85.2925879,37.1036936 C84.6462552,36.9028963 83.569034,36.7020991 82.0609242,36.7020991 C76.4593739,36.7020991 71.9350447,41.5212325 71.9350447,47.3443521 C71.9350447,49.954716 73.2277102,51.7618911 76.0284854,51.7618911 C79.6910376,51.7618911 83.1381455,47.3443521 83.7844782,43.730002 L85.2925879,37.1036936 L85.2925879,37.1036936 Z" stroke-width="2" fill="#62B4E8"></path>
                    </g>
                </g>
            </g>
        </g>
    </g>
</svg>