<?xml version="1.0" encoding="UTF-8" standalone="no"?>
<svg width="65px" height="65px" viewBox="0 0 65 65" version="1.1" xmlns="http://www.w3.org/2000/svg" xmlns:xlink="http://www.w3.org/1999/xlink">
    <!-- Generator: Sketch Beta 3.8.3 (29801) - http://www.bohemiancoding.com/sketch -->
    <title>Group 4</title>
    <desc>Created with Sketch Beta.</desc>
    <defs></defs>
    <g id="Page-1" stroke="none" stroke-width="1" fill="none" fill-rule="evenodd">
        <g id="Group-4">
            <rect id="Rectangle-74-Copy" fill-opacity="0.5" fill="#000000" x="0" y="0" width="65" height="65"></rect>
            <g id="Group-2" transform="translate(24.000000, 19.000000)" fill="#FFFFFF">
                <path d="M0,3.5 C0,1.75 1.76842105,0 3.53684211,0 C5.30526316,0 7.07368421,1.75 7.07368421,3.5 L7.07368421,24.5 C7.07368421,26.25 5.30526316,28 3.53684211,28 C1.76842105,28 0,26.25 0,24.5 L0,3.5 L0,3.5 Z" id="Shape"></path>
                <path d="M10.6105263,3.5 C10.6105263,1.75 12.3789474,0 14.1473684,0 C15.9157895,0 17.6842105,1.75 17.6842105,3.5 L17.6842105,24.5 C17.6842105,26.25 15.9157895,28 14.1473684,28 C12.3789474,28 10.6105263,26.25 10.6105263,24.5 L10.6105263,3.5 L10.6105263,3.5 Z" id="Shape"></path>
            </g>
        </g>
    </g>
</svg>