<?xml version="1.0" encoding="UTF-8" standalone="no"?>
<svg width="88px" height="88px" viewBox="0 0 88 88" version="1.1" xmlns="http://www.w3.org/2000/svg" xmlns:xlink="http://www.w3.org/1999/xlink">
    <!-- Generator: Sketch 3.6.1 (26313) - http://www.bohemiancoding.com/sketch -->
    <title>reward</title>
    <desc>Created with Sketch.</desc>
    <defs>
        <path id="path-1" d="M51.9454566,0 L7.73735046e-05,0 L7.73735046e-05,51.8694639 L51.9454566,51.8694639 L51.9454566,1.01575869e-14 L51.9454566,0 Z"></path>
    </defs>
    <g id="Page-1" stroke="none" stroke-width="1" fill="none" fill-rule="evenodd">
        <g id="test-incons-ok" transform="translate(-478.000000, -67.000000)">
            <g id="reward" transform="translate(478.000000, 67.000000)">
                <g id="Page-1" fill-opacity="0.1" fill="#62B4E8">
                    <g id="Group-5" transform="translate(0.000000, 0.007858)">
                        <path d="M87.848868,43.9299452 C87.848868,68.1815233 68.1890246,87.840962 43.9374465,87.840962 C19.6870824,87.840962 0.027643623,68.1815233 0.027643623,43.9299452 C0.027643623,19.6787718 19.6870824,0.0193329862 43.9374465,0.0193329862 C68.1890246,0.0193329862 87.848868,19.6787718 87.848868,43.9299452 L87.848868,43.9299452 Z" id="Stroke-3"></path>
                    </g>
                </g>
                <g id="Page-1" transform="translate(19.000000, 18.000000)">
                    <mask id="mask-2" fill="white">
                        <use xlink:href="#path-1"></use>
                    </mask>
                    <g id="Clip-2"></g>
                    <path d="M41.1283546,39.5504674 C40.3179766,39.3883918 39.5075986,39.7936701 39.2642172,40.6040481 L37.2381828,46.3583574 L30.9976467,35.0119931 C34.8068701,33.8772852 38.129688,31.526921 40.3989251,28.3661787 L47.2069938,40.928378 L41.1283546,39.5504674 Z M11.3845333,17.8301924 C11.3845333,9.80646735 17.9492206,3.24178007 25.972767,3.24178007 C33.9963134,3.24178007 40.5610007,9.80646735 40.5610007,17.8301924 C40.5610007,25.8537388 33.9963134,32.4184261 25.972767,32.4184261 C17.9492206,32.4184261 11.3845333,25.8537388 11.3845333,17.8301924 L11.3845333,17.8301924 Z M14.7073512,46.2774089 L12.6813168,40.6040481 C12.4379354,39.7936701 11.6275574,39.3883918 10.8171794,39.5504674 L4.73854021,40.928378 L11.6275574,28.4471271 C13.8967945,31.526921 17.0577155,33.7961581 20.7858117,34.930866 L14.7073512,46.2774089 Z M51.745468,42.549134 L42.2630625,25.0431821 C43.2356948,22.8548935 43.8028701,20.4235808 43.8028701,17.8301924 C43.8028701,8.02345704 35.8604509,-8.9347079e-05 25.972767,-8.9347079e-05 C16.1662103,-8.9347079e-05 8.14248522,7.94250859 8.14248522,17.8301924 C8.14248522,20.4235808 8.70983918,22.9360206 9.68247148,25.1243093 L0.200065979,42.549134 C-0.124085223,43.116488 -0.0429580756,43.7649691 0.362141581,44.332323 C0.767419931,44.8183711 1.41572234,45.0617526 1.98307629,44.899677 L10.0877498,43.0355395 L12.8433924,50.8158832 C13.0864165,51.3832371 13.5726433,51.8694639 14.2211244,51.8694639 L14.3020729,51.8694639 C14.8694268,51.8694639 15.4367808,51.5453127 15.760932,50.9779588 L24.0276811,35.4980412 C24.5950351,35.5791684 25.2433375,35.5791684 25.8106914,35.5791684 C26.3780454,35.5791684 26.9453993,35.5791684 27.5127533,35.4980412 L36.1036536,51.0589072 C36.4276261,51.5453127 36.9140316,51.8694639 37.562334,51.8694639 L37.7244096,51.8694639 C38.3728907,51.7883368 38.9402447,51.3832371 39.1023203,50.8158832 L41.8577842,43.0355395 L49.9624577,44.899677 C50.6107601,45.0617526 51.2590625,44.8183711 51.5833924,44.332323 C51.9884921,43.7649691 52.0696192,43.116488 51.745468,42.549134 L51.745468,42.549134 Z" id="Fill-1" fill="#696E88" mask="url(#mask-2)"></path>
                </g>
                <path d="M44.5951865,28 C44.098112,28 43.6563425,28.3203865 43.5033851,28.7937553 L42.2388425,32.683695 L38.1483851,32.683695 C37.6513106,32.683695 37.2095411,33.0040816 37.0565588,33.4775993 C36.9022113,33.9501986 37.0711546,34.4683972 37.4732574,34.7611312 L40.7830411,37.1664007 L39.5184985,41.0569362 C39.364151,41.5295603 39.5330695,42.0484787 39.9351971,42.3404681 C40.1369312,42.4868972 40.3742361,42.56 40.6103,42.56 C40.8476049,42.56 41.085034,42.4868972 41.2854276,42.3404681 L44.5951865,39.9353475 L47.9049454,42.3404681 C48.105339,42.4868972 48.3427929,42.56 48.5800482,42.56 C48.8161368,42.56 49.0534418,42.4868972 49.2551758,42.3404681 C49.6573035,42.047734 49.8260482,41.5295603 49.6718993,41.0569362 L48.4073319,37.1664007 L51.7183319,34.7619007 C52.1204347,34.4697624 52.289378,33.9509681 52.1350305,33.478195 C51.9806829,33.0048511 51.5402787,32.6842908 51.0430553,32.6842908 L46.9515553,32.6842908 L45.6869879,28.7937801 C45.5326652,28.3203865 45.0922361,28 44.5951865,28 Z" id="Fill-1" fill="#696E88"></path>
            </g>
        </g>
    </g>
</svg>