<?xml version="1.0" encoding="UTF-8" standalone="no"?>
<svg width="50px" height="50px" viewBox="0 0 50 50" version="1.1" xmlns="http://www.w3.org/2000/svg" xmlns:xlink="http://www.w3.org/1999/xlink">
    <!-- Generator: Sketch Beta 39 (31443) - http://www.bohemiancoding.com/sketch -->
    <title>Shape</title>
    <desc>Created with Sketch Beta.</desc>
    <defs></defs>
    <g id="Page-1" stroke="none" stroke-width="1" fill="none" fill-rule="evenodd">
        <path d="M49.3877551,46.4489796 L37.3673469,34.4285714 C40.3469388,30.7959184 42.1428571,26.1428571 42.1428571,21.0714286 C42.1428571,9.43877551 32.7040816,0 21.0714286,0 C9.42857143,0 0,9.43877551 0,21.0714286 C0,32.7040816 9.42857143,42.1428571 21.0714286,42.1428571 C26.1428571,42.1428571 30.7857143,40.3571429 34.4183673,37.377551 L46.4387755,49.3877551 C47.255102,50.2040816 48.5714286,50.2040816 49.3877551,49.3877551 C50.2040816,48.5816327 50.2040816,47.255102 49.3877551,46.4489796 L49.3877551,46.4489796 Z M21.0714286,37.9489796 C11.755102,37.9489796 4.18367347,30.377551 4.18367347,21.0714286 C4.18367347,11.7653061 11.755102,4.18367347 21.0714286,4.18367347 C30.377551,4.18367347 37.9591837,11.7653061 37.9591837,21.0714286 C37.9591837,30.377551 30.377551,37.9489796 21.0714286,37.9489796 L21.0714286,37.9489796 Z" id="Shape" fill="#FFFFFF"></path>
    </g>
</svg>