<?xml version="1.0" encoding="UTF-8" standalone="no"?>
<svg width="309px" height="288px" viewBox="0 0 309 288" version="1.1" xmlns="http://www.w3.org/2000/svg" xmlns:xlink="http://www.w3.org/1999/xlink" style="background: #FFFFFF;">
    <!-- Generator: Sketch Beta 3.7.2 (28276) - http://www.bohemiancoding.com/sketch -->
    <title>afshop]</title>
    <desc>Created with Sketch Beta.</desc>
    <defs></defs>
    <g id="Symbols" stroke="none" stroke-width="1" fill="none" fill-rule="evenodd">
        <g id="afshop]" fill="#051039">
            <g id="shop-af" transform="translate(60.000000, 24.000000)">
                <g id="Group">
                    <g id="Page-1">
                        <g id="Group-3" transform="translate(0.000000, 51.424906)">
                            <path d="M133.317146,81.95423 L109.484793,116.379115 C102.176874,127.007185 91.4033446,136.654203 76.6117157,136.654203 L20.9359238,136.654203 L20.9359238,134.415391 C33.8440686,133.434338 44.5422587,124.240114 51.1344532,114.693717 L101.197462,42.1335553 L133.317146,42.1335553 L160.878797,42.1335553 L133.317146,81.95423 Z M133.317146,0.0363352827 L0.368276772,0.0363352827 L0.368276772,187.266457 L133.317146,187.266457 L188.453005,187.266457 L188.453005,0.0363352827 L133.317146,0.0363352827 Z" id="Fill-1"></path>
                        </g>
                        <path d="M73.758865,16.5936248 C88.663503,16.5936248 95.3435935,32.4288205 95.3435935,48.2891714 L111.554114,48.2891714 C111.554114,26.0771336 97.6037745,0.745851552 73.758865,0.745851552 C49.9013989,0.745851552 35.9636161,26.0771336 35.9636161,48.2891714 L52.1615799,48.2891714 C52.1615799,32.4288205 58.854227,16.5936248 73.758865,16.5936248" id="Fill-4"></path>
                        <path d="M105.641229,16.6615439 C105.641229,16.6615439 108.001863,15.6930688 111.55537,15.8565776 C126.434894,16.5483455 133.140098,32.421274 133.140098,48.2942024 L149.325505,48.2942024 C149.325505,26.0821646 135.387722,0.00880431849 111.55537,0.00880431849 C111.55537,0.00880431849 100.74417,-0.368523617 95.3448492,4.91406748 C95.3448492,4.91406748 100.4177,8.56157085 105.641229,16.6615439" id="Fill-6"></path>
                    </g>
                </g>
            </g>
        </g>
    </g>
</svg>