<?xml version="1.0" encoding="UTF-8" standalone="no"?>
<svg width="88px" height="88px" viewBox="0 0 88 88" version="1.1" xmlns="http://www.w3.org/2000/svg" xmlns:xlink="http://www.w3.org/1999/xlink">
    <!-- Generator: Sketch 3.6.1 (26313) - http://www.bohemiancoding.com/sketch -->
    <title>treat_yourself</title>
    <desc>Created with Sketch.</desc>
    <defs></defs>
    <g id="Page-1" stroke="none" stroke-width="1" fill="none" fill-rule="evenodd">
        <g id="test-incons-ok" transform="translate(-791.000000, -66.000000)">
            <g id="treat_yourself" transform="translate(791.000000, 66.000000)">
                <g id="Page-1-Copy-4" fill-opacity="0.1" fill="#62B4E8">
                    <g id="Group-5" transform="translate(0.000000, 0.007858)">
                        <path d="M87.782957,43.9299455 C87.782957,68.1451213 68.1526235,87.7750507 43.9374477,87.7750507 C19.7234841,87.7750507 0.0935546857,68.1451213 0.0935546857,43.9299455 C0.0935546857,19.7151738 19.7234841,0.0852443527 43.9374477,0.0852443527 C68.1526235,0.0852443527 87.782957,19.7151738 87.782957,43.9299455 L87.782957,43.9299455 Z" id="Stroke-3"></path>
                    </g>
                </g>
                <g id="Page-1" transform="translate(18.000000, 44.000000)" stroke="#696E88" stroke-linecap="round">
                    <path d="M5.6665,2.7573 C5.6665,2.7573 12.5385,18.0543 26.7305,18.0543 C40.9245,18.0543 47.7955,2.7573 47.7955,2.7573" id="Stroke-1" stroke-width="5"></path>
                    <path d="M11.333,0.3203 C11.333,0.3203 3.173,-2.0267 0,5.9873" id="Stroke-3" stroke-width="2"></path>
                    <path d="M40.9009,0.3203 C40.9009,0.3203 49.0609,-2.0267 52.2339,5.9873" id="Stroke-5" stroke-width="2"></path>
                </g>
            </g>
        </g>
    </g>
</svg>