<?xml version="1.0" encoding="UTF-8" standalone="no"?>
<svg width="500px" height="129px" viewBox="0 0 500 129" version="1.1" xmlns="http://www.w3.org/2000/svg" xmlns:xlink="http://www.w3.org/1999/xlink">
    <!-- Generator: Sketch Beta 3.7.2 (28276) - http://www.bohemiancoding.com/sketch -->
    <title>golf-logo</title>
    <desc>Created with Sketch Beta.</desc>
    <defs></defs>
    <g id="Page-1" stroke="none" stroke-width="1" fill="none" fill-rule="evenodd">
        <g id="golf-logo">
            <g id="Group">
                <path d="M488.318671,26.4996918 C486.688341,16.1212591 478.690441,10.3437559 468.519734,10.3437559 C458.554994,10.3437559 449.579476,16.2295507 447.957849,26.4996918 L488.318671,26.4996918 Z M447.627141,34.9757045 C448.491622,46.7707083 458.885702,53.0955231 468.519734,53.0955231 C474.687139,53.0955231 483.125983,51.0233487 486.804379,42.9453808 L498.274709,42.9453808 C492.858648,56.6984138 480.201832,62.2739677 469.053508,62.2739677 C446.983132,62.2739677 436.162614,48.1902063 436.162614,31.6918349 C436.162614,15.2490727 446.983132,1.17116484 469.053508,1.17116484 C483.984662,1.17116484 499.791902,9.90180914 499.791902,33.5532797 L499.791902,34.9757045 L447.627141,34.9757045 Z" id="Fill-1" fill="#0097D8"></path>
                <path d="M122.828257,1.95642527 L122.648398,2.21398366 L104.395663,27.4839746 L86.4127165,2.21983726 L86.2299571,1.95642527 L74.0314909,1.95642527 L74.7625286,2.94568366 L99.414744,36.3375445 L99.414744,60.2612074 L109.040074,60.2612074 L109.040074,35.9336461 L133.854742,2.95153726 L134.597383,1.95642527 L122.828257,1.95642527 Z M60.5508079,1.95642527 L50.9225773,1.95642527 L50.9225773,60.2612074 L94.918282,60.2612074 L94.918282,51.6651959 L60.5508079,51.6651959 L60.5508079,1.95642527 Z M0.953830607,60.2612074 L10.5472498,60.2612074 L10.5472498,34.7512189 L44.3229316,34.7512189 L44.3229316,26.1874022 L10.5472498,26.1874022 L10.5472498,10.5553636 L45.9474597,10.5553636 L45.9474597,1.95642527 L0.953830607,1.95642527 L0.953830607,60.2612074 Z" id="Fill-3" fill="#002E51"></path>
                <path d="M244.676284,28.2376256 L244.676284,36.8307103 L263.120481,36.8307103 C261.945599,46.7467086 253.979609,53.1066449 242.674633,53.1066449 C236.228737,53.1066449 221.283078,50.9934953 221.283078,31.3312531 C221.283078,20.6133117 226.806474,9.11098779 242.277204,9.11098779 C252.302864,9.11098779 258.212085,12.8163165 260.843241,20.7684321 L260.976684,21.1898913 L271.071966,21.1898913 L270.895009,20.4377037 C267.94475,7.40759021 257.904585,0.517903084 241.876874,0.517903084 C227.955247,0.517903084 211.651947,8.78611299 211.651947,32.0483191 C211.651947,45.7369626 219.644045,61.7026564 242.114751,61.7026564 C253.585081,61.7026564 259.73508,56.908558 263.422179,52.8578669 L264.631872,59.7592612 L264.713099,60.259744 L271.866825,60.259744 L271.866825,28.2376256 L244.676284,28.2376256 Z M136.006952,60.259744 L145.638083,60.259744 L145.638083,1.95496187 L136.006952,1.95496187 L136.006952,60.259744 Z" id="Fill-5" fill="#002E51"></path>
                <path d="M341.212132,51.6663666 L341.212132,1.95759599 L331.583901,1.95759599 L331.583901,60.2623781 L375.478073,60.2623781 L375.478073,51.6663666 L341.212132,51.6663666 Z M307.500271,51.6663666 L285.363173,51.6663666 L285.363173,34.1084936 L308.216804,34.1084936 C317.34027,34.1084936 318.700812,39.4323428 318.700812,42.6079207 C318.700812,48.6195679 314.932487,51.6663666 307.500271,51.6663666 L307.500271,51.6663666 Z M285.363173,10.5536075 L307.186969,10.5536075 C313.363077,10.5536075 316.243713,12.9711443 316.243713,18.1779214 C316.243713,22.7905582 313.03527,25.5505305 307.665624,25.5505305 L285.363173,25.5505305 L285.363173,10.5536075 Z M318.654397,28.9163505 C323.438053,26.6539341 325.871944,22.647145 325.871944,16.8901294 C325.871944,10.0765391 322.741826,1.95759599 307.822275,1.95759599 L275.734942,1.95759599 L275.734942,60.2623781 L309.800718,60.2623781 C322.530057,60.2623781 328.331944,51.4029546 328.331944,43.1757199 C328.331944,35.8382324 324.984255,30.9358425 318.654397,28.9163505 L318.654397,28.9163505 Z" id="Fill-7" fill="#0097D8"></path>
                <path d="M151.240094,1.96198619 L162.133136,1.96198619 L162.133136,11.2516493 L162.356509,11.2516493 C167.491178,3.20002257 176.562428,0.560049004 184.760493,0.560049004 C198.493558,0.560049004 208.762897,6.51023334 208.762897,20.9598448 L208.762897,60.2843291 L197.837945,60.2843291 L197.837945,23.1637251 C197.837945,14.6701516 192.630752,9.8262977 180.928347,9.8262977 C170.986815,9.8262977 162.133136,15.6652636 162.133136,26.9890527 L162.133136,60.2843291 L151.240094,60.2843291 L151.240094,1.96198619 Z" id="Fill-9" fill="#002E51"></path>
                <path d="M433.333904,59.5406293 L422.40315,59.5406293 L422.40315,50.8216922 L422.182678,50.8216922 C417.05091,58.8733189 407.97966,61.519146 399.778694,61.519146 C386.005015,61.519146 375.738577,55.5660349 375.738577,41.1164235 L375.738577,1.78901231 L386.657728,1.78901231 L386.657728,38.9125431 C386.657728,47.4061166 391.908435,52.2528973 403.605038,52.2528973 C413.549471,52.2528973 422.40315,46.4110046 422.40315,35.0608743 L422.40315,1.78901231 L433.333904,1.78901231 L433.333904,59.5406293 Z" id="Fill-11" fill="#0097D8"></path>
                <path d="M387.519598,120.906259 C383.153678,126.593031 377.435919,128.758863 371.956038,128.758863 C354.405331,128.758863 344.080874,115.538508 344.080874,99.0342827 C344.080874,82.0529892 354.405331,68.829707 371.956038,68.829707 C383.551108,68.829707 394.510871,76.0413421 395.856909,89.0187732 L383.951438,89.0187732 C382.515471,82.6881048 377.833348,79.4071621 371.956038,79.4071621 C360.758397,79.4071621 356.549128,89.0187732 356.549128,99.0342827 C356.549128,108.56687 360.758397,118.184335 371.956038,118.184335 C380.055471,118.184335 384.740494,113.776574 385.454126,105.844946 L372.910448,105.844946 L372.910448,96.4674791 L396.732993,96.4674791 L396.732993,127.397901 L388.790211,127.397901 L387.519598,120.906259 Z" id="Fill-13" fill="#6A8915"></path>
                <polygon id="Fill-15" fill="#6A8915" points="454.423761 70.1900836 465.699727 70.1900836 465.699727 127.394389 454.423761 127.394389"></polygon>
                <path d="M477.035163,93.5875079 L470.284668,93.5875079 L470.284668,85.9749012 L477.035163,85.9749012 L477.035163,82.772982 C477.035163,75.4793965 481.560634,70.190669 490.771129,70.190669 C492.761176,70.190669 494.823747,70.4277398 496.726765,70.512617 L496.726765,79.0061905 C495.377827,78.8452165 494.028888,78.7661929 492.598723,78.7661929 C489.584643,78.7661929 488.308228,80.0452045 488.308228,83.490048 L488.308228,85.9749012 L496.091459,85.9749012 L496.091459,93.5875079 L488.308228,93.5875079 L488.308228,127.394974 L477.035163,127.394974 L477.035163,93.5875079 Z" id="Fill-17" fill="#6A8915"></path>
                <path d="M425.537619,119.943049 C433.236722,119.943049 435.542972,113.296286 435.542972,106.72562 C435.542972,100.078858 433.236722,93.4262412 425.537619,93.4262412 C417.916841,93.4262412 415.610591,100.078858 415.610591,106.72562 C415.610591,113.296286 417.916841,119.943049 425.537619,119.943049 M425.537619,84.8565709 C438.481628,84.8565709 446.816037,93.5111184 446.816037,106.72562 C446.816037,119.866952 438.481628,128.515646 425.537619,128.515646 C412.669035,128.515646 404.334625,119.866952 404.334625,106.72562 C404.334625,93.5111184 412.669035,84.8565709 425.537619,84.8565709" id="Fill-18" fill="#6A8915"></path>
            </g>
        </g>
    </g>
</svg>