<?xml version="1.0" encoding="UTF-8" standalone="no"?>
<svg width="498px" height="153px" viewBox="0 0 498 153" version="1.1" xmlns="http://www.w3.org/2000/svg" xmlns:xlink="http://www.w3.org/1999/xlink">
    <!-- Generator: Sketch Beta 3.7.2 (28276) - http://www.bohemiancoding.com/sketch -->
    <title>logo-running</title>
    <desc>Created with Sketch Beta.</desc>
    <defs></defs>
    <g id="Page-1" stroke="none" stroke-width="1" fill="none" fill-rule="evenodd">
        <g id="logo-running" transform="translate(-1.000000, -1.000000)">
            <g id="Group">
                <path d="M446.501537,36.2666663 C447.362812,48.0584429 457.727913,54.3883843 467.333066,54.3883843 C473.478218,54.3883843 481.900235,52.3145749 485.559909,44.2393782 L497.000859,44.2393782 C491.609695,57.9904224 478.979649,63.5607708 467.86652,63.5607708 C445.851856,63.5607708 435.072508,49.4811725 435.072508,32.9871538 C435.072508,16.5534202 445.851856,2.47382191 467.86652,2.47382191 C482.75853,2.47382191 498.517775,11.2061268 498.517775,34.8529794 L498.517775,36.2666663 L446.501537,36.2666663 Z M487.076826,27.7996161 C485.452622,17.4245407 477.471673,11.6492227 467.333066,11.6492227 C457.394132,11.6492227 448.438661,17.533054 446.826378,27.7996161 L487.076826,27.7996161 Z" id="Fill-1" fill="#0095DA"></path>
                <path d="M1.07070333,61.5493566 L10.6341333,61.5493566 L10.6341333,36.0457212 L44.3132616,36.0457212 L44.3132616,27.4882432 L10.6341333,27.4882432 L10.6341333,11.853288 L45.9374652,11.853288 L45.9374652,3.26265318 L1.07070333,3.26265318 L1.07070333,61.5493566 Z M60.498674,3.26265318 L50.8994817,3.26265318 L50.8994817,61.5493566 L94.7678799,61.5493566 L94.7678799,52.9587218 L60.498674,52.9587218 L60.498674,3.26265318 Z M122.599875,3.26265318 L122.421064,3.51886509 L104.218063,28.7723171 L86.289239,3.52187935 L86.1104276,3.26265318 L73.9423115,3.26265318 L74.6664977,4.25132974 L99.2500858,37.6282065 L99.2500858,61.5493566 L108.855238,61.5493566 L108.855238,37.2273102 L133.599757,4.25132974 L134.341824,3.26265318 L122.599875,3.26265318 Z" id="Fill-3" fill="#052452"></path>
                <path d="M135.74609,61.5499594 L145.348262,61.5499594 L145.348262,3.26325603 L135.74609,3.26325603 L135.74609,61.5499594 Z M244.105801,29.5355272 L244.105801,38.1231477 L262.499535,38.1231477 C261.340241,48.0340274 253.398034,54.3971256 242.118015,54.3971256 C235.683784,54.3971256 220.779854,52.2841309 220.779854,32.6311699 C220.779854,21.9064406 226.290225,10.4130756 241.721649,10.4130756 C251.723167,10.4130756 257.612023,14.1145842 260.23161,22.0752391 L260.374659,22.4851781 L270.435781,22.4851781 L270.253989,21.7346279 C267.318502,8.7100199 257.299103,1.82244079 241.325284,1.82244079 C227.443559,1.82244079 211.186622,10.0875357 211.186622,33.345549 C211.186622,47.0212367 219.15267,62.9877604 241.560719,62.9877604 C252.995709,62.9877604 259.12894,58.1981047 262.800534,54.1469422 L264.001551,61.0405498 L264.087976,61.5499594 L271.219571,61.5499594 L271.219571,29.5355272 L244.105801,29.5355272 Z" id="Fill-5" fill="#052452"></path>
                <path d="M317.878917,30.2074052 C322.653182,27.9497261 325.079056,23.9467917 325.079056,18.1895593 C325.079056,11.3833652 321.955817,3.25994035 307.078708,3.25994035 L275.086368,3.25994035 L275.086368,61.549658 L309.054574,61.549658 C321.747204,61.549658 327.528773,52.6937685 327.528773,44.4648447 C327.528773,37.1311554 324.1999,32.2329865 317.878917,30.2074052 L317.878917,30.2074052 Z M284.68556,11.8535894 L306.452868,11.8535894 C312.606961,11.8535894 315.476884,14.2710241 315.476884,19.4736331 C315.476884,24.0884619 312.27914,26.8525363 306.917778,26.8525363 L284.68556,26.8525363 L284.68556,11.8535894 Z M306.759828,52.9590232 L284.68556,52.9590232 L284.68556,35.407 L307.472093,35.407 C316.570614,35.407 317.92958,40.7301793 317.92958,43.9011785 C317.92958,49.9116086 314.174541,52.9590232 306.759828,52.9590232 L306.759828,52.9590232 Z M340.379352,52.9590232 L340.379352,3.25994035 L330.7742,3.25994035 L330.7742,61.549658 L374.550212,61.549658 L374.550212,52.9590232 L340.379352,52.9590232 Z" id="Fill-7" fill="#0095DA"></path>
                <path d="M150.935821,3.26596886 L161.798613,3.26596886 L161.798613,12.5528972 L162.022128,12.5528972 C167.139114,4.50482882 176.189951,1.86735324 184.361633,1.86735324 C198.061566,1.86735324 208.3015,7.82051242 208.3015,22.2618216 L208.3015,61.5707578 L197.402944,61.5707578 L197.402944,24.4592156 C197.402944,15.9770941 192.211453,11.1301675 180.546989,11.1301675 C170.628917,11.1301675 161.798613,16.9687849 161.798613,28.2843087 L161.798613,61.5707578 L150.935821,61.5707578 L150.935821,3.26596886 Z" id="Fill-8" fill="#052452"></path>
                <path d="M432.243712,60.8283461 L421.339196,60.8283461 L421.339196,52.1111125 L421.127603,52.1111125 C416.004656,60.1591809 406.953819,62.8056992 398.779157,62.8056992 C385.046441,62.8056992 374.806508,56.8495258 374.806508,42.4112308 L374.806508,3.09325189 L385.699103,3.09325189 L385.699103,40.2078084 C385.699103,48.6989726 390.929337,53.542885 402.599761,53.542885 C412.511873,53.542885 421.339196,47.7042676 421.339196,36.3555869 L421.339196,3.09325189 L432.243712,3.09325189 L432.243712,60.8283461 Z" id="Fill-9" fill="#0095DA"></path>
                <path d="M161.471389,98.700687 L180.186982,98.700687 C187.494408,98.700687 191.326933,95.1920909 191.326933,88.1748987 C191.326933,79.6777059 185.941729,78.1102919 180.005191,78.1102919 L161.471389,78.1102919 L161.471389,98.700687 Z M150.057261,68.6877219 L181.194287,68.6877219 C195.526021,68.6877219 202.738081,75.3341604 202.738081,86.5110284 C202.738081,99.1618684 194.155133,102.390139 191.964694,103.131646 L191.964694,103.315516 C195.892584,103.779711 201.641371,106.917554 201.641371,117.262487 C201.641371,125.015158 202.738081,131.941922 205.205678,134.627626 L192.974978,134.627626 C191.237527,131.764081 191.237527,128.159029 191.237527,124.927744 C191.237527,112.828513 188.76993,107.472177 178.27072,107.472177 L161.471389,107.472177 L161.471389,134.627626 L150.057261,134.627626 L150.057261,68.6877219 Z" id="Fill-10" fill="#E30613"></path>
                <path d="M255.882917,134.627324 L245.657884,134.627324 L245.657884,127.974857 L245.470132,127.974857 C242.91611,132.77657 237.259709,135.920441 232.050336,135.920441 C219.634865,135.920441 214.434433,129.729156 214.434433,117.171757 L214.434433,86.8814807 L224.835296,86.8814807 L224.835296,116.155953 C224.835296,124.556689 228.128406,127.604104 233.877193,127.604104 C242.552526,127.604104 245.470132,121.97347 245.470132,114.58251 L245.470132,86.8814807 L255.882917,86.8814807 L255.882917,134.627324 Z" id="Fill-11" fill="#E30613"></path>
                <path d="M268.397331,86.8805764 L278.2558,86.8805764 L278.2558,93.8977686 L278.437591,94.0846526 C281.632355,88.8187442 286.928153,85.5904741 293.138869,85.5904741 C303.456287,85.5904741 309.845815,91.0342237 309.845815,101.840338 L309.845815,134.62642 L299.436011,134.62642 L299.436011,104.613455 C299.164813,97.1320672 296.420058,93.8977686 290.215303,93.8977686 C283.27742,93.8977686 278.804155,99.444003 278.804155,106.455167 L278.804155,134.62642 L268.397331,134.62642 L268.397331,86.8805764 Z" id="Fill-12" fill="#E30613"></path>
                <path d="M322.357845,86.8805764 L332.216314,86.8805764 L332.216314,93.8977686 L332.401085,94.0846526 C335.595849,88.8187442 340.891647,85.5904741 347.099383,85.5904741 C357.416801,85.5904741 363.809309,91.0342237 363.809309,101.840338 L363.809309,134.62642 L353.399505,134.62642 L353.399505,104.613455 C353.122347,97.1320672 350.386533,93.8977686 344.178797,93.8977686 C337.237934,93.8977686 332.767649,99.444003 332.767649,106.455167 L332.767649,134.62642 L322.357845,134.62642 L322.357845,86.8805764 Z" id="Fill-13" fill="#E30613"></path>
                <path d="M376.593132,86.8817821 L387.002936,86.8817821 L387.002936,134.627626 L376.593132,134.627626 L376.593132,86.8817821 Z M376.593132,68.6877219 L387.002936,68.6877219 L387.002936,78.661901 L376.593132,78.661901 L376.593132,68.6877219 Z" id="Fill-14" fill="#E30613"></path>
                <path d="M399.874973,86.8805764 L409.742383,86.8805764 L409.742383,93.8977686 L409.921194,94.0846526 C413.115958,88.8187442 418.414736,85.5904741 424.622472,85.5904741 C434.93989,85.5904741 441.326437,91.0342237 441.326437,101.840338 L441.326437,134.62642 L430.919613,134.62642 L430.919613,104.613455 C430.642456,97.1320672 427.909621,93.8977686 421.698905,93.8977686 C414.758043,93.8977686 410.287757,99.444003 410.287757,106.455167 L410.287757,134.62642 L399.874973,134.62642 L399.874973,86.8805764 Z" id="Fill-15" fill="#E30613"></path>
                <path d="M487.077422,109.693685 C487.077422,101.47079 483.423708,93.89596 474.378832,93.89596 C465.161104,93.89596 461.96932,102.580037 461.96932,110.52562 C461.96932,118.281306 465.712439,126.308274 474.378832,126.308274 C483.6055,126.308274 487.077422,117.907538 487.077422,109.693685 L487.077422,109.693685 Z M497.484245,132.128806 C497.484245,146.536959 489.264881,153.554151 474.292406,153.554151 C464.79454,153.554151 454.208905,149.861685 453.201601,138.684817 L463.608425,138.684817 C464.889906,144.689218 469.634369,145.705023 474.933147,145.705023 C483.331323,145.705023 487.077422,141.367506 487.077422,133.512351 L487.077422,126.220861 L486.89265,126.220861 C483.969083,131.483755 478.5809,134.627626 472.739727,134.627626 C457.767252,134.627626 451.559516,123.173446 451.559516,109.503787 C451.559516,96.6690772 459.498742,85.5916798 472.924499,85.5916798 C478.858057,85.5916798 484.246241,87.991029 486.89265,93.4377928 L487.077422,93.4377928 L487.077422,86.8817821 L497.484245,86.8817821 L497.484245,132.128806 Z" id="Fill-16" fill="#E30613"></path>
            </g>
        </g>
    </g>
</svg>